<?xml version="1.0" encoding="UTF-8" standalone="no"?>
<!-- Created with Inkscape (http://www.inkscape.org/) -->

<svg
   width="48"
   height="48"
   viewBox="0 0 12.7 12.7"
   version="1.1"
   id="svg5559"
   inkscape:version="1.2.2 (b0a8486541, 2022-12-01)"
   sodipodi:docname="bird2.svg"
   xmlns:inkscape="http://www.inkscape.org/namespaces/inkscape"
   xmlns:sodipodi="http://sodipodi.sourceforge.net/DTD/sodipodi-0.dtd"
   xmlns="http://www.w3.org/2000/svg"
   xmlns:svg="http://www.w3.org/2000/svg">
  <sodipodi:namedview
     id="namedview5561"
     pagecolor="#ffffff"
     bordercolor="#999999"
     borderopacity="1"
     inkscape:showpageshadow="0"
     inkscape:pageopacity="0"
     inkscape:pagecheckerboard="0"
     inkscape:deskcolor="#d1d1d1"
     inkscape:document-units="px"
     showgrid="false"
     inkscape:lockguides="false"
     inkscape:zoom="12.414927"
     inkscape:cx="21.304998"
     inkscape:cy="26.13789"
     inkscape:window-width="1918"
     inkscape:window-height="1036"
     inkscape:window-x="0"
     inkscape:window-y="18"
     inkscape:window-maximized="1"
     inkscape:current-layer="layer1" />
  <defs
     id="defs5556" />
  <g
     inkscape:label="Layer 1"
     inkscape:groupmode="layer"
     id="layer1">
    <g
       id="g7009">
      <path
         style="fill:#ff2a2a;stroke:#000000;stroke-width:0.264583"
         d="m 3.3844738,2.9742655 c -0.078199,-0.011202 -0.261293,0.022394 -0.3108137,-0.01351 -0.00619,-0.00448 0.0054,-0.017523 0,-0.022926 -0.009,-0.009 -0.027113,-0.00828 -0.032693,-0.019714 -0.007,-0.014346 -0.00502,-0.2801641 0,-0.2912383 0.013525,-0.029813 0.017486,-0.026326 0.017486,-0.060465 0,-0.084325 0.086713,-0.1231334 0.1273226,-0.1840484 0.02155,-0.032325 0.021074,-0.052922 0.042623,-0.085247 0.027323,-0.040984 0.079236,-0.065574 0.1065586,-0.1065585 0.00881,-0.013216 0.010081,-0.031391 0.021312,-0.042623 0.00502,-0.00502 0.014949,0.00316 0.021312,0 0.01788,-0.00888 0.024516,-0.03338 0.042352,-0.042352 0.056747,-0.028544 0.089848,-0.031847 0.1439632,-0.059594 0.031256,-0.016026 0.08625,0.015323 0.1179417,0 0.1242177,-0.060059 0.4619662,-0.022483 0.6059308,0.00161 0.019002,0.00318 0.1567865,0.010155 0.1702218,0.021312 0.00448,0.00372 -0.00412,0.013356 0,0.017473 0.036346,0.036313 -0.0022,-0.040938 0.037202,0 0.010933,0.011361 0.0099,0.031209 0.021048,0.042357 0.022466,0.022463 0.062782,0.020159 0.085247,0.042624 0.042698,0.042698 0.1984685,0.2217242 0.2111402,0.2748084 C 4.846055,2.5862076 4.801735,2.7545032 4.770004,2.881426 4.758497,2.927457 4.717748,2.941505 4.706328,2.9874662 4.64272,3.2434604 4.5116772,3.4747297 4.4092401,3.7308226 c -0.020944,0.052358 -0.067857,0.097281 -0.08498,0.14865 -0.00449,0.013478 0.00449,0.029145 0,0.042623 -0.00318,0.00953 -0.018135,0.011782 -0.021312,0.021312 -0.00449,0.013478 0.00279,0.028691 0,0.042623 -0.016031,0.080154 -0.065624,0.1559364 -0.085247,0.2344287 -0.00344,0.013785 0.00449,0.029145 0,0.042624 -0.00318,0.00953 -0.018135,0.011782 -0.021312,0.021312 -0.00639,0.01918 0.00639,0.044754 0,0.063935 -0.035356,0.106068 -0.058566,0.2129528 -0.085247,0.3196756 -0.027082,0.10833 0.00582,0.2324688 -0.021312,0.3409874 -0.024609,0.098433 -0.049369,0.1963983 -0.063935,0.298364 -0.00962,0.067302 -0.013666,0.7160413 0,0.7707005 0.00243,0.00975 0.018135,0.011782 0.021312,0.021312 0.015076,0.045229 0.02073,0.1048512 0.042623,0.1489141 0.019434,0.039113 0.1721249,0.1264486 0.2090221,0.1633458 0.018111,0.018111 0.024511,0.045824 0.042624,0.063935 0.059975,0.059975 0.1279136,0.1002636 0.1704936,0.1694844 0.00475,0.00773 0.019394,-0.0046 0.027209,0 0.1189358,0.069985 0.2515024,0.083657 0.3833456,0.1276048 0.093755,0.031252 0.4971864,0.093715 0.5908405,0.063935 0.038966,-0.01239 0.00933,-0.034738 0.019598,-0.055979 0.010758,-0.022257 0.2517499,-0.2365989 0.2756773,-0.2557407 0.068069,-0.054455 0.021937,0.020479 0.085247,-0.063935 0.00953,-0.012708 0.010078,-0.031391 0.021312,-0.042624 0.037922,-0.037922 0.092502,-0.0594 0.1278703,-0.1065586 0.00953,-0.012708 0.010078,-0.031391 0.021312,-0.042623 0.032697,-0.032696 0.094269,-0.051645 0.1278703,-0.085247 0.025117,-0.025117 0.038819,-0.060131 0.063935,-0.085247 0.011232,-0.011232 0.029406,-0.012502 0.042623,-0.021312 0.049262,-0.032841 0.080404,-0.09227 0.1278702,-0.1278702 0.012708,-0.00953 0.031391,-0.010078 0.042624,-0.021312 0.1107734,-0.1107734 -0.020206,-0.022196 0.085247,-0.1065585 0.052427,-0.041942 0.067966,-0.033791 0.1065586,-0.085248 0.033243,-0.044324 0.00538,-0.035999 0.042623,-0.063935 0.054397,-0.040798 0.1173938,-0.066734 0.1704938,-0.1065586 0.055911,-0.041933 0.032054,-0.055445 0.1065585,-0.085247 0.013192,-0.00528 0.029432,0.00528 0.042623,0 0.058795,-0.023519 0.1089322,-0.091168 0.1704938,-0.1065585 0.1245556,-0.031139 -0.079685,0.06764 0.1278703,-0.021312 0.023543,-0.010089 0.039952,-0.03363 0.063935,-0.042623 0.1522807,-0.057105 0.3154146,-0.011935 0.4688578,-0.042624 0.1456463,-0.029129 0.281055,-0.024196 0.4262342,0 0.035036,0.00584 0.071729,-0.00697 0.1065586,0 0.032236,0.00645 0.2088428,0.085237 0.2344288,0.1065586 0.023154,0.019296 0.039244,0.046651 0.063935,0.063935 0.04692,0.032844 0.1015278,0.053477 0.1491822,0.085247 0.049263,0.032842 0.072234,0.084965 0.1065585,0.1278702 0.061598,0.076997 0.1878291,0.2185239 0.2131171,0.3196762 0.00344,0.013785 -0.00449,0.029145 0,0.042624 0.00318,0.00953 0.01682,0.012327 0.021312,0.021312 0.029307,0.058614 0.030272,0.1357 0.063935,0.1918054 0.010337,0.01723 0.030568,0.026549 0.042623,0.042623 0.05236,0.069814 0.1102915,0.2744058 0.1278702,0.362299 0.065528,0.3276428 0.082857,0.9248455 -0.021312,1.2360794 -0.00965,0.028822 -0.012226,0.1884772 -0.021312,0.2339096 -0.00889,0.044445 -0.052176,0.081777 -0.062933,0.1258647 -0.011046,0.04527 0.014729,0.1041903 0,0.1483794 -0.00314,0.00941 -0.017928,0.011623 -0.021042,0.021042 -0.01492,0.045143 4.498e-4,0.1444146 -0.021042,0.1873946 -0.038584,0.07716 -0.091409,0.187511 -0.1062869,0.276779 -0.015385,0.092316 -0.034696,0.2192626 -0.079058,0.3032054 -0.019259,0.03644 -0.039802,0.00821 -0.06266,0.042358 -0.00884,0.0132 -0.010112,0.031357 -0.021312,0.042623 -0.00495,0.00498 -0.014539,-0.00259 -0.021056,0 -0.029396,0.011745 -0.058645,0.024821 -0.084992,0.042367 -0.024725,0.016465 -0.034792,0.053747 -0.063014,0.063015 -0.013208,0.00434 -0.031982,-0.00994 -0.041704,0 -0.00994,0.010155 0.00998,0.032515 0,0.042623 -0.013843,0.014015 -0.10653,-0.00347 -0.1273461,0 -0.3362018,0.056034 -0.6846168,-0.016282 -1.0229622,0.021312 -0.036001,0.004 -0.070557,0.01731 -0.1065586,0.02131 -0.1679662,0.01866 -0.344289,-0.02388 -0.5114808,0 -0.028996,0.0041 -0.05605,0.01898 -0.085247,0.02131 -0.060293,0.0048 -0.1215099,-0.0081 -0.1814566,0 -0.055473,0.0075 -0.1061794,0.03735 -0.1614651,0.04609 -0.042896,0.0068 -0.086986,-0.0034 -0.1302845,0 -0.1355749,0.01051 -0.3098023,0.04932 -0.4478296,0.02172 -0.015576,-0.0031 -0.026955,-0.0187 -0.042623,-0.02131 -0.028029,-0.0047 -0.057005,0.0031 -0.085247,0 -0.089615,-0.01 -0.171813,-0.04715 -0.2557404,-0.06394 -0.020897,-0.0042 -0.043522,0.0061 -0.063935,0 -0.1797458,-0.053924 -0.097959,-0.069581 -0.2557405,-0.085247 -0.035854,-0.00356 -0.072578,0.00608 -0.108092,0 -0.084594,-0.014486 -0.1634369,-0.055619 -0.2483991,-0.067757 -0.021098,-0.00301 -0.043037,0.00418 -0.063935,0 -0.2057606,-0.041152 0.1747417,-0.00243 -0.1065586,-0.042623 -0.02813,-0.00402 -0.05768,0.00689 -0.085247,0 -0.030821,-0.0077 -0.054699,-0.033896 -0.085247,-0.042624 -0.1804932,-0.051562 0.093503,0.091838 -0.1704946,-0.021305 -0.018468,-0.00791 -0.025395,-0.032286 -0.042623,-0.042623 C 4.1504761,8.9952155 4.5098184,9.2449194 4.266212,9.0987556 4.1335505,9.0191587 4.0877439,8.8813298 4.0093619,8.7557964 3.9286092,8.6264659 3.8286282,8.5034932 3.7530608,8.3712504 3.7307697,8.3322411 3.7305289,8.2835659 3.7104375,8.2433802 3.6647173,8.1519397 3.6237039,8.0282809 3.5612554,7.9450162 3.4914332,7.8519199 3.4163722,7.7348257 3.3694502,7.6253406 3.3242901,7.5199668 3.2645241,7.2925162 3.2415797,7.1777947 c -0.012599,-0.062993 0,-0.1487461 0,-0.2131171 0,-0.2749034 -0.00143,-0.5484104 0.063935,-0.8098452 0.025088,-0.1003474 -0.020312,-0.218114 0,-0.3196756 0.01406,-0.070296 0.049354,-0.1043194 0.063935,-0.1918055 0.00584,-0.035036 -0.00502,-0.071396 0,-0.1065585 0.00318,-0.022238 0.017619,-0.041776 0.021312,-0.063935 0.00701,-0.042044 -0.00701,-0.085827 0,-0.1278702 0.019944,-0.1196623 0.057046,-0.2849224 0.1062995,-0.382818 0.01606,-0.031921 0.00902,-0.1453843 0.021312,-0.1811795 0.022879,-0.066605 0.083804,-0.1443215 0.1065586,-0.2125845 0.00671,-0.020132 -0.00959,-0.044731 0,-0.063662 0.018256,-0.036042 0.09209,-0.1110369 0.1018288,-0.1397143 0.00454,-0.013369 -0.00443,-0.028952 0,-0.042357 0.012414,-0.03756 0.052491,-0.062391 0.063397,-0.1060143 0.027366,-0.1094642 0.059938,-0.154119 0.09511,-0.2372918 0.018897,-0.044687 -4.97e-5,-0.1224299 0.021312,-0.1651527 0.023259,-0.04652 0.041648,-0.1012814 0.057766,-0.1558843 0.015944,-0.054014 -0.020913,-0.1269698 0,-0.1789205 0.015444,-0.03837 0.073329,-0.042523 0.1061358,-0.061656 0.019775,-0.011533 0,-0.045784 0,-0.068677 0,-0.050828 0.030968,-0.1443897 0.021312,-0.1893972 -0.00582,-0.027118 -0.00839,-0.05589 -0.021312,-0.08043 -0.00981,-0.018621 -0.045671,-0.011742 -0.063137,0 -0.026207,0.017619 -0.031132,0.07772 -0.096428,0.028654 -0.027792,-0.020884 -0.045064,-0.067594 -0.07782,-0.083971 -0.030352,-0.015177 -0.073872,-0.020971 -0.1060092,-0.04235 -0.067253,-0.044738 -0.1255395,-0.087729 -0.189036,-0.1256302 -0.014981,-0.00894 -0.024355,0.025183 -0.034371,0.039467 -0.023646,0.033717 -0.1046929,0.070319 -0.1192059,0.078849 z"
         id="path5626" />
      <path
         style="fill:#000000;stroke:#000000;stroke-width:0.264583"
         d="m 2.9886746,2.9757566 c 0,0.037571 -0.4389589,0.050713 -0.4955389,0.050713 -0.2262923,0 -0.6387008,0.0299 -0.8086888,-0.055094 -0.026439,-0.013219 -0.07271,0.013221 -0.099148,0 -0.00826,-0.00413 -0.011431,-0.01528 -0.019601,-0.0196 -0.017741,-0.00937 -0.061564,0.012552 -0.076666,0 -0.0042,-0.00349 0.00422,-0.012915 0,-0.016375 -0.016264,-0.013359 -0.061004,0.00773 -0.081858,0 -0.059919,-0.022212 -0.1195099,-0.050294 -0.1752909,-0.078819 -0.011223,-0.00574 -0.026489,0.00553 -0.037818,0 -0.059196,-0.028883 -0.1251161,-0.047432 -0.1781851,-0.082703 -0.021378,-0.014208 -0.081849,0.017211 -0.10020953,0 -0.0048,-0.0045 0.00436,-0.014807 0,-0.019727 -0.010568,-0.011917 -0.3111866,0.00629 -0.3149266,0 -0.036403,-0.061213 0.3123403,-0.037956 0.3565913,-0.037956 0.087559,0 0.15403893,-0.00109 0.23442893,-0.021312 0.093387,-0.023492 0.2043659,0.023222 0.2978319,0 0.015226,-0.00378 0.028065,-0.014028 0.042097,-0.021048 0.0071,-0.0071 0.011562,-0.018882 0.021312,-0.021312 0.034458,-0.00861 0.072862,0.011232 0.1065585,0 0.00953,-0.00318 0.011782,-0.018132 0.021312,-0.021312 0.059895,-0.019962 0.1862145,-0.00393 0.2557405,-0.021312 0.085454,-0.021363 0.1655129,-0.045762 0.2541069,-0.063661 0.07395,-0.014941 0.1592211,0.018267 0.2322981,0 C 2.5836693,2.5060906 2.7753843,2.5282796 2.9389233,2.5041606 2.8661943,2.3096819 3.155131,2.4411176 3.155131,2.363654"
         id="path5695" />
      <path
         style="fill:#000000;stroke:#000000;stroke-width:0.264583"
         d="M 3.9090379,2.4384265 C 4.2194611,2.2999353 3.6670743,2.3020174 3.6439995,2.3205903 c -0.00564,0.00454 -0.00132,0.1085003 0,0.1098267 0.010935,0.010935 0.1141521,0.071103 0.134629,0.081861 0.044225,0.023233 0.089041,-0.045847 0.1304094,-0.073851 z"
         id="path5697" />
      <path
         style="fill:#000000;stroke:#000000;stroke-width:0.264583"
         d="m 6.5695626,9.6890152 c -0.020926,0.06399 -0.067483,0.101815 -0.092471,0.153827 -0.00595,0.01239 0.00606,0.02889 0,0.04122 -0.014668,0.02986 -0.049289,0.06836 -0.059471,0.09991 -0.010337,0.03203 -0.00665,0.07686 -0.021312,0.1065588 -0.00311,0.0063 -0.018833,-0.0067 -0.021042,0 -0.011134,0.03354 0.011176,0.0725 0,0.106024 -0.015052,0.04515 -0.051289,0.09822 -0.063935,0.148651 -0.011689,0.04661 -0.00966,0.102559 -0.021312,0.149182 -0.00878,0.03511 -0.032831,0.05602 -0.042358,0.08472 -0.00699,0.02105 -0.040885,0.205542 -0.042086,0.207672 -0.00482,0.0085 -0.018164,0.01101 -0.021312,0.0203 -0.00684,0.02018 0.00948,0.04485 0,0.06393 -0.046161,0.09291 -0.056345,0.219103 -0.1057601,0.316191 -0.00587,0.01153 0.00976,0.06143 0,0.0692 -0.00514,0.0041 -0.015224,-0.0048 -0.019714,0 -0.012364,0.01321 0.00928,0.05648 0,0.0727 -0.02187,0.03821 -0.024381,0.05457 -0.042592,0.09031 -0.0029,0.0057 0.00456,0.02713 0,0.0314 -0.024003,0.02249 -0.211034,-0.01996 -0.2512036,0 -0.039417,0.01958 -0.075734,0.03366 -0.1265396,0.04209 -0.027286,0.0045 -0.2472476,-0.0077 -0.2549287,0 -0.038538,0.03854 0.084524,-2.59e-4 0.1377574,-2.59e-4 0.1504162,0 0.2815249,0.01994 0.4319757,0.01994 0.00958,0 0.068623,-0.0075 0.076117,0 0.023521,0.02347 -0.064749,0.09145 -0.078159,0.104859 -0.02895,0.02895 -0.069201,0.03885 -0.1060238,0.0634 -0.03487,0.02325 -0.061216,0.09386 -0.080434,0.104284 -0.01271,0.0069 -0.030825,0.0044 -0.040239,0.01416 -0.011536,0.01196 -0.027522,0.0656 -0.038822,0.07763 -0.00951,0.01013 -0.030632,0.0099 -0.040797,0.01973 -0.010229,0.0099 -0.016917,0.02629 -0.014158,0.04024 0.00241,0.0122 0.1158076,-0.07753 0.1243933,-0.08182 0.016417,-0.0082 0.045898,0.0086 0.062066,0 0.023924,-0.01277 0.037434,-0.02977 0.06208,-0.0421 0.01842,-0.0092 0.04231,0.0067 0.06179,0 0.021122,-0.0073 0.040791,-0.03133 0.061185,-0.04125 0.020812,-0.01012 0.052189,-5.3e-4 0.071026,-0.01712 0.011258,-0.0099 0.035821,-2.91e-4 0.042923,-0.01351 0.00309,-0.0057 -0.0047,-0.01504 0,-0.01957 0.00775,-0.0075 0.033466,0.0069 0.04164,0 0.032302,-0.02724 0.044468,-0.04008 0.073796,-0.05654"
         id="path5699" />
      <path
         style="fill:#000000;stroke:#000000;stroke-width:0.264583"
         d="m 8.1933137,9.5477712 c 0.00448,0.0356 0.015338,0.07097 0.013454,0.106803 -0.00302,0.0575 -0.024487,0.02766 -0.042623,0.06394 -0.016843,0.03369 -0.00926,0.28086 -0.021312,0.3170058 -0.010787,0.03236 -0.033067,0.0678 -0.042623,0.106028 -0.011168,0.04467 0.00504,0.103861 0,0.149182 -0.0071,0.04262 -0.014208,0.08525 -0.021312,0.12787 -0.0071,0.02131 -0.017619,0.04178 -0.021312,0.06394 -0.00818,0.04905 0.00703,0.09995 0,0.149182 -0.00787,0.05512 -0.031717,0.115963 -0.042624,0.170494 0.00489,0.0428 -0.033345,0.06944 -0.042623,0.106559 -0.00344,0.01378 0.00449,0.02914 0,0.04262 -0.00318,0.0095 -0.018135,0.01178 -0.021312,0.02131 -0.023352,0.07006 -0.032182,0.149613 -0.063675,0.212597 -0.00778,0.01555 0.00594,0.04178 0,0.05825 -0.015841,0.04393 -0.042623,0.09891 -0.042623,0.145783 0,0.0312 0.010634,0.04555 -0.020304,0.05956 -0.04906,0.02221 -0.1138142,0.01977 -0.1651476,0.04031 -0.00933,0.0037 -0.011565,0.01888 -0.021312,0.02131 -0.1348976,0.03373 -0.2967027,0.0037 -0.4164563,0.06394 -0.010814,0.0054 -0.026345,-0.0069 -0.036316,0 -0.01597,0.011 0.041897,0.01051 0.044852,0.01051 0.030507,0 0.05349,0.02927 0.079143,0.0421 0.0087,0.0043 0.047397,-0.0073 0.053807,0 0.00383,0.0044 -0.00539,0.01526 0,0.01749 0.061257,0.02529 0.2232094,-0.0059 0.2707267,0.01931 0.0705,0.03747 -0.088644,0.005 0.081744,0.03912 0.024244,0.0048 0.087999,0.0031 0.1051825,0.02131 0.00949,0.01008 -0.053272,0.174749 -0.064911,0.185543 -0.00487,0.0045 -0.014023,-0.003 -0.019936,0 -0.031929,0.0164 -0.081863,0.08325 -0.081863,0.101322 0,0.01313 -0.00543,-0.02743 0,-0.03938 0.035683,-0.07858 -0.00225,0.0195 0.038807,-0.02104 0.011594,-0.01145 0.026923,-0.06795 0.042084,-0.08311 0.00721,-0.0072 0.048006,-0.01493 0.059351,-0.02092 0.017137,-0.0091 0.023172,-0.03466 0.041617,-0.04061 0.047908,-0.01546 0.062692,0.0014 0.1060278,-0.02105 0.089029,-0.04611 0.1674784,-0.04003 0.2390479,-0.15204 0.061222,-0.09581 0.03617,-0.670786 0.03617,-0.827102"
         id="path5701" />
      <path
         style="fill:#800000;stroke:#000000;stroke-width:0.264583"
         d="m 8.5427288,5.2246883 c 0.03156,-0.088007 0.028137,-0.1631334 0.042623,-0.250053 0.014256,-0.085529 0.092301,-0.1488871 0.1065586,-0.234429 0.023551,-0.1413111 0.061511,-0.2838212 0.085247,-0.4262343 0.00739,-0.044318 0.036269,-0.083393 0.042623,-0.1278702 0.00402,-0.02813 -0.00467,-0.057218 0,-0.085247 0.00262,-0.015669 0.014208,-0.028416 0.021312,-0.042624 0.0071,-0.028415 0.017679,-0.056183 0.021312,-0.085247 0.00352,-0.028196 -0.00781,-0.057924 0,-0.085247 0.00704,-0.024627 0.031169,-0.041026 0.042623,-0.063935 0.058361,-0.1167225 0.097951,-0.2427594 0.1491819,-0.362299 0.022926,-0.053497 0.084563,-0.1756505 0.1491821,-0.1918054 0.034459,-0.00861 0.0721,0.00861 0.1065586,0 0.02394,-0.00598 0.012959,-0.035702 0.042623,-0.021312 0.037324,0.018105 0.020079,0.088599 0.020079,0.1203296 0,0.2486366 0,0.4972733 0,0.7459099 0,0.071039 0,0.1420781 0,0.2131171 0,0.0071 -0.00705,0.020447 0,0.021312 0.034474,0.00423 0.1361881,-0.3075141 0.1473011,-0.3381015 0.121937,-0.3356401 0.319479,-0.6440848 0.5051979,-0.945542 0.05381,-0.087345 0.15668,-0.2678624 0.234164,-0.3194098 0.03694,-0.024577 0.274832,-0.071523 0.314483,-0.042623 0.01605,0.011703 0,0.1360736 0,0.159376 0,0.1303689 0.0045,-0.074074 -0.02131,0.1065585 -0.005,0.035163 0.0086,0.072099 0,0.1065586 -0.01089,0.043588 -0.03627,0.083393 -0.04262,0.1278702 -0.006,0.042195 0.01034,0.08652 0,0.1278702 -0.0437,0.1748155 -3.18e-4,-0.1682303 -0.04262,0.1278705 -0.03108,0.2175256 0.04788,-0.1275749 -0.02131,0.1491819 -7.93e-4,0.00314 -0.10956,0.3569576 -0.08525,0.2443387 0.02839,-0.1315198 0.06846,-0.221639 0.127871,-0.3404534 0.04286,-0.085728 0.07338,-0.2166331 0.12787,-0.298364 0.0611,-0.091648 0.148296,-0.1698297 0.234429,-0.2344288 0.06216,-0.046622 0.101134,-0.1224465 0.149182,-0.1704938 0.02246,-0.022463 0.05983,-0.023561 0.08525,-0.042623 0.03215,-0.024112 0.05181,-0.062956 0.08525,-0.085247 0.02644,-0.017624 0.05881,-0.025 0.08525,-0.042623 0.12627,-0.08418 0.159786,-0.1065586 0.319676,-0.1065586 0.02131,0 0.04817,-0.014338 0.06394,0 0.02814,0.025593 -0.0169,0.1872023 -0.02131,0.209246 -0.0462,0.2309776 -0.08522,0.703239 -0.213117,0.8950918 -0.04257,0.063851 -0.0258,0.1032071 -0.04262,0.1704938 -0.0077,0.030821 -0.03082,0.05575 -0.04262,0.085247 -0.01832,0.04579 -0.01003,0.1160566 -0.04262,0.1486609 -0.0054,0.00536 0.01072,-0.010716 0.01608,-0.016073 0.06145,-0.061447 0.143643,-0.1043712 0.232241,-0.1043712 0.03064,0 0.08,-0.038818 0.109969,-0.021312 0.08235,0.048103 0.05708,0.3000264 0.05708,0.3950184 0,0.070883 -0.01155,0.1235027 -0.02131,0.1918055 -0.004,0.02813 0.0056,0.057383 0,0.085247 -0.0049,0.024574 -0.05574,0.039669 -0.06367,0.063663 -0.01174,0.035525 -0.0075,0.072022 -0.02131,0.1065586 -0.02613,0.065333 -0.09013,0.1138827 -0.12787,0.1704938 -0.04483,0.06724 -0.05963,0.1428602 -0.106298,0.2128567 -0.03015,0.045224 -0.05365,0.053846 -0.08525,0.085247 -0.0054,0.00541 -0.07609,0.1310204 -0.08472,0.1483874 -0.05224,0.1051502 -0.14719,0.1997136 -0.212451,0.297303 -0.01805,0.026986 -0.02443,0.063669 -0.06267,0.063669 -0.01491,0 0.03061,0.00479 0.04474,0 0.06311,-0.021397 0.129866,-0.021802 0.191543,-0.042362 0.0095,-0.00318 0.01179,-0.018111 0.02131,-0.021312 0.05398,-0.018145 0.13602,0.010864 0.190208,0 0.0099,-0.00198 0.01233,-0.01682 0.02131,-0.021312 0.04463,-0.022315 0.127093,0.011732 0.165415,0.021312 0.02796,0.00699 0.09904,-0.01723 0.122678,0 0.01657,0.012078 0.04617,0.065959 0.05585,0.075619 0.01397,0.013938 0,0.1209257 0,0.1425435 0,0.024289 0.01358,0.097731 0,0.1202791 -0.0139,0.023077 -0.05001,0.03516 -0.06236,0.059853 -0.01005,0.020092 -0.0078,0.045964 -0.02131,0.063935 -0.02933,0.039101 -0.309253,0.1599776 -0.362299,0.1918054 -0.01723,0.010337 -0.02465,0.033638 -0.04262,0.042623 -0.01271,0.00635 -0.02869,-0.00279 -0.04262,0 -0.02212,0.00442 -0.17342,0.071056 -0.188275,0.084979 -0.02606,0.024424 0.02519,0.019727 -0.01409,0.019727 -0.0069,0 0.01379,0 0.02068,0 0.02144,0 0.04288,0 0.06432,0 0.07235,0 0.11352,0.035385 0.169297,0.063273 0.01229,0.00615 0.03082,-0.00897 0.04123,0 0.0044,0.0038 -0.0044,0.013621 0,0.017494 0.0049,0.00436 0.01506,-0.00464 0.0197,0 0.01745,0.017454 0.0023,0.038335 0.0175,0.061049 0.01109,0.016603 0.03345,0.024487 0.04236,0.042358 0.01722,0.034552 -0.01231,0.090521 0,0.1276051 0.01904,0.057369 0.0427,0.1622825 0.02104,0.2253613 -0.0033,0.0095 -0.01813,0.011782 -0.02131,0.021312 -0.01701,0.051036 0.0028,0.065712 -0.02131,0.1251177 -0.03032,0.074813 -0.01005,0.013406 -0.06394,0.085247 -0.129232,0.1723097 -0.289805,0.1631156 -0.489386,0.2128557 -0.09343,0.023286 -0.204458,-0.02349 -0.297836,0 -0.122774,0.030885 -0.253137,0.042623 -0.38281,0.042623 -0.05546,0 -0.2758499,-0.021778 -0.3196749,0 -0.02943,0.014621 -0.04045,0.060122 -0.06015,0.079432 -0.02717,0.026636 -0.01892,-0.045055 -0.04104,0.021048 -0.0045,0.013473 0.0064,0.029916 0,0.042624 -0.0012,0.00241 -0.06003,0.017656 -0.06342,0.021045 -0.01246,0.012465 -0.0311,0.075125 -0.05806,0.075125"
         id="path5703" />
      <path
         style="fill:#ff2a2a;stroke:#000000;stroke-width:0.264583"
         d="m 4.2396335,6.2571972 c 0.063013,0.00316 0.2124982,0.056509 0.2774061,0.021312 0.017608,-0.00955 0.023638,-0.035975 0.042623,-0.042357 0.013298,-0.00447 0.028791,0.00447 0.04209,0 0.033669,-0.011316 0.052268,-0.050744 0.085247,-0.063935 0.013192,-0.00528 0.029916,0.00636 0.042623,0 0.01797,-0.00899 0.024651,-0.033638 0.042624,-0.042623 0.08766,-0.04383 0.1899743,-0.054312 0.2770521,-0.1065586 0.1087263,-0.065236 0.028009,-0.024008 0.1491821,-0.1278702 0.084764,-0.072655 0.1900053,-0.1221687 0.2770521,-0.1918063 0.062375,-0.0499 0.1091171,-0.1193464 0.1704938,-0.1704935 0.1028584,-0.085716 0.2092397,-0.1943857 0.298364,-0.298364 0.023117,-0.026968 0.038819,-0.060131 0.063935,-0.085247 0.077609,-0.077609 0.1417159,-0.1213152 0.2131171,-0.2131171 0.019505,-0.025077 0.024159,-0.059395 0.042624,-0.085247 0.017518,-0.024524 0.044321,-0.041052 0.063935,-0.063935 C 6.3751264,4.7457617 6.3954387,4.6847197 6.4345602,4.6377736 6.5473847,4.5023848 6.6669755,4.3683061 6.7770721,4.2306966 6.8656046,4.1200401 6.9210745,3.971547 7.0132323,3.8662621 c 0.023394,-0.026727 0.06172,-0.037325 0.085247,-0.063935 0.035042,-0.039634 0.055044,-0.0907 0.088037,-0.1320548 C 7.3887184,3.4168239 7.176118,3.7019815 7.3360989,3.5420007 7.498829,3.3792705 7.590546,3.1708863 7.7213018,2.9856491 7.919757,2.7045042 7.7794046,2.9329751 7.913107,2.772532 c 0.085198,-0.1022379 0.00122,-0.030487 0.085247,-0.1704935 0.023532,-0.039209 0.060293,-0.069109 0.08565,-0.1071634 0.017695,-0.026555 0.023675,-0.060088 0.042811,-0.085623 0.024101,-0.032157 0.059521,-0.054375 0.085247,-0.085247 0.080736,-0.096883 0.1336415,-0.2203313 0.2131171,-0.3196756 0.012552,-0.01569 0.033638,-0.024652 0.042624,-0.042624 0.0131,-0.026198 0.00821,-0.059049 0.021312,-0.085247 0.020344,-0.040685 0.062679,-0.067065 0.085247,-0.1065586 0.068676,-0.1201827 0.1378337,-0.223906 0.2144374,-0.3430679 0.022532,-0.035052 0.042898,-0.07145 0.064348,-0.1071751 0.028582,-0.035687 0.05951,-0.069615 0.085748,-0.1070594 0.032866,-0.046905 0.044748,-0.1086835 0.085247,-0.149182 0.023913,-0.023912 0.017169,0.071069 0.00228,0.1014238 -0.00886,0.018036 -0.031478,0.025905 -0.042623,0.042623 -0.052677,0.079015 -0.058822,0.1674664 -0.085247,0.2557406 -0.039967,0.1335107 -0.101142,0.2562335 -0.1495788,0.385398 -0.036149,0.096398 -0.04242,0.2015469 -0.063935,0.298364 -0.00975,0.043859 -0.033812,0.083814 -0.042624,0.1278702 -0.00557,0.027864 0.00899,0.05829 0,0.085247 -0.00636,0.019061 -0.035161,0.023969 -0.042623,0.042623 -0.00792,0.019788 0.00301,0.042838 0,0.063935 -0.00731,0.051197 -0.03531,0.097984 -0.042624,0.1491819 -0.00402,0.02813 0.00352,0.057051 0,0.085247 -0.015325,0.1225986 -0.070049,0.2407203 -0.085247,0.362299 -0.018497,0.1479772 0.029152,0.023593 -0.021312,0.1918054 -0.010993,0.036642 -0.031631,0.069916 -0.042623,0.1065586 C 8.3664076,3.5003258 8.3510816,3.651415 8.301427,3.7879662 8.282938,3.8388112 8.2546,3.8858232 8.237492,3.9371481 8.216394,4.0004401 8.229492,4.083695 8.21618,4.1502652 8.198593,4.2382072 8.152371,4.3202558 8.130933,4.4060059 c -0.00517,0.020675 0.0035,0.042913 0,0.063935 C 8.109025,4.6013891 8.099539,4.7446977 8.066998,4.8748635 8.052763,4.9318055 8.038548,4.9886634 8.024375,5.0453573 8.016675,5.0761783 7.989457,5.0997833 7.981751,5.1306043 7.966749,5.1906073 7.967641,5.2510035 7.918082,5.3005652"
         id="path5908" />
      <path
         style="fill:#ff2a2a;stroke:#000000;stroke-width:0.264583"
         d="m 4.5728918,6.3506727 c 0.026833,0.00719 0.067409,0.1632754 0.092898,0.1887643 0.015825,0.015825 0.045047,0.0089 0.063669,0.021312 0.048961,0.032641 -0.00914,0.012174 0.042623,0.063935 0.011232,0.011232 0.029916,0.011782 0.042624,0.021312 0.036412,0.027309 0.064658,0.084993 0.105328,0.105328 2.91e-4,1.485e-4 0.040236,-1.5e-4 0.040386,0 0.046324,0.046324 -0.010742,0.044259 0.063935,0.062928 0.033028,0.00826 0.072634,-0.00673 0.1060252,0 0.1463056,0.029482 0.296055,0.021312 0.447018,0.021312 0.076432,0 0.2237833,0.02486 0.2983638,0 C 6.065935,6.772173 5.8210738,6.808326 6.003632,6.771629 c 0.013753,-0.00276 0.030073,0.00724 0.042086,0 C 6.071528,6.756066 6.086118,6.726522 6.109653,6.707694 6.13446,6.687848 6.169484,6.684133 6.1949,6.665071 6.250378,6.623463 6.291343,6.5610935 6.3440818,6.5158892 6.3866258,6.4794232 6.4925861,6.4100082 6.5358873,6.366707 6.5583533,6.344241 6.5560463,6.303925 6.5785103,6.28146 6.5897423,6.270228 6.6084263,6.269678 6.6211343,6.260148 6.7687808,6.1494133 6.8948561,5.9864263 7.0260569,5.8552255 7.0696249,5.8116575 7.4083176,5.425373 7.4091341,5.408481 c 5.292e-4,-0.010856 -0.021738,0 -0.032606,0"
         id="path5910" />
      <path
         style="fill:#ff2a2a;stroke:#000000;stroke-width:0.264583"
         d="m 5.3297774,5.8454757 c 0.1270236,0.012348 0.2591335,-0.015825 0.3857234,0 0.057654,0.00721 0.1155652,0.031638 0.1704938,0.042623 0.1192448,0 0.015489,-0.00953 0.1065585,0.021312 0.013951,0.00473 0.043123,-0.01469 0.044188,0 0.00146,0.020206 -0.2380173,0.051052 -0.261728,0.051052"
         id="path5912" />
      <path
         style="fill:#ff2a2a;stroke:#000000;stroke-width:0.264583"
         d="m 5.1013113,6.0233942 c 0.1620507,0.00676 0.3193555,-0.019987 0.4778148,-0.042624 0.069618,-0.00995 0.1434988,0.00995 0.2131171,0 0.093625,-0.013375 0.1825262,-0.048181 0.2770523,-0.063935 0.088831,-0.014806 0.1895454,-0.00381 0.2770521,-0.021312 0.015576,-0.00311 0.027213,-0.01746 0.042624,-0.021312 0.020592,-0.00515 0.044693,0.00949 0.063679,0 0.00888,-0.00444 0.011631,-0.017939 0.021056,-0.021056 0.040385,-0.013354 0.2360052,0.017989 0.2539947,0 0.033602,-0.033599 -0.078831,-0.019566 0.042103,-0.019566"
         id="path5914" />
      <path
         style="fill:#ff2a2a;stroke:#000000;stroke-width:0.264583"
         d="m 5.841053,5.5982318 c 0.03552,-0.03552 0.073481,-0.068755 0.1065585,-0.1065586 0.1388989,-0.1587415 -0.023074,0.00957 0.063935,-0.1065585 0.1280086,-0.1708547 0.3811624,-0.148916 0.574607,-0.148916 0.042928,0 0.1491956,-0.019333 0.191284,0 0.00651,0.00299 -0.00609,0.012973 -0.00913,0.01946"
         id="path5916" />
      <path
         style="fill:#ff2a2a;stroke:#000000;stroke-width:0.264583"
         d="m 5.893141,5.7455555 c 0.2049692,-0.0415 0.4719106,0.094043 0.6775897,0.042624 0.015409,-0.00385 0.027047,-0.018195 0.042624,-0.021312 0.096472,-0.019293 0.1761852,0.0066 0.255211,-0.063935 0.017444,-0.015571 -0.046764,0 -0.070146,0 -0.056831,0 -0.1136624,0 -0.1704936,0"
         id="path5918" />
      <path
         style="fill:#ff2a2a;stroke:#000000;stroke-width:0.264583"
         d="m 6.9402674,3.9297526 c 0.030373,0 0.060966,-0.00364 0.09112,0 0.1143886,0.013822 0.2248016,0.052317 0.3409876,0.063935 0.063269,0.00633 0.2143977,0 0.2467573,0"
         id="path5920" />
      <path
         style="fill:#ff2a2a;stroke:#000000;stroke-width:0.264583"
         d="m 6.7452099,4.2403501 c 0.1220359,0.09498 0.3022238,0.1624987 0.4611365,0.1624987 0.041025,0 0.039691,0.010427 0.083229,0.021312 0.013785,0.00344 0.056831,0 0.042624,0 -0.077978,0 -0.045347,-0.013983 -0.098885,0.039554"
         id="path5922" />
      <path
         style="fill:#ff2a2a;stroke:#000000;stroke-width:0.264583"
         d="m 6.5837371,4.7492474 c 0.1525265,-0.023828 0.2869425,0.063935 0.4356023,0.063935"
         id="path5924" />
      <path
         style="fill:#ff2a2a;stroke:#000000;stroke-width:0.264583"
         d="m 7.5951601,3.2853083 c 0.2062255,0.019328 0.4123235,0.021312 0.6218926,0.021312 0.00627,0 -0.012528,0 -0.018793,0 -0.041771,0 -0.083542,0 -0.125313,0"
         id="path5926" />
      <path
         style="fill:#ff2a2a;stroke:#000000;stroke-width:0.264583"
         d="M 4.2104237,5.8075558 C 4.2488299,5.6863666 4.3833319,5.709601 4.4581111,5.6451361 4.485588,5.6214479 4.4963637,5.5822676 4.5233536,5.558027 4.6566081,5.4383462 4.8304028,5.3608709 4.9755159,5.2571455 5.0610586,5.1960003 5.1238101,5.1001261 5.1886331,5.0225294 5.2941129,4.8962636 5.4139496,4.7760973 5.5304073,4.6596396 5.6359657,4.5540812 5.737712,4.4382886 5.8500829,4.3399639 c 0.026731,-0.023389 0.063513,-0.035841 0.085247,-0.063935 0.029661,-0.038343 0.037173,-0.090379 0.064894,-0.1301472 0.022979,-0.032967 0.058797,-0.054993 0.085247,-0.085247 0.041621,-0.047607 0.1279054,-0.1793867 0.1543354,-0.2208482 0.1586349,-0.2488526 0.2834357,-0.5180799 0.423119,-0.7774403 0.060397,-0.1121429 0.406304,-0.6012326 0.406304,-0.7052599 0,-0.019399 0,0.0388 0,0.0582 0,0.1208882 -0.011853,0.2434567 -0.021312,0.3638151 -0.01157,0.1472099 -0.051718,0.2899696 -0.065111,0.4372941 -0.00689,0.075815 -0.00865,0.1371745 -0.021312,0.2131171 -0.00783,0.047006 0.011626,0.1024525 0,0.1486726 -0.024283,0.096554 -0.021312,0.00666 -0.021312,0.062559"
         id="path5928" />
      <path
         style="fill:#ff2a2a;stroke:#000000;stroke-width:0.264583"
         d="m 6.5124097,4.0544782 c -0.03427,0.1018347 -0.080931,0.202342 -0.1273382,0.295157 -0.025445,0.05089 -0.02897,0.1179135 -0.06367,0.1699623 -0.019579,0.029371 -0.074483,0.074401 -0.085247,0.1065585 -0.00448,0.013388 0.00524,0.029246 0,0.042357 -0.028322,0.070896 -0.074527,0.1278779 -0.1057612,0.1907458 -0.019315,0.038878 -0.04408,0.00321 -0.063399,0.042087 -0.032995,0.066406 -0.08074,0.1210742 -0.1257359,0.188273 -0.0039,0.00583 0.00497,0.016092 0,0.021032 -0.011181,0.011107 -0.033615,0.00791 -0.042344,0.021032 -0.00787,0.01183 0.00449,0.029145 0,0.042624 -0.00254,0.00762 -0.073587,0.1047615 -0.084716,0.1259639 -0.00159,0.00302 -0.046902,0 -0.050002,0"
         id="path5930" />
      <path
         style="fill:#ff2a2a;stroke:#000000;stroke-width:0.264583"
         d="m 4.7504018,5.2170455 c 0.077311,0.038968 0.1501561,0.052112 0.228336,0.071657 0.053488,0.013372 0.1170056,-0.013372 0.1704938,0 0.156196,0.039049 0.2944201,0.081057 0.45422,0.081057"
         id="path5932" />
      <path
         style="fill:#ff2a2a;stroke:#000000;stroke-width:0.264583"
         d="m 4.9870015,5.3728542 c 0.1369081,0.096702 0.3086775,0.1240139 0.46584,0.1633045 0.04891,0.012226 0.167776,-0.029066 0.2102085,0 0.00729,0.005 -0.032365,0.080133 -0.1008702,0.1143857 -0.017971,0.00899 -0.024665,0.033615 -0.042623,0.042624 -0.033945,0.017026 -0.069748,0.030303 -0.10576,0.042357 -0.040166,0.013446 -0.085142,-0.00601 -0.1270701,0 -0.015724,0.00225 -0.027047,0.018195 -0.042624,0.021312 -0.1461876,0.029238 0.019304,-0.037558 -0.1278702,0.021312 -0.064726,0.025889 -0.1293659,5.027e-4 -0.1918055,0.021312 -0.042624,0.014208 8e-7,0.028415 -0.042623,0.042623 -0.013478,0.00449 -0.029145,-0.00449 -0.042624,0 -0.00476,0.00159 -0.2043083,0.1774698 -0.2082027,0.1850064 -0.00305,0.0059 0.0047,0.015235 0,0.019934 -0.0047,0.0047 -0.01528,-0.00474 -0.019934,0 -0.013491,0.013745 -0.00664,0.042065 -0.035571,0.056882 -0.049556,0.025376 -0.093667,-0.00127 -0.1578242,0.020307 -0.012036,0.00405 -0.086401,0.045058 -0.1074497,0.021312 -0.00543,-0.00612 0.00401,-0.026761 0,-0.034271 -0.027294,-0.051175 -0.00369,0.00983 -0.037681,-0.016634 -0.00721,-0.00561 -0.033855,-0.3024026 -0.033855,-0.3369316"
         id="path5934" />
      <path
         style="fill:#ff2a2a;stroke:#000000;stroke-width:0.264583"
         d="m 5.5027596,4.7534749 c 0.2251946,0.00365 0.4434044,-0.021312 0.6685405,-0.021312"
         id="path5936" />
      <path
         style="fill:#ff2a2a;stroke:#000000;stroke-width:0.264583"
         d="m 6.1540948,4.9176851 c -0.074407,0.082155 -0.08877,0.087715 -0.1370719,0.1682186 -0.086393,0.1439881 0.087829,-0.1097862 -0.085247,0.1065586 -0.019846,0.024807 -0.02023,0.062712 -0.042624,0.085247 -0.00495,0.00498 -0.017907,-0.00627 -0.021042,0 -0.052524,0.1050507 0.065267,-0.023511 -0.021045,0.084446 -0.024799,0.031018 -0.066828,0.048553 -0.084243,0.084243 -0.00608,0.012459 -0.011351,0.053922 -0.019934,0.062558 -0.050661,0.050978 -0.2079147,0.064293 -0.2734464,0.042357 -0.03375,-0.011297 -0.052402,-0.047263 -0.084469,-0.063546 C 5.2903458,5.4397175 5.1942229,5.4028582 5.1942229,5.2774986"
         id="path5938" />
      <path
         style="fill:#ff2a2a;stroke:#000000;stroke-width:0.264583"
         d="m 5.8936977,4.8504415 c -0.1174086,0.016319 -0.2674411,-0.031491 -0.3699034,0.021045 -0.020915,0.010724 -0.057026,-0.00755 -0.079539,0 -0.029114,0.00977 -0.053604,0.030811 -0.082742,0.040505 -0.00666,0.00222 -0.017928,-0.00628 -0.02105,0 -0.00628,0.012647 0.00448,0.028972 0,0.042363 -0.00858,0.025628 -0.033153,0.056594 -0.042624,0.085247 -0.013986,0.042313 -0.054914,0.062524 -0.063667,0.1062906 -0.00418,0.020897 0.00517,0.04326 0,0.063935 -0.031358,0.1254326 -0.021312,-0.1217761 -0.021312,0.063935"
         id="path5940" />
      <path
         style="fill:#ff2a2a;stroke:#000000;stroke-width:0.264583"
         d="m 5.7971107,4.8424646 c 0.00432,0.042137 0.062116,0.4255254 0.059989,0.4293243 -0.00406,0.00726 -0.01664,0 -0.024958,0"
         id="path5942" />
    </g>
  </g>
</svg>
