<?xml version="1.0" encoding="UTF-8" standalone="no"?>
<!-- Created with Inkscape (http://www.inkscape.org/) -->

<svg
   width="48"
   height="48"
   viewBox="0 0 12.7 12.7"
   version="1.1"
   id="svg6627"
   inkscape:version="1.2.2 (b0a8486541, 2022-12-01)"
   sodipodi:docname="bird5.svg"
   xmlns:inkscape="http://www.inkscape.org/namespaces/inkscape"
   xmlns:sodipodi="http://sodipodi.sourceforge.net/DTD/sodipodi-0.dtd"
   xmlns="http://www.w3.org/2000/svg"
   xmlns:svg="http://www.w3.org/2000/svg">
  <sodipodi:namedview
     id="namedview6629"
     pagecolor="#ffffff"
     bordercolor="#999999"
     borderopacity="1"
     inkscape:showpageshadow="0"
     inkscape:pageopacity="0"
     inkscape:pagecheckerboard="0"
     inkscape:deskcolor="#d1d1d1"
     inkscape:document-units="px"
     showgrid="false"
     inkscape:zoom="16"
     inkscape:cx="19.28125"
     inkscape:cy="24.46875"
     inkscape:window-width="1918"
     inkscape:window-height="1036"
     inkscape:window-x="0"
     inkscape:window-y="18"
     inkscape:window-maximized="1"
     inkscape:current-layer="layer1" />
  <defs
     id="defs6624" />
  <g
     inkscape:label="Layer 1"
     inkscape:groupmode="layer"
     id="layer1">
    <g
       id="g7165"
       transform="matrix(1.1279524,0,0,0.99865742,0.38347781,-0.10941044)">
      <path
         style="fill:#552200;stroke:#000000;stroke-width:0.264583"
         d="m 3.5588125,4.9582098 c 0.011422,-0.066656 -0.00609,-0.123169 -0.016536,-0.1858515 -0.00272,-0.016311 0.00523,-0.033921 0,-0.049609 -0.00628,-0.018854 -0.024186,-0.031833 -0.033073,-0.049609 -0.039781,-0.079561 -0.058385,-0.1795434 -0.082682,-0.2645834 -0.00958,-0.033521 -0.015137,-0.069325 -0.033073,-0.099219 -0.00802,-0.013369 -0.026101,-0.019129 -0.033073,-0.033073 -0.009,-0.01801 -0.043643,-0.1957147 -0.049609,-0.2315104 -0.023289,-0.1397344 4.63e-5,-0.328412 0.032866,-0.4605243 0.00397,-0.015983 -0.00397,-0.033425 0,-0.049408 0.00988,-0.039766 0.041682,-0.076928 0.049408,-0.1155533 0.00779,-0.038968 0.00697,-0.077495 0.016536,-0.1157552 0.050496,-0.2019824 0.2318562,-0.1984375 0.396875,-0.1984375 0.054688,0 0.1067416,7.937e-4 0.131672,0.0478 0.00514,0.00969 0.012295,-0.00556 0.00797,-0.00677 -0.020592,-0.00574 -0.2433529,-0.049676 -0.2513573,-0.045569 -0.035893,0.018412 -1.54e-4,0.016634 -0.016536,0.0494 -0.00246,0.00493 -0.012639,-0.0039 -0.016536,0 -0.025853,0.025852 -0.015497,0.062605 -0.028139,0.083721 -0.015462,0.025826 -0.043702,0.023254 -0.065159,0.033073 -0.031251,0.014298 -0.056431,0.045369 -0.08717,0.061828 -0.00421,0.00225 -0.011094,-0.00351 -0.014348,0 -0.00543,0.00585 -0.010917,0.041793 -0.016536,0.047219 -0.00378,0.00365 -0.011073,-0.00238 -0.015753,0 -0.064453,0.032805 0.015335,-3.705e-4 -0.01633,0.032866 -0.00863,0.00905 -0.03798,0.020487 -0.044297,0.028949 -0.013002,0.017418 0.00516,0.026674 -0.015759,0.048622"
         id="path6757" />
      <path
         style="fill:#552200;stroke:#000000;stroke-width:0.264583"
         d="m 5.4004407,5.6256813 c -0.1705245,0.020333 -0.3472267,-0.00393 -0.5175234,0.016536 -0.00774,9.26e-4 -0.00889,0.015007 -0.016536,0.016536 C 4.8228455,5.6674617 4.669557,5.6427311 4.6580926,5.6402466 4.5590834,5.6187889 4.496361,5.5744667 4.402916,5.5302318 4.229679,5.448225 4.0673931,5.3598131 3.9118091,5.2469501 3.8263479,5.184955 3.7056243,4.9518965 3.6586026,4.8582756 3.5739513,4.6897334 3.4628578,4.5328738 3.3829372,4.3618992 3.3477722,4.2866711 3.3139722,4.1192446 3.2941729,4.058224 3.2862381,4.0337659 3.2655082,4.0141611 3.2600835,3.989027 3.2213411,3.8095238 3.2218139,3.4180368 3.2931564,3.2396804 3.340615,3.1210338 3.4326688,3.0190861 3.4926768,2.9074063 c 0.015079,-0.028063 0.020415,-0.060719 0.035809,-0.08861 0.06095,-0.1104254 0.1716489,-0.1784406 0.2677686,-0.2505868 0.018785,-0.0141 0.03317,-0.033266 0.049755,-0.049899 0.0298,-0.029803 0.055466,-0.064415 0.0894,-0.08941 C 3.965591,2.40667 4.0033647,2.3970444 4.0359061,2.3784396 4.1629175,2.3058241 4.2295089,2.15902 4.328072,2.0508988 4.4300125,1.9390725 4.6190428,1.797851 4.7625456,1.7363498 c 0.066663,-0.02857 0.1310069,-0.0053 0.1984375,-0.016536 0.2307871,-0.038465 0.4591826,-0.00698 0.6891788,0.034299 0.033849,0.00607 0.06789,0.011024 0.1018349,0.016536 0.040951,0.0117 0.081072,0.026837 0.1228527,0.035099 0.048986,0.00969 0.098868,0.014653 0.1486474,0.01859 0.02871,0.00227 0.058387,-0.00669 0.086398,0 0.2201272,0.052606 0.643455,0.2909489 0.8040955,0.4515892 0.1441767,0.1441768 0.3621093,0.5079779 0.4040873,0.6928851 0.00889,0.039152 0.00612,0.080531 0.016536,0.1193028 0.00643,0.023942 0.025516,0.04295 0.033386,0.066459 0.010208,0.030491 0.032821,0.1860119 0.033985,0.2020872 0.00958,0.1322977 0,0.2681919 0,0.4010832 0,0.124878 0.012425,0.2560994 0,0.3803385 -0.00225,0.022614 -0.013719,0.043594 -0.016536,0.066146 -0.012375,0.098998 -0.00355,0.1992607 -0.033073,0.2976563 -0.00571,0.019037 -0.027613,0.0305 -0.033073,0.049609 -0.00606,0.021201 0.00312,0.044319 0,0.066146 -0.00705,0.049327 -0.027196,0.1205381 -0.049609,0.1653646 -0.057311,0.1146231 -0.1414979,0.2113264 -0.214974,0.3141927 -0.070407,0.098571 -0.1141772,0.2176024 -0.1829496,0.3158472 -0.071682,0.1024014 -0.189597,0.187108 -0.298604,0.2493978 -0.1500772,0.085758 -0.7340976,5.8e-6 -0.9083506,-0.034845 -0.044914,-0.00898 -0.1032621,5.292e-4 -0.1488281,0 -0.1923206,-0.00222 -0.03979,0.00188 -0.2464139,-0.016536 -0.055779,-0.00497 -0.1093438,0.010692 -0.1605259,-0.014899"
         id="path6761" />
      <path
         style="fill:#552200;stroke:#000000;stroke-width:0.264583"
         d="M 3.2606095,3.0437178 C 3.2538758,3.0112278 3.2952379,2.9058154 3.2716135,2.870979 3.174939,2.7284157 3.3118675,2.9739805 3.2058804,2.7885034 3.1352904,2.6649707 3.2111535,2.7823782 3.1397346,2.6396751 3.1007143,2.5617063 3.0430103,2.4954336 2.9948442,2.4235657 2.8991643,2.2808039 2.9887355,2.3979403 2.8898896,2.2123272 2.8197721,2.0806603 2.7362698,1.9434429 2.6512513,1.8207086 2.5651826,1.696458 2.4542468,1.5759852 2.3860665,1.4396244 2.3249727,1.3174369 2.2782265,1.1736312 2.2207019,1.0592859 c -0.018968,-0.037703 0,-0.15584267 0,-0.19760207 0,-0.0188555 -0.00843,-0.0904723 0,-0.11554831 0.013524,-0.040233 0.033653,-0.0499827 0.066146,-0.0824754 0.1442914,-0.1442914 0.2205996,-0.11399047 0.4172972,-0.0983276 0.085395,0.0068 0.1972141,0.002553 0.2811198,0.0165365 0.044836,0.007473 0.087456,0.0256003 0.1322917,0.0330729 0.010874,0.001812 0.023032,-0.004552 0.033073,0 0.070625,0.0320199 0.1372886,0.0723122 0.2077979,0.10458498 0.070376,0.0322117 0.1440535,0.0709374 0.2048516,0.11951084 0.062311,0.0497819 0.059376,0.0687726 0.1157552,0.11575521 0.081138,0.0676153 0.021352,-0.006362 0.099219,0.0826823 0.023487,0.026859 0.041657,0.058337 0.066867,0.083587 0.014041,0.014064 0.035556,0.01902 0.049609,0.033073 0.090957,0.090957 0.1480428,0.226641 0.2154878,0.3315772 0.024458,0.038054 0.1272029,0.1510081 0.1488281,0.1819011 0.01741,0.024872 0.03803,0.1552732 0.082474,0.1488281 0.00922,-0.00134 0.021897,-0.076977 0.02802,-0.086162 0.031389,-0.047084 0.053195,-0.099682 0.082682,-0.1488282 0.00479,-0.041088 0.047987,-0.052417 0.066146,-0.082682 0.042779,-0.071299 -0.014851,-0.031114 0.049609,-0.082682 0.055214,-0.044171 0.1034825,-0.039625 0.1653646,-0.066146 0.01461,-0.00626 0.059899,-0.045053 0.082682,-0.049609 0.084815,-0.016963 0.1779344,-0.022242 0.2645833,-0.033073 0.059682,-0.00746 0.1223592,0.00851 0.1819011,0 0.012202,-0.00174 0.020987,-0.014119 0.033073,-0.016536 0.047611,-0.00952 0.1007118,0.00687 0.1488281,0 0.060219,-0.0086 0.1702385,-0.039756 0.2315104,-0.016536 0.010776,0.00408 0.00852,0.021725 0.015462,0.030926 0.08746,0.1159547 -0.019688,-0.036224 0.065073,0.048536 0.014055,0.014053 0.020349,0.034342 0.033073,0.049609 0.044935,0.053922 0.086465,0.1119002 0.1322917,0.1653646 0.054266,0.06331 0.1158449,0.1158747 0.1653645,0.181901 0.012086,0.016113 0.012843,0.039494 0.033073,0.049609 0.022553,0.011276 0.014991,-0.019648 0.032869,0.016333 0.00314,0.00633 -0.00826,0.037422 0.016227,0.032762 0.00781,-0.00149 0.00554,-0.015272 0.010673,-0.021344 0.014605,-0.017262 0.03078,-0.033271 0.047965,-0.047965 C 6.2489369,1.722007 6.2760049,1.711067 6.2941359,1.69031 6.3154689,1.665888 6.3247439,1.632844 6.3441859,1.606892 6.3939629,1.54045 6.4736211,1.521226 6.5267037,1.457447 6.5870627,1.384926 6.6317107,1.2899073 6.6956272,1.2217419 6.7667732,1.1458659 6.8393904,1.0694075 6.924573,1.0097179 6.960968,0.9842152 7.004388,0.9697106 7.0403282,0.943572 7.0655462,0.9252319 7.0827992,0.8977188 7.1064742,0.8774262 7.1215632,0.864492 7.1420302,0.8584066 7.1560832,0.8443533 7.1755722,0.8248649 7.1847662,0.7961438 7.2056922,0.7782075 7.2244092,0.7621648 7.2504352,0.7573649 7.2718382,0.7451346 7.4441701,0.6466592 7.6642503,0.57902619 7.8671508,0.61284293 c 0.012158,0.002027 0.02087,0.0147934 0.033073,0.0165365 0.084777,0.012111 0.1507786,-0.007293 0.2315104,0.0330729 0.057731,0.0288657 0.09372,0.19548365 0.1005409,0.2188217 0.071028,0.24302107 0.073053,0.41994567 0.05472,0.66472117 -0.014856,0.1983475 0,0.4039943 0,0.6030517 0,0.1074177 -0.005,0.1772486 -0.016537,0.2811198 -0.00259,0.023255 0.0095,0.074814 0,0.098438 -0.00898,0.022333 -0.024717,0.041738 -0.032292,0.064584 -0.00884,0.026678 -0.00491,0.057095 -0.016537,0.082682 -0.016449,0.036186 -0.047112,0.064323 -0.066146,0.099219 -0.014213,0.026059 -0.019788,0.056137 -0.033073,0.082682 C 8.0535851,2.99529 7.947022,3.1193489 7.8554624,3.2414285 7.8454876,3.2547264 7.7440498,3.4602201 7.7399141,3.472732 c -0.02018,0.061047 0.022064,0.011009 -0.016536,0.049609"
         id="path6765" />
      <path
         style="fill:#552200;stroke:#000000;stroke-width:0.264583"
         d="M 3.8011328,5.203347 C 3.5841465,5.1857231 3.4835696,5.1758798 3.2719813,5.2891829 3.1481081,5.3555155 3.1203544,5.3481638 3.0288434,5.4395094 2.9293747,5.5387985 2.8611233,5.6732058 2.7836763,5.7895505 2.7133834,5.8951478 2.6538762,6.0077492 2.5820574,6.1123149 2.5546851,6.1521678 2.5163946,6.1838013 2.4894456,6.2239421 2.4143359,6.3358177 2.370806,6.4702295 2.307268,6.5878672 2.293888,6.6126372 2.270335,6.6308732 2.256636,6.6554692 2.07138,6.9880801 2.0698337,7.5605871 2.0698337,7.942956 c 0,0.090442 -0.00957,0.1813912 0,0.2713247 0.022785,0.2140511 0.064478,0.4256651 0.096845,0.6384785 0.014926,0.09814 0.017101,0.1991238 0.045035,0.294381 0.026991,0.092041 0.07569,0.1763723 0.118226,0.2623415 0.2299979,0.4648462 0.6036172,0.8799243 1.0498198,1.1481943 0.025043,0.01506 0.056872,-0.01691 0.086092,-0.01654 0.1114155,0.0014 0.2221979,0.01808 0.3335584,0.02186 0.3116747,0.01057 0.7445087,0.02936 1.0421774,-0.05172 0.3372403,-0.09185 0.6046644,-0.36276 0.8982707,-0.535999 0.091634,-0.054068 0.3255619,-0.1539134 0.3993155,-0.2399591 0.016042,-0.018717 0.017447,-0.047079 0.033073,-0.066146 0.032249,-0.039352 0.07767,-0.0668 0.1088331,-0.1070179 C 6.327823,9.5018296 6.3939861,9.3433728 6.4293365,9.2830988 6.4825241,9.1924126 6.5515005,9.1109651 6.5986434,9.0169947 6.6630181,8.8886768 6.7037473,8.7496848 6.7626253,8.6187539 6.8085083,8.5167218 6.8642054,8.4193718 6.9127202,8.3185645 6.9518685,8.2372194 6.9764073,8.1480837 7.0255777,8.0723747 7.134843,7.9041352 7.2769282,7.7587535 7.3857492,7.5902264 7.4739727,7.4535982 7.5693986,7.118138 7.5971735,6.9846877 7.6392449,6.7825463 7.6596377,6.5764467 7.6961298,6.3732242 7.7082901,6.3055113 7.8210293,5.9659061 7.7873417,5.8816874 7.7519209,5.7931353 7.6538867,5.6915043 7.5875739,5.6327539 7.5726646,5.6195432 7.550255,5.6152279 7.5378021,5.599681 7.4928719,5.5435872 7.4541879,5.482062 7.4220469,5.4177799 7.3303293,5.1884862 7.4517307,5.4712109 7.3393646,5.2689518 7.3049976,5.2070914 7.2836775,5.1065667 7.2063776,5.1065667"
         id="path6767" />
      <path
         style="fill:#552200;stroke:#000000;stroke-width:0.264583"
         d="m 7.8140774,5.7114471 c 0.00551,-0.024395 0.00482,-0.051088 0.016536,-0.07318 C 7.8602882,5.5823291 7.9402117,5.4860718 7.979442,5.4232933 8.060047,5.294305 8.1385616,5.1512776 8.210278,5.0190883 8.3129249,4.8298871 8.3804069,4.6947721 8.4465392,4.4953434 8.4628614,4.4461204 8.4679678,4.393641 8.4842733,4.3444121 8.5217722,4.2311906 8.5653745,4.1200555 8.6087428,4.0089498 8.6404668,3.9276768 8.6844748,3.8563186 8.7100367,3.7721062 8.7234907,3.7277792 8.7286057,3.6811222 8.7431097,3.6371272 8.7825747,3.5174127 8.8531156,3.4003132 8.909203,3.288138 8.927316,3.251911 8.952784,3.222166 8.975349,3.188919 8.978659,3.184049 8.996465,3.156388 8.998923,3.159621 c 0.1104919,0.1452684 0.086994,0.2948276 0.099019,0.46247 0.008,0.1114981 0.017433,0.2108597 0.017433,0.3233671 0,0.3405521 -0.00559,-0.1098941 0.017439,0.2394543 0.019426,0.2947231 0,0.5989762 0,0.8954572 0,0.00295 0,-0.00589 0,-0.00884 0,-0.02105 -0.00757,-0.043508 0,-0.063149 C 9.142821,4.9824226 9.166198,4.9638696 9.18289,4.9416136 9.200546,4.9010646 9.220253,4.8613476 9.23586,4.8199661 9.257765,4.7618871 9.271203,4.7006925 9.295324,4.6434985 9.357585,4.4958719 9.5302375,4.2363429 9.6132471,4.1115215 9.8008086,3.8294849 9.6656971,4.0816345 9.7530399,3.8854649 9.7858349,3.8118079 9.8158519,3.7344788 9.8687425,3.67101 c 0.01497,-0.017965 0.036017,-0.030579 0.049609,-0.049609 0.014327,-0.020061 0.017674,-0.046896 0.033073,-0.066146 0.016031,-0.020037 0.064362,-0.0314 0.082683,-0.049609 0.0039,-0.00384 0,-0.021781 0,-0.016335 0,0.1360202 0.0058,0.2747211 0,0.4100219 -0.01098,0.2562958 -0.043684,0.5135848 -0.066906,0.7690779 -0.00596,0.065515 -0.015042,0.1307515 -0.019667,0.196374 -0.00388,0.054985 0.010972,0.1113462 0,0.1653646 -0.033825,0.1665203 -0.093513,0.3395895 -0.1349237,0.5052306 -0.045014,0.1800553 -0.056855,0.3690027 -0.1157552,0.5457037 -0.025694,0.077084 -0.079623,0.1432427 -0.1022266,0.221289 -0.00929,0.032072 0.00651,0.067422 0,0.1001715 -0.00481,0.024178 -0.025278,0.04276 -0.033073,0.066146 -0.01864,0.055918 -0.049609,0.1721364 -0.049609,0.2315105 0,0.00478 -0.00169,-0.00987 0,-0.014351 0.00576,-0.015317 0.046232,-0.075852 0.049609,-0.07923 C 9.645889,6.5222857 9.8227339,6.430408 9.9300786,6.382452 10.030077,6.337778 10.136923,6.305184 10.237735,6.262056 c 0.466508,-0.1995736 -0.03686,0.022482 0.188322,-0.1182553 0.06521,-0.040758 0.303323,-0.075281 0.380338,-0.049609 0.05695,0.018981 0.03307,0.1698414 0.03307,0.1980248 0,0.1971675 -0.05328,0.379457 -0.08323,0.575745 -0.0337,0.2208951 -0.0086,0.2089303 -0.0943,0.497413 -0.02173,0.073137 -0.0626,0.1392205 -0.09059,0.210199 -0.08548,0.216798 -0.08,0.2485734 -0.174569,0.4611476 -0.0083,0.01864 -0.02574,0.032289 -0.03378,0.051035 -0.02746,0.063944 -0.04525,0.1386633 -0.08268,0.1984375 C 10.131539,8.5237843 9.9297564,8.7149365 9.7255777,8.9044859 9.6756852,8.9508039 9.6327936,9.0045291 9.5811623,9.0489005 9.4541599,9.1580446 9.2705549,9.2646143 9.1318236,9.3596666 9.0541485,9.412886 8.8925979,9.5344355 8.7941364,9.5909601 c -0.047936,0.027518 -0.099587,0.048223 -0.1474031,0.075948 -0.1092039,0.063319 -0.2111237,0.1672733 -0.341444,0.1889935 -0.070867,0.011811 -0.1210789,0.0088 -0.1984375,0.016536 -0.017343,0.00175 -0.032353,0.014071 -0.049609,0.016536 -0.044244,0.00632 -0.1199912,0.00648 -0.1653646,0 C 7.8155776,9.8780737 7.7375871,9.8610497 7.6603674,9.8559017 7.1324088,9.8207044 7.7851095,9.8896051 7.3754154,9.8384074 7.0181469,9.7937611 6.6743942,9.7347677 6.410572,9.4709456"
         id="path6769" />
      <path
         style="fill:#552200;stroke:#000000;stroke-width:0.264583"
         d="M 3.5706781,5.0538405 C 3.3912321,5.0195447 3.2487958,4.9082101 3.0867475,4.8320371 2.8469276,4.7193066 2.597128,4.6280759 2.3600657,4.5096561 2.2575997,4.4584711 1.858689,4.2002841 1.7471288,4.1115859 1.6697473,4.0500624 1.676081,3.9387717 1.629584,3.8574021 1.5789209,3.7687415 1.5890563,3.831099 1.5436215,3.6862431 1.5334069,3.6536766 1.536746,3.617879 1.5267116,3.5852564 1.4872865,3.4570835 1.470605,3.5007384 1.4601782,3.3860434 1.4412351,3.1776687 1.485711,3.3978994 1.4427456,3.1833194 1.4276329,3.1078425 1.4096727,3.0284585 1.4096727,2.951809 c 0,-0.012057 -0.00743,-0.042739 -0.014639,-0.033073 -0.00871,0.011681 -0.00883,0.02795 -0.015753,0.040768 -0.1167028,0.216017 -0.263493,0.4283483 -0.3248308,0.670369 -0.11239185,0.5385075 -0.00127,0.043299 -0.11219233,0.4597427 -0.007577,0.028448 -0.009974,0.1852073 -0.0165365,0.1952672 -0.008968,0.013748 -0.033566,-0.00487 -0.049242,0 -0.0235426,0.00731 -0.0474293,0.017031 -0.0661458,0.033073 -0.0887205,0.076046 -0.0890983,0.191525 -0.14882813,0.2811198 -0.008648,0.012973 -0.0261006,0.019127 -0.0330729,0.033073 -0.00493,0.00986 0.002162,0.022262 0,0.033073 -0.0232942,0.1164709 -0.0330729,0.2268768 -0.0330729,0.3472656 0,0.1543402 0,0.3086804 0,0.4630209 0,0.071658 -0.007913,0.1437542 0,0.2149739 0.003067,0.027604 0.0165365,0.03687 0.0165365,0.065365 0,0.00301 0,-0.00601 0,-0.00901 0,-0.021333 0.004184,-0.043079 0,-0.063997 C 0.60004094,5.6235617 0.58085192,5.5666139 0.54574976,5.517471 0.45328457,5.3880196 0.38172656,5.1914334 0.21400118,5.1355251 0.01263351,5.0684021 0.23098688,5.1422251 0.11478238,5.1189891 0.10332438,5.1166891 0.03013767,5.0764031 0.01577154,5.0859161 -0.03322649,5.1183621 -0.01728096,5.3620083 9.34752e-4,5.4075222 0.03563242,5.4942173 0.0866061,5.5735306 0.1261038,5.6581473 0.2020549,5.8208589 0.165288,5.762527 0.23954468,5.9478277 c 0.0231042,0.057654 0.0570118,0.1112009 0.0744534,0.1708131 0.0133265,0.045548 0.006526,0.095054 0.0168857,0.1413664 0.006527,0.029178 0.0261805,0.054239 0.0333636,0.083263 0.009863,0.039851 0.008805,0.081783 0.0174165,0.1219222 0.0239924,0.1118259 0.0554166,0.2230244 0.0681715,0.3378187 0.0125468,0.1129204 0.0230034,0.1576993 0.05098,0.2690423 0.008171,0.032518 0.0045,0.067924 0.0165365,0.099219 0.015953,0.041478 0.0490534,0.074733 0.0661458,0.1157552 0.0108103,0.025945 0.00288,0.058116 0.0165365,0.082682 0.0501474,0.050263 0.0683677,0.059898 0.09968,0.1163709 0.0551753,0.099511 0.11766606,0.191272 0.17113073,0.2921717 0.0271685,0.051273 0.0477435,0.106096 0.0778508,0.1557004 0.019104,0.031475 0.0485456,0.05564 0.0690022,0.086253 0.087542,0.1310074 0.1559642,0.2758514 0.2516632,0.4027321 0.062339,0.082651 0.1178467,0.1290892 0.1732644,0.2099961 0.034721,0.050691 0.056021,0.1060064 0.1001191,0.1501735 0.014042,0.014065 0.035556,0.019021 0.049609,0.033073 0.039037,0.039037 0.027109,0.060182 0.066146,0.099219 0.041566,0.041566 0.2809129,0.1988749 0.2809129,0.2468065"
         id="path6771" />
      <path
         style="fill:#552200;stroke:#000000;stroke-width:0.264583"
         d="m 5.0011847,10.720075 c -0.00686,0.06479 0.023564,0.146771 0.00718,0.212322 -0.00598,0.02392 -0.024649,0.04298 -0.033073,0.06615 -0.023828,0.06553 -0.044198,0.132258 -0.066146,0.198437 -0.013076,0.03942 -0.019087,0.08113 -0.034098,0.119855 -0.031641,0.08164 -0.077261,0.152631 -0.1026546,0.237276 -0.00808,0.02692 -0.0061,0.05659 -0.016536,0.08268 -0.011935,0.02984 -0.036309,0.05342 -0.049609,0.08268 -0.054188,0.119214 -0.1087861,0.259579 -0.1500846,0.382861 -0.00893,0.02665 -0.00765,0.05602 -0.016536,0.08268 -0.024178,0.07254 -0.066146,0.137307 -0.066146,0.214561 0,0.01887 0.00525,0.01576 -0.00934,0.01576 -0.00486,0 0.00796,-0.0074 0.00796,-0.01221 0,-0.01647 0,-0.03294 0,-0.04941 0,-0.06948 0.00917,-0.03585 -0.033073,-0.09922"
         id="path6773" />
      <path
         style="fill:#552200;stroke:#000000;stroke-width:0.264583"
         d="m 2.7647133,10.159301 c -0.026987,0.03192 -0.053974,0.06384 -0.080961,0.09575 -0.011025,0.02205 -0.01729,0.04721 -0.033073,0.06615 -0.012723,0.01527 -0.036527,0.01811 -0.049609,0.03307 -0.097669,0.111704 -0.1342722,0.268201 -0.1989523,0.397561 -0.077828,0.155656 -0.1764958,0.309475 -0.2730625,0.454551 -0.064561,0.09699 -0.1403294,0.183749 -0.2006408,0.284268 -0.078,0.13 -0.1744379,0.245797 -0.2344031,0.385345 -0.0073,0.01698 -0.0663,0.148822 -0.0663,0.08477"
         id="path6775" />
      <path
         style="fill:#ff0000;stroke:#000000;stroke-width:0.264583"
         d="m 5.2852911,10.192891 c -0.022386,0.148867 -0.082496,0.289897 -0.097695,0.441886 -0.0056,0.05602 0.015134,0.131764 0,0.187299 0.00997,0.02993 -0.026788,0.03076 -0.033073,0.04961 -0.00726,0.02179 -0.023096,0.128263 -0.044056,0.128263"
         id="path6777" />
      <path
         style="fill:#ff0000;stroke:#000000;stroke-width:0.264583"
         d="m 4.0544129,2.7338185 c 0.027681,0.038275 -0.013909,0.092849 0,0.1342093 0.00887,0.026392 0.041893,0.051816 0.049609,0.082682 0.00267,0.010695 -0.00493,0.023212 0,0.033073 0.00697,0.013943 0.026101,0.019129 0.033073,0.033073 0.00493,0.00986 0,0.022048 0,0.033073 0.00551,0.011025 0.0097,0.022818 0.016536,0.033073 0.039476,0.059214 0.1309407,0.082682 0.1980287,0.082682 0.0014,0 0.055715,0.00444 0.061991,0 0.1535903,-0.10869 0.1296252,-0.1796016 0.1982366,-0.313585 0.02622,-0.051204 -0.081969,-0.1003837 -0.1082159,-0.1161317 -0.1229807,-0.073789 0.050849,0.030262 -0.066146,-0.016536 -0.03856,-0.015425 -0.058914,-0.05607 -0.099219,-0.066146 -0.1052748,-0.026319 -0.2022321,0.025609 -0.2838934,0.080533 z"
         id="path6779" />
      <path
         style="fill:#ff0000;stroke:#000000;stroke-width:0.264583"
         d="m 6.7109368,2.9087364 c -0.038585,-0.00551 -0.076893,-0.013547 -0.1157552,-0.016536 -0.043967,-0.00338 -0.089051,0.00865 -0.1322917,0 -0.051235,-0.010247 -0.1109794,-0.030133 -0.1653646,-0.016536 -0.022688,0.00567 -0.028692,0.039151 -0.049609,0.049609 -0.00986,0.00493 -0.0239,-0.00611 -0.033073,0 -0.054715,0.036477 -0.065733,0.1974996 -0.065733,0.2615134 0,0.019177 -0.00922,0.062776 0,0.080335 0.035131,0.066935 0.1145378,0.098132 0.181901,0.1149725 0.01511,0.00378 0.123924,0.028351 0.1278782,0.027005 0.042198,-0.014369 0.1995609,-0.2434013 0.214567,-0.2809163 0.00409,-0.010237 -0.00463,-0.023066 0,-0.033073 0.00214,-0.00463 0.010978,0.00271 0.015296,0 0.012004,-0.00754 -0.00402,-0.08368 0,-0.1019304 0.00626,-0.028422 0.042699,-0.0638 0.022185,-0.084442 -0.030285,-0.030476 -0.08532,-0.011328 -0.1271407,-0.021173 -0.091209,-0.021466 0.022431,-0.016536 -0.066146,-0.016536"
         id="path6781" />
      <path
         style="fill:#ff0000;stroke:#000000;stroke-width:0.264583"
         d="m 5.3044748,3.7520365 c -0.013372,0.083127 -0.036726,0.1839606 -0.057155,0.2528851 -0.013338,0.044998 0.00636,0.060908 -0.016328,0.1051276 -0.010933,0.02131 0.010517,0.058704 0,0.08026 -0.017473,0.03581 -0.032084,0.032996 -0.032084,0.076373"
         id="path6783" />
      <path
         style="fill:#ff0000;stroke:#000000;stroke-width:0.264583"
         d="m 5.2225989,4.0264348 c -0.032062,0.10995 -0.022371,0.2272488 -0.049609,0.3365241 -0.00591,0.023701 -0.025019,0.042379 -0.032771,0.065542 -0.013454,0.040198 0.018815,0.1052031 0,0.1428324 -0.012078,0.024159 -0.016536,0.015489 -0.016536,0.042736"
         id="path6785" />
      <path
         style="fill:#ff0000;stroke:#000000;stroke-width:0.264583"
         d="m 8.0205661,0.81667741 c -0.058277,0.093993 -0.088212,0.19947879 -0.142834,0.29506659 -0.019722,0.034512 -0.04837,0.063666 -0.066146,0.099219 -0.015925,0.031851 -0.022476,0.083965 -0.033073,0.1157552 -0.011692,0.035079 -0.036973,0.064468 -0.049609,0.099219 -0.059044,0.162371 -0.1176448,0.3290752 -0.1653646,0.496094 -0.032949,0.032381 -0.00751,0.079659 -0.016536,0.1157553 -0.00188,0.00756 -0.014645,0.00897 -0.016536,0.016536 -0.00401,0.016043 0.00324,0.033394 0,0.049609 -0.00991,0.049562 -0.040744,0.096471 -0.049609,0.1488281 -0.00451,0.026662 0.00445,0.05445 0,0.081123 -0.024294,0.1457663 -0.016536,0.2968142 -0.016536,0.4464844"
         id="path6787" />
      <path
         style="fill:#ff0000;stroke:#000000;stroke-width:0.264583"
         d="m 2.4282786,0.99184134 c 0.019778,0.10918286 0.1197808,0.15801686 0.1801096,0.23845516 0.032066,0.042755 0.060471,0.093544 0.099219,0.1322917 0.02572,0.02572 0.069717,0.04402 0.099219,0.066146 0.036592,0.027444 0.053257,0.069794 0.082682,0.099219 0.014052,0.014053 0.034341,0.02035 0.049609,0.033073 0.1325827,0.1104857 0.2809399,0.23189 0.3472657,0.3968753 0.048393,0.1203789 0.033073,0.2588847 0.033073,0.388958"
         id="path6789" />
      <path
         style="fill:#ff0000;stroke:#000000;stroke-width:0.264583"
         d="m 8.2134553,0.89118154 c -0.070785,0.0187682 -0.1254868,0.0564729 -0.1814438,0.0984406 -0.018709,0.0140317 -0.028692,0.0391508 -0.049609,0.0496094 -0.1580904,0.079045 0.046515,-0.0472889 -0.082682,0.049609 -0.017203,0.012903 -0.071492,0.022098 -0.082467,0.033073 -0.00824,0.00824 -0.1018138,0.2127068 -0.1157552,0.2312954 -0.0074,0.00986 -0.022048,0.011024 -0.033073,0.016536 -0.011025,0.016536 -0.024186,0.031833 -0.033073,0.049609 -0.033281,0.066561 -0.040319,0.1461009 -0.066146,0.2149739 -0.023051,0.061468 -0.037877,0.057092 -0.049609,0.1157552 -0.0063,0.031508 0.00778,0.068083 0,0.099218 -0.012412,0.049646 -0.042179,0.096491 -0.049609,0.1484144 -0.021693,0.1515844 -0.033073,0.307689 -0.033073,0.4630208 0,0.123116 0.0074,-0.010783 -0.016536,0.082682 -0.011287,0.044081 -0.00678,0.2885428 0.00818,0.3165312"
         id="path6791" />
      <path
         style="fill:#ff0000;stroke:#000000;stroke-width:0.264583"
         d="M 2.9106498,5.1646885 C 2.7838906,5.1294285 2.6501173,5.1071453 2.5250912,5.0654697 2.4580298,5.0431151 2.3937151,5.0051413 2.3266537,4.9827874 2.2939699,4.9762522 2.2127891,4.9613774 2.1778256,4.9497145 2.1328902,4.9347259 2.0897063,4.9147903 2.0447709,4.8998004 2.0016523,4.8854176 1.9531348,4.8870554 1.9124792,4.8667274 1.8985343,4.8597557 1.8927752,4.8416767 1.8794063,4.8336545 1.7536348,4.7581916 1.4897452,4.6418927 1.3430372,4.5999761 c -0.01676,-0.00479 -0.034009,-0.00876 -0.049609,-0.016536 -0.00689,-0.00343 -0.00864,-0.015954 -0.016324,-0.016325 -0.018333,-8.731e-4 -0.0168,0.033336 -0.029779,0.046315 -0.0039,0.0039 -0.012626,-0.00388 -0.016536,0 -0.013989,0.013901 -0.025542,0.030884 -0.032866,0.049195 -0.00844,0.0211 -0.00935,0.044585 -0.016537,0.066146 -0.096135,0.2884057 0.016346,0.5970271 -0.016536,0.8929685 -0.00136,0.01225 -0.013547,0.021116 -0.016536,0.033073 -0.00634,0.025374 0.00822,0.057909 0,0.082682 -0.017537,0.052833 -0.038015,0.1084259 -0.049196,0.1643306 -0.00948,0.04741 0.00683,0.1010361 0,0.1488281 -0.00692,0.048462 -0.021483,0.1024699 -0.033073,0.1488281 -0.00454,0.018148 -0.01634,0.088608 -0.032866,0.095476 -0.0418085,0.017378 -0.13083851,-0.010607 -0.16453796,-0.033073 -0.004586,-0.00306 0.002453,-0.011599 0,-0.016536 -2.9898e-4,-6.086e-4 -0.0982892,-0.1154478 -0.0990108,-0.1155473 -0.006119,-8.467e-4 -0.0459052,0.1078212 -0.0478532,0.1117172 -0.0252145,0.050429 -0.0131096,-0.030244 -0.0330729,0.049609 -0.0104333,0.041733 0,0.1070658 0,0.1488282 0,0.081078 0.007506,0.1778743 0.0496094,0.2480468 0.0226359,0.037726 0.0614731,0.0568 0.0826823,0.099219 0.007795,0.015592 0.006868,0.035106 0.0165365,0.049609 0.0129723,0.019457 0.0380066,0.029304 0.0496094,0.049609 0.0112758,0.019733 0.004491,0.046873 0.0165365,0.066146 0.0165261,0.026442 0.0464006,0.042013 0.0661458,0.066146 0.003418,0.00418 0.0944444,0.1298464 0.11575516,0.1653646 0.077548,0.1292463 0.1177248,0.2870285 0.1653646,0.4299479 0.015536,0.046608 0.060747,0.071885 0.082682,0.1157552 0.012326,0.024651 0.037284,0.041495 0.049609,0.066146 0.00493,0.00986 -0.00493,0.023212 0,0.033073 0.00697,0.013943 0.023718,0.0206 0.033073,0.033073 0.033408,0.044544 0.052033,0.1028544 0.082682,0.1488281 0.019578,0.029367 0.048635,0.052037 0.066146,0.082682 0.00547,0.00957 -0.00267,0.022379 0,0.033073 0.012387,0.04955 0.060397,0.08772 0.082682,0.1322917 0.015591,0.031181 0.015137,0.069325 0.033073,0.099219 0.019101,0.031835 0.064545,0.052083 0.081611,0.066146 0.00141,0.00116 -0.00129,0.022627 0,0.024387 0.00407,0.00557 0.013802,0 0.020703,0"
         id="path6793" />
      <path
         style="fill:#ff0000;stroke:#000000;stroke-width:0.264583"
         d="m 8.3253963,5.5095798 c 0.020841,-0.023908 0.041683,-0.047813 0.062525,-0.07172 0.016537,-0.011025 0.035556,-0.019021 0.049609,-0.033073 0.00872,-0.00872 0.00782,-0.024358 0.016536,-0.033073 0.035231,-0.035231 0.1517621,-0.07231 0.1984375,-0.082682 0.017809,-0.00396 0.1271239,-0.010411 0.1375342,0 0.00304,0.00304 0,0.035736 0,0.039459 0,0.027561 0,0.055122 0,0.082682 0,0.07046 -0.00957,0.4392888 0.016536,0.476382 0.017484,0.024839 0.1115132,-0.023021 0.171822,-0.033073 0.027186,-0.00453 0.055399,0.0039 0.082682,0 0.068579,-0.0098 0.1295268,-0.0689 0.1984375,-0.082682 0.028566,-0.00571 0.082682,0.024485 0.082682,-0.016536 0,-0.00495 0,0.0099 0,0.014856 0,0.020886 0,0.041773 0,0.06266 0,0.033073 0,0.066146 0,0.099219 0,0.1212675 0,0.2425351 0,0.3638026 0,0.2237631 -0.083032,0.4362289 -0.1141039,0.6559767 -0.023021,0.1628077 -0.021841,0.3201334 -0.021841,0.4829093 0,0.055019 0.078047,-0.027042 0.089188,-0.032613 0.020328,-0.010165 0.044097,-0.011025 0.066146,-0.016536 0.077185,-0.019296 0.1221399,-0.073786 0.1984376,-0.099219 0.027711,-0.00924 0.2406451,-0.060712 0.2480468,-0.049609 0.00967,0.014505 0.00967,0.033588 0.016536,0.049609 0.00971,0.022659 0.028794,0.041869 0.033073,0.066146 0.020743,0.1176917 0,0.302041 0,0.4299461 0,0.073773 0.019222,0.2138453 0,0.2811198 C 9.827553,8.1689741 9.767821,8.2481549 9.7244313,8.346159 9.7101223,8.378475 9.7100963,8.417035 9.6910093,8.4467795 9.6343993,8.5349975 9.3249005,8.738748 9.2159152,8.7871861 c -0.042048,0.018687 -0.1034846,0.042052 -0.1488281,0.049609 -0.016312,0.00272 -0.033921,-0.00523 -0.049609,0 -0.018854,0.00628 -0.031833,0.024186 -0.049609,0.033073 -0.015592,0.00779 -0.035664,0.00608 -0.049609,0.016537 -0.00986,0.0074 -0.00597,0.026731 -0.016536,0.033073 -0.047318,0.02839 -0.098676,0.010269 -0.1488281,0.016537 -0.0365,0.00456 -0.085631,0.036699 -0.1157552,0.049609 -0.0805,0.0345 -0.1642139,0.052173 -0.2480469,0.066146 -0.053255,0.00888 -0.094081,0.040485 -0.1488281,0.049609 -0.09454,0.015756 -0.2047516,-0.023225 -0.2976563,0 -0.059607,0.014901 -0.120854,0.020862 -0.181901,0.033073 -0.012086,0.00241 -0.020915,0.01451 -0.033073,0.016536 -0.021749,0.00362 -0.044622,-0.00478 -0.066146,0 -0.056178,0.012483 -0.1095343,0.035652 -0.1653646,0.049609 -0.067352,0.016838 -0.1275064,0.082682 -0.1982356,0.082682"
         id="path6795" />
      <path
         style="fill:#ff0000;stroke:#000000;stroke-width:0.264583"
         d="M 1.8563356,11.705898 C 1.805,11.585822 1.7053776,11.608137 1.627081,11.542889 c -0.095518,-0.0796 -0.3877543,-0.288075 -0.5291667,-0.23151 -0.065196,0.02608 -0.11334627,0.08894 -0.1653646,0.132292 -0.0228015,0.019 -0.0486151,0.02624 -0.0661458,0.04961 -0.125452,0.167269 0.0457535,-0.05972 -0.0496094,0.09922 -0.008021,0.01337 -0.0250516,0.0197 -0.0330729,0.03307 -0.0336745,0.05612 -0.0502795,0.134994 -0.0659349,0.198016 -0.007703,0.03101 0.007749,0.06779 0,0.09879 -0.0174752,0.0699 -0.0954972,0.08151 -0.0661458,0.197817 0.004212,0.01669 0.0926534,0.06352 0.0992188,0.06615 0.0307074,0.01228 0.0664012,-0.0041 0.0992188,0 0.0774145,0.0097 0.1544803,0.02023 0.2315105,0.03307 0.053126,0.0089 0.098727,-0.0065 0.1488281,-0.01654 0.087319,-0.01746 0.1906974,0 0.280708,0 0.010848,0 0.038504,0.0048 0.048148,0 0.025134,-0.01245 0.01811,-0.05068 0.029713,-0.06228 0.00867,-0.0087 0.025215,-0.007 0.032872,-0.01654 0.00508,-0.0064 0.1240724,-0.244137 0.1320858,-0.26417 0.00647,-0.01619 0.013118,-0.03252 0.016536,-0.04961 0.00216,-0.01081 -0.007,-0.02456 0,-0.03307 0.023632,-0.02873 0.057237,-0.04754 0.085856,-0.07131 z"
         id="path6797" />
      <path
         style="fill:#ff0000;stroke:#000000;stroke-width:0.264583"
         d="m 4.5951289,12.191875 c 0.058475,-0.07959 0.025694,-0.217281 0.099219,-0.290806 0.0634,-0.0634 0.2016241,-0.04941 0.2807121,-0.04941 0.1339019,0 0.2806332,0.02683 0.3964622,0.09922 0.1858322,0.116145 -0.013991,-0.0022 0.099219,0.08268 0.034956,0.02622 0.061784,0.04116 0.082682,0.08268 0.00474,0.0094 -0.00484,0.02226 0,0.03162 0.026188,0.05071 0.016338,0.119765 0.016338,0.180665 0,0.04485 -0.01601,0.131765 -0.049609,0.165364 -0.014052,0.01405 -0.035556,0.01902 -0.049609,0.03307 -0.034585,0.03458 -0.033098,0.07443 -0.082682,0.09922 -0.044432,0.02222 -0.440967,0.03085 -0.499066,0.01633 -0.079463,-0.01987 -0.1653046,-0.0496 -0.2480469,-0.06615 -0.044444,-0.0089 -0.088748,-0.02219 -0.1322917,-0.03307 -0.031206,-0.0078 -0.098437,0.0097 -0.098437,-0.0331"
         id="path6799" />
    </g>
  </g>
</svg>
