<?xml version="1.0" encoding="UTF-8" standalone="no"?>
<!-- Created with Inkscape (http://www.inkscape.org/) -->

<svg
   width="48"
   height="48"
   viewBox="0 0 12.7 12.7"
   version="1.1"
   id="svg7452"
   inkscape:version="1.2.2 (b0a8486541, 2022-12-01)"
   sodipodi:docname="bloodSplatter.svg"
   xmlns:inkscape="http://www.inkscape.org/namespaces/inkscape"
   xmlns:sodipodi="http://sodipodi.sourceforge.net/DTD/sodipodi-0.dtd"
   xmlns="http://www.w3.org/2000/svg"
   xmlns:svg="http://www.w3.org/2000/svg">
  <sodipodi:namedview
     id="namedview7454"
     pagecolor="#ffffff"
     bordercolor="#999999"
     borderopacity="1"
     inkscape:showpageshadow="0"
     inkscape:pageopacity="0"
     inkscape:pagecheckerboard="0"
     inkscape:deskcolor="#d1d1d1"
     inkscape:document-units="px"
     showgrid="false"
     inkscape:lockguides="false"
     inkscape:zoom="10.636487"
     inkscape:cx="29.756064"
     inkscape:cy="28.90992"
     inkscape:window-width="1918"
     inkscape:window-height="1036"
     inkscape:window-x="0"
     inkscape:window-y="18"
     inkscape:window-maximized="1"
     inkscape:current-layer="layer1">
    <sodipodi:guide
       position="0,12.7"
       orientation="0,48"
       id="guide7456"
       inkscape:locked="false" />
    <sodipodi:guide
       position="12.7,12.7"
       orientation="48,0"
       id="guide7458"
       inkscape:locked="false" />
    <sodipodi:guide
       position="12.7,0"
       orientation="0,-48"
       id="guide7460"
       inkscape:locked="false" />
    <sodipodi:guide
       position="0,0"
       orientation="-48,0"
       id="guide7462"
       inkscape:locked="false" />
  </sodipodi:namedview>
  <defs
     id="defs7449">
    <filter
       style="color-interpolation-filters:sRGB;"
       inkscape:label="Blur"
       id="filter8201"
       x="-0.11335439"
       y="-0.077203792"
       width="1.2267088"
       height="1.1544076">
      <feGaussianBlur
         stdDeviation="0.51 0.31"
         result="blur"
         id="feGaussianBlur8199" />
    </filter>
    <filter
       style="color-interpolation-filters:sRGB;"
       inkscape:label="Blur"
       id="filter8253"
       x="-0.046847563"
       y="-0.023951466"
       width="1.0936951"
       height="1.0479029">
      <feGaussianBlur
         stdDeviation="0.16 0.11"
         result="blur"
         id="feGaussianBlur8251" />
    </filter>
    <filter
       style="color-interpolation-filters:sRGB;"
       inkscape:label="Blur"
       id="filter9568"
       x="-0.65153993"
       y="-0.27727887"
       width="2.3030799"
       height="1.5545577">
      <feGaussianBlur
         stdDeviation="1.66 0.71"
         result="fbSourceGraphic"
         id="feGaussianBlur9566" />
      <feColorMatrix
         result="fbSourceGraphicAlpha"
         in="fbSourceGraphic"
         values="0 0 0 -1 0 0 0 0 -1 0 0 0 0 -1 0 0 0 0 1 0"
         id="feColorMatrix9570" />
      <feGaussianBlur
         id="feGaussianBlur9572"
         stdDeviation="1.66 0.71"
         result="blur"
         in="fbSourceGraphic" />
    </filter>
    <filter
       style="color-interpolation-filters:sRGB;"
       inkscape:label="Blur"
       id="filter9608"
       x="-0.023890617"
       y="-0.043055432"
       width="1.0477812"
       height="1.0861109">
      <feGaussianBlur
         stdDeviation="0.06 0.11"
         result="fbSourceGraphic"
         id="feGaussianBlur9606" />
      <feColorMatrix
         result="fbSourceGraphicAlpha"
         in="fbSourceGraphic"
         values="0 0 0 -1 0 0 0 0 -1 0 0 0 0 -1 0 0 0 0 1 0"
         id="feColorMatrix9614" />
      <feGaussianBlur
         id="feGaussianBlur9616"
         stdDeviation="0.06 0.11"
         result="blur"
         in="fbSourceGraphic" />
    </filter>
  </defs>
  <g
     inkscape:label="Layer 1"
     inkscape:groupmode="layer"
     id="layer1">
    <g
       id="g9364"
       transform="translate(-0.36214118,0.49750133)"
       style="filter:url(#filter9568)">
      <path
         style="fill:#ff0000;stroke:none;stroke-width:0.264583"
         id="path8448"
         d="m 4.3831429,-0.27262884 c 0.091563,0.1384778 0.1031439,0.3143804 0.1079729,0.4760356 0,0 3.4452912,1.71952274 3.4452912,1.71952274 v 0 C 7.915312,1.7639268 7.901335,1.600549 7.948313,1.4444723 c 0,0 -3.5651692,-1.71710114 -3.5651701,-1.71710114 z" />
      <path
         style="fill:#ff0000;stroke:none;stroke-width:0.264583"
         id="path8450"
         d="m 8.8423614,9.3998841 c 0.085958,0.1105089 0.1511834,0.235242 0.211383,0.3611238 0,0 3.5198286,1.5935521 3.5198286,1.5935521 v 0 c -0.03837,-0.07456 -0.07444,-0.148609 -0.106424,-0.226144 -0.008,-0.01945 -0.0179,-0.03825 -0.02395,-0.05841 -0.0043,-0.01424 -0.0046,-0.02939 -0.0068,-0.04409 0,0 -3.5939936,-1.6260363 -3.5939936,-1.6260363 z" />
      <path
         style="fill:#ff0000;stroke:none;stroke-width:0.264583"
         id="path8452"
         d="m 1.3462806,5.7086091 c 0.054329,0.1773275 0.068607,0.3095694 0.1881333,0.4691404 0.1330939,0.1776844 0.2378248,0.2240566 0.4249307,0.3531217 1.1058637,0.6157378 2.2016102,1.2500081 3.317591,1.847214 0.092899,0.049714 0.2017294,0.060945 0.3029307,0.090272 0.2096135,0.060743 0.4200419,0.1186373 0.6299946,0.1781969 0,0 -2.7923667,-2.140992 -2.7923667,-2.140992 v 0 C 3.1770514,6.447896 3.1067312,6.4380501 2.8630272,6.3468212 1.8503915,5.9677476 -0.19977285,4.6199318 5.2964309,7.8119096 5.0571949,7.7110163 5.1740624,7.7703872 4.9827819,7.6572988 4.9580777,7.6426938 4.928732,7.6342139 4.9083826,7.613978 4.8718865,7.5776872 4.8728187,7.5120002 4.8834668,7.4668945 c 0,0 -3.5371851,-1.7582854 -3.5371851,-1.7582854 z" />
      <path
         style="fill:#ff0000;stroke:none;stroke-width:0.264583"
         id="path8454"
         d="M 8.8197512,7.1996143 C 8.8578711,7.0743722 8.9660198,7.0021013 9.0541795,6.9143305 9.1383654,6.8305158 9.1577194,6.8015341 9.2322631,6.7093885 9.365312,6.4950228 9.4088042,6.2959185 9.3679298,6.0443829 9.3435432,5.8943159 9.297892,5.7819053 9.2485985,5.6394992 9.1896678,5.4528264 9.1023839,5.2757328 9.0494072,5.0870925 9.0324606,5.0267501 9.0201461,4.9652009 9.0050617,4.9043663 c 0.00905,-0.035529 0.018108,-0.071057 0.027162,-0.1065853 0,0 -3.2598816,-1.8352085 -3.2598816,-1.8352085 v 0 c -0.032866,0.059603 -0.065733,0.1192053 -0.098599,0.1788078 -0.021164,0.063945 -0.055951,0.1249021 -0.063493,0.1918351 -0.00539,0.047861 0.014444,0.095367 0.025863,0.1421577 0.053462,0.219098 0.1646549,0.4161488 0.2706489,0.6130023 0.075626,0.1752745 0.1907249,0.3955796 0.1064464,0.5900184 -0.011843,0.027322 -0.030819,0.050962 -0.046229,0.076444 -0.020688,0.025424 -0.039687,0.052321 -0.062064,0.076271 -0.1245807,0.1333349 -0.2850198,0.2295594 -0.4480232,0.3077416 0,0 3.3628611,2.060764 3.3628611,2.060764 z" />
      <path
         style="fill:#ff0000;stroke:none;stroke-width:0.264583"
         id="path8456"
         d="m 0.64948421,8.7843799 c 0.006182,0.020431 0.013889,0.040461 0.0185465,0.061293 0.007324,0.032759 0.0110675,0.066223 0.0173355,0.099201 0.0137345,0.07226 0.0363378,0.1810737 0.0561549,0.2500252 0.0405418,0.1410607 0.0484347,0.1459899 0.10836214,0.279696 0.0266969,0.045752 0.0501421,0.093564 0.0800907,0.1372571 0.0301618,0.044004 0.0538768,0.09794 0.0997676,0.125145 1.1108132,0.6585128 2.229196,1.3048058 3.3610331,1.9264888 0.060045,0.03298 0.1355048,0.02029 0.2031379,0.0312 0.2227975,0.03593 0.2378142,0.04016 0.4617316,0.08191 0.24482,0.04123 0.4803722,0.130231 0.7280629,0.05235 0.13584,-0.04271 0.1516673,-0.07293 0.262287,-0.161843 0.086071,-0.07664 0.1518366,-0.171953 0.2314122,-0.254505 0.075724,-0.07856 0.1920391,-0.181593 0.2810336,-0.245513 0.044422,-0.03191 0.089771,-0.06332 0.1389251,-0.0873 0.042277,-0.02063 0.089025,-0.03043 0.1335376,-0.04564 0.050108,-0.0041 0.1000647,-0.01374 0.1503241,-0.01238 0.1194255,0.0032 0.2557775,0.03964 0.3691946,0.06815 0.080751,0.0203 0.1613016,0.04144 0.241489,0.06386 1.2571371,0.35153 -0.7176244,-0.190212 0.7299557,0.205221 0.1429689,0.04523 0.2864928,0.08874 0.4289066,0.135691 0.443132,0.146082 0.3570864,0.125668 0.7789847,0.274437 0.1283245,0.04525 0.456491,0.158532 0.5989438,0.195182 0.08135,0.02093 0.164708,0.03309 0.247061,0.04964 0.08215,0.0015 0.164307,0.0029 0.246461,0.0043 0,0 -2.8870868,-2.1429249 -2.8870868,-2.1429249 v 0 C 7.6557772,9.8602702 7.5764188,9.8451831 7.4970607,9.8300963 7.3574547,9.7993443 7.2173938,9.7705926 7.078233,9.7378848 6.6315528,9.6328986 6.1893515,9.5077682 5.7522561,9.3684725 5.5977828,9.3134907 5.4431648,9.2589146 5.2888366,9.2035272 5.1473802,9.1527598 5.0072304,9.098289 4.864906,9.0500089 4.7324472,9.0050752 4.6010397,8.9550589 4.4646706,8.9239481 4.3192405,8.8907702 4.0918332,8.8898364 3.9446413,8.9187649 c -0.072143,0.014179 -0.1393817,0.046859 -0.2090725,0.070288 -0.060591,0.034857 -0.1247505,0.064139 -0.1817727,0.1045712 -0.047889,0.033956 -0.087624,0.078152 -0.131281,0.1174017 -0.045048,0.040501 -0.088333,0.083022 -0.1348329,0.121847 -0.12967,0.1082665 -0.2698737,0.2008862 -0.4249577,0.2687577 -0.029431,0.00791 -0.05834,0.018105 -0.088293,0.023722 C 2.6766883,9.6436751 2.5775284,9.630192 2.479629,9.6228656 2.2658238,9.6068277 2.4086657,9.6223389 2.1657911,9.5893384 1.9845423,9.5510334 1.9000709,9.5402209 1.7220697,9.471406 1.6467937,9.4423042 1.4330555,9.3283137 1.5023825,9.3696313 c 1.0023622,0.5973911 2.015929,1.1758147 3.0198315,1.7706127 0.038065,0.02255 -0.083378,-0.03097 -0.121517,-0.0534 -0.034955,-0.02056 -0.064076,-0.04972 -0.096113,-0.07457 -0.084707,-0.109018 -0.186404,-0.24034 -0.1492774,-0.389741 0.00372,-0.01497 0.012364,-0.02826 0.018547,-0.04239 0,0 -3.5243685,-1.7957551 -3.5243685,-1.7957551 z" />
      <path
         style="fill:#ff0000;stroke:none;stroke-width:0.264583"
         id="path8458"
         d="m 12.436177,9.7469835 c -0.0072,-0.030365 -0.01822,-0.06007 -0.02155,-0.091095 -0.0125,-0.1164582 -1.23e-4,-0.2204275 0.02386,-0.3359793 0.05688,-0.2740401 0.167024,-0.5269719 0.273841,-0.7840766 0.04263,-0.114637 0.1398,-0.3546409 0.157639,-0.4818872 0.0314,-0.2240177 -0.02426,-0.5183542 -0.09059,-0.7335994 C 12.755917,7.244204 12.723997,7.1709271 12.696317,7.0962175 12.575886,6.8462775 12.469333,6.5904982 12.366335,6.3330393 12.242966,6.0246592 12.17753,5.8876701 12.096147,5.5524304 c -0.0364,-0.1499222 -0.05618,-0.3033951 -0.08427,-0.4550927 -0.03951,-0.4146515 -0.07497,-0.8311708 -0.07813,-1.2480494 -0.0024,-0.3204731 0.0218,-0.6414225 0.03886,-0.9612498 0.0016,-0.2184855 0.01534,-0.460064 -0.06645,-0.6688381 -0.06648,-0.1696845 -0.153273,-0.2724249 -0.25741,-0.4177903 0,0 -3.3377682,-1.41804313 -3.3377682,-1.41804313 v 0 c 0.089041,0.0904399 0.1963891,0.19109558 0.2699192,0.29658409 0.1321406,0.18957248 0.198188,0.41154054 0.2494841,0.63402214 0.018293,0.1012224 0.039684,0.2019335 0.054877,0.3036672 0.1012198,0.6777657 0.1140934,1.3655503 0.2145038,2.0434924 0.011269,0.1479428 0.026112,0.2956568 0.033804,0.4438285 0.012269,0.2363166 -0.00164,0.496234 0.040446,0.7321873 0.016391,0.091927 0.049567,0.1800765 0.076566,0.2694652 0.061827,0.2046951 0.088217,0.2717612 0.1582703,0.4687512 0.1060262,0.2463001 0.2369275,0.5125931 0.2569655,0.7842977 0.014454,0.1959878 -0.011499,0.256553 -0.04925,0.4526834 -0.029564,0.083706 -0.052631,0.1699985 -0.088693,0.2511168 -0.091549,0.2059286 -0.1559396,0.2811915 -0.2873806,0.4598898 -0.073131,0.099424 -0.145233,0.199663 -0.2212745,0.2968791 -0.019648,0.025117 -0.041516,0.048417 -0.062273,0.072625 0,0 3.4792444,1.8541264 3.4792444,1.8541264 z" />
      <path
         style="fill:#ff0000;stroke:none;stroke-width:0.264583"
         id="path8460"
         d="m 1.7638035,-0.20800188 c -0.1072542,0.0748 -0.2263294,0.13284687 -0.3256623,0.21890191 -0.023114,0.02002401 -0.044095,0.0423841 -0.066143,0.06357616 -0.021317,0.03346567 -0.047483,0.06429713 -0.06395,0.10039702 -0.077381,0.16964248 -0.066779,0.37766869 0.029346,0.53811148 0.032374,0.0540363 0.079862,0.0974381 0.1197922,0.14615721 0.054012,0.0494534 0.1056605,0.10161781 0.1620345,0.1483602 0.061863,0.051294 0.1230688,0.1045979 0.1922875,0.1454255 1.0959851,0.64645 2.1963031,1.2856409 3.301876,1.9155533 0.066115,0.03767 0.1402426,0.059187 0.2113912,0.08617 0.073809,0.027991 0.3405645,0.1185209 0.4196101,0.1455413 0.057183,0.021159 0.115492,0.039489 0.1715482,0.063473 0.044372,0.018984 0.086176,0.043484 0.1292635,0.065227 C 4.9729182,2.8226804 3.8945268,2.2271561 2.8283599,1.610259 c -0.016838,-0.00974 0.038428,-0.0061 0.057613,-0.00933 0.085161,-0.014336 0.056596,-0.032127 0.088218,0.04433 -0.00481,0.033084 -0.00524,0.067105 -0.01442,0.099251 -0.043419,0.1520683 -0.1753336,0.3215047 -0.272142,0.444619 0,0 3.2284351,1.9209625 3.2284351,1.9209625 v 0 C 5.9566285,4.0561788 6.066026,3.9123463 6.1029656,3.8569179 6.131253,3.8144724 6.1558465,3.7696774 6.1825657,3.7262278 6.3076729,3.5227825 6.2303389,3.6552795 6.3467275,3.4491212 6.387776,3.3532767 6.4524831,3.2251845 6.4552652,3.1181751 6.4563764,3.0758084 6.4557414,3.0179292 6.4193543,2.9962088 1.9158524,0.30832817 4.338586,1.4218203 2.8365541,1.0363516 2.6811701,0.98220974 2.6499051,0.97650768 2.4934831,0.89734353 2.4254115,0.86289292 2.227578,0.74762034 2.2934961,0.78603112 3.2638511,1.3514619 4.2367929,1.912448 5.20683,2.4784242 5.2608783,2.5099592 5.0947133,2.4224135 5.0415509,2.3894067 4.9981854,2.3624826 4.9591297,2.3291684 4.9179193,2.2990492 4.8875718,2.2752283 4.8572244,2.2514073 4.826877,2.2275864 4.803813,2.2188764 4.778566,2.2145504 4.757684,2.2014414 4.742658,2.1920114 4.733985,2.1750384 4.722136,2.1618364 c -0.0054,-0.011412 -0.00607,-0.026706 -0.016201,-0.034235 -0.00696,-0.00517 -0.017875,0.00928 -0.025694,0.00392 0.051718,-0.035273 0.1140241,-0.057979 0.1780964,-0.047838 0.013377,0.00212 0.094284,0.030888 0.1095232,0.036197 0,0 -3.204058,-2.32788438 -3.204058,-2.32788438 z" />
    </g>
    <g
       id="g9435"
       style="filter:url(#filter9608)">
      <ellipse
         style="fill:#ff0000;stroke:none;stroke-width:0.238386"
         id="path8462"
         cx="-1.5443168"
         cy="4.9387217"
         rx="0.14451723"
         ry="0.099426635"
         transform="scale(-1,1)" />
      <ellipse
         style="fill:#ff0000;stroke:none;stroke-width:0.238386"
         id="path8462-7"
         cx="-4.7511377"
         cy="5.7212653"
         rx="0.14451723"
         ry="0.099426635"
         transform="scale(-1,1)" />
      <ellipse
         style="fill:#ff0000;stroke:none;stroke-width:0.238386"
         id="path8462-8"
         cx="-3.2088838"
         cy="5.3481393"
         rx="0.14451723"
         ry="0.099426635"
         transform="scale(-1,1)" />
      <ellipse
         style="fill:#ff0000;stroke:none;stroke-width:0.238386"
         id="path8462-4"
         cx="-6.4426422"
         cy="2.213881"
         rx="0.14451723"
         ry="0.099426635"
         transform="scale(-1,1)" />
      <ellipse
         style="fill:#ff0000;stroke:none;stroke-width:0.238386"
         id="path8462-5"
         cx="-7.1391444"
         cy="7.2635198"
         rx="0.14451723"
         ry="0.099426635"
         transform="scale(-1,1)" />
      <ellipse
         style="fill:#ff0000;stroke:none;stroke-width:0.238386"
         id="path8462-0"
         cx="-2.4377565"
         cy="8.3580227"
         rx="0.14451723"
         ry="0.099426635"
         transform="scale(-1,1)" />
      <ellipse
         style="fill:#ff0000;stroke:none;stroke-width:0.238386"
         id="path8462-3"
         cx="-1.3681287"
         cy="11.467406"
         rx="0.14451723"
         ry="0.099426635"
         transform="scale(-1,1)" />
      <ellipse
         style="fill:#ff0000;stroke:none;stroke-width:0.238386"
         id="path8462-6"
         cx="-0.69650185"
         cy="12.163908"
         rx="0.14451723"
         ry="0.099426635"
         transform="scale(-1,1)" />
      <ellipse
         style="fill:#ff0000;stroke:none;stroke-width:0.238386"
         id="path8462-1"
         cx="-4.5521374"
         cy="12.238533"
         rx="0.14451723"
         ry="0.099426635"
         transform="scale(-1,1)" />
      <ellipse
         style="fill:#ff0000;stroke:none;stroke-width:0.238386"
         id="path8462-06"
         cx="-7.4127703"
         cy="12.288283"
         rx="0.14451723"
         ry="0.099426635"
         transform="scale(-1,1)" />
      <ellipse
         style="fill:#ff0000;stroke:none;stroke-width:0.238386"
         id="path8462-32"
         cx="-11.069405"
         cy="12.213658"
         rx="0.14451723"
         ry="0.099426635"
         transform="scale(-1,1)" />
      <ellipse
         style="fill:#ff0000;stroke:none;stroke-width:0.238386"
         id="path8462-061"
         cx="-9.7012758"
         cy="9.7759018"
         rx="0.14451723"
         ry="0.099426635"
         transform="scale(-1,1)" />
      <ellipse
         style="fill:#ff0000;stroke:none;stroke-width:0.238386"
         id="path8462-55"
         cx="-7.2635198"
         cy="9.0296497"
         rx="0.14451723"
         ry="0.099426635"
         transform="scale(-1,1)" />
      <ellipse
         style="fill:#ff0000;stroke:none;stroke-width:0.238386"
         id="path8462-47"
         cx="-10.596779"
         cy="9.1042747"
         rx="0.14451723"
         ry="0.099426635"
         transform="scale(-1,1)" />
      <ellipse
         style="fill:#ff0000;stroke:none;stroke-width:0.238386"
         id="path8462-65"
         cx="-11.691281"
         cy="10.646529"
         rx="0.14451723"
         ry="0.099426635"
         transform="scale(-1,1)" />
      <ellipse
         style="fill:#ff0000;stroke:none;stroke-width:0.238386"
         id="path8462-69"
         cx="-7.6366458"
         cy="8.5072727"
         rx="0.14451723"
         ry="0.099426635"
         transform="scale(-1,1)" />
      <ellipse
         style="fill:#ff0000;stroke:none;stroke-width:0.238386"
         id="path8462-37"
         cx="-7.9848967"
         cy="7.9351463"
         rx="0.14451723"
         ry="0.099426635"
         transform="scale(-1,1)" />
      <ellipse
         style="fill:#ff0000;stroke:none;stroke-width:0.238386"
         id="path8462-45"
         cx="-7.9848967"
         cy="9.1540251"
         rx="0.14451723"
         ry="0.099426635"
         transform="scale(-1,1)" />
      <ellipse
         style="fill:#ff0000;stroke:none;stroke-width:0.238386"
         id="path8462-2"
         cx="-5.2237639"
         cy="7.0645189"
         rx="0.14451723"
         ry="0.099426635"
         transform="scale(-1,1)" />
      <ellipse
         style="fill:#ff0000;stroke:none;stroke-width:0.238386"
         id="path8462-54"
         cx="-5.2735143"
         cy="6.2187667"
         rx="0.14451723"
         ry="0.099426635"
         transform="scale(-1,1)" />
      <ellipse
         style="fill:#ff0000;stroke:none;stroke-width:0.238386"
         id="path8462-74"
         cx="-3.7810102"
         cy="5.7461405"
         rx="0.14451723"
         ry="0.099426635"
         transform="scale(-1,1)" />
      <ellipse
         style="fill:#ff0000;stroke:none;stroke-width:0.238386"
         id="path8462-43"
         cx="-4.0795112"
         cy="9.0296497"
         rx="0.14451723"
         ry="0.099426635"
         transform="scale(-1,1)" />
      <ellipse
         style="fill:#ff0000;stroke:none;stroke-width:0.238386"
         id="path8462-07"
         cx="-1.5422542"
         cy="7.9351463"
         rx="0.14451723"
         ry="0.099426635"
         transform="scale(-1,1)" />
      <ellipse
         style="fill:#ff0000;stroke:none;stroke-width:0.238386"
         id="path8462-86"
         cx="-2.3382564"
         cy="5.2983894"
         rx="0.14451723"
         ry="0.099426635"
         transform="scale(-1,1)" />
      <ellipse
         style="fill:#ff0000;stroke:none;stroke-width:0.238386"
         id="path8462-88"
         cx="-4.1790113"
         cy="5.5471401"
         rx="0.14451723"
         ry="0.099426635"
         transform="scale(-1,1)" />
      <ellipse
         style="fill:#ff0000;stroke:none;stroke-width:0.238386"
         id="path8462-431"
         cx="-1.3681287"
         cy="5.5720148"
         rx="0.14451723"
         ry="0.099426635"
         transform="scale(-1,1)" />
      <ellipse
         style="fill:#ff0000;stroke:none;stroke-width:0.238386"
         id="path8462-49"
         cx="-4.3033867"
         cy="4.3780117"
         rx="0.14451723"
         ry="0.099426635"
         transform="scale(-1,1)" />
      <ellipse
         style="fill:#ff0000;stroke:none;stroke-width:0.238386"
         id="path8462-20"
         cx="-4.9252634"
         cy="5.522265"
         rx="0.14451723"
         ry="0.099426635"
         transform="scale(-1,1)" />
      <ellipse
         style="fill:#ff0000;stroke:none;stroke-width:0.238386"
         id="path8462-68"
         cx="-2.3631313"
         cy="2.7362573"
         rx="0.14451723"
         ry="0.099426635"
         transform="scale(-1,1)" />
      <ellipse
         style="fill:#ff0000;stroke:none;stroke-width:0.238386"
         id="path8462-9"
         cx="-1.3183786"
         cy="0.74625206"
         rx="0.14451723"
         ry="0.099426635"
         transform="scale(-1,1)" />
      <ellipse
         style="fill:#ff0000;stroke:none;stroke-width:0.238386"
         id="path8462-26"
         cx="-0.52237636"
         cy="1.9651303"
         rx="0.14451723"
         ry="0.099426635"
         transform="scale(-1,1)" />
      <ellipse
         style="fill:#ff0000;stroke:none;stroke-width:0.238386"
         id="path8462-64"
         cx="-5.0247636"
         cy="2.7113824"
         rx="0.14451723"
         ry="0.099426635"
         transform="scale(-1,1)" />
      <ellipse
         style="fill:#ff0000;stroke:none;stroke-width:0.238386"
         id="path8462-95"
         cx="-5.3481393"
         cy="1.6666294"
         rx="0.14451723"
         ry="0.099426635"
         transform="scale(-1,1)" />
      <ellipse
         style="fill:#ff0000;stroke:none;stroke-width:0.238386"
         id="path8462-04"
         cx="-7.810771"
         cy="1.3930037"
         rx="0.14451723"
         ry="0.099426635"
         transform="scale(-1,1)" />
      <ellipse
         style="fill:#ff0000;stroke:none;stroke-width:0.238386"
         id="path8462-87"
         cx="-7.2635198"
         cy="3.0596333"
         rx="0.14451723"
         ry="0.099426635"
         transform="scale(-1,1)" />
      <ellipse
         style="fill:#ff0000;stroke:none;stroke-width:0.238386"
         id="path8462-17"
         cx="-8.407773"
         cy="3.5571346"
         rx="0.14451723"
         ry="0.099426635"
         transform="scale(-1,1)" />
      <ellipse
         style="fill:#ff0000;stroke:none;stroke-width:0.238386"
         id="path8462-27"
         cx="-6.5918927"
         cy="0.22387555"
         rx="0.14451723"
         ry="0.099426635"
         transform="scale(-1,1)" />
      <ellipse
         style="fill:#ff0000;stroke:none;stroke-width:0.238386"
         id="path8462-22"
         cx="-7.0893941"
         cy="1.0945029"
         rx="0.14451723"
         ry="0.099426635"
         transform="scale(-1,1)" />
      <ellipse
         style="fill:#ff0000;stroke:none;stroke-width:0.238386"
         id="path8462-61"
         cx="-9.1788998"
         cy="2.0148804"
         rx="0.14451723"
         ry="0.099426635"
         transform="scale(-1,1)" />
      <ellipse
         style="fill:#ff0000;stroke:none;stroke-width:0.238386"
         id="path8462-0615"
         cx="-11.293281"
         cy="0.94525254"
         rx="0.14451723"
         ry="0.099426635"
         transform="scale(-1,1)" />
      <ellipse
         style="fill:#ff0000;stroke:none;stroke-width:0.238386"
         id="path8462-94"
         cx="-12.089283"
         cy="2.4626317"
         rx="0.14451723"
         ry="0.099426635"
         transform="scale(-1,1)" />
      <ellipse
         style="fill:#ff0000;stroke:none;stroke-width:0.238386"
         id="path8462-90"
         cx="-8.1590223"
         cy="5.6715155"
         rx="0.14451723"
         ry="0.099426635"
         transform="scale(-1,1)" />
      <ellipse
         style="fill:#ff0000;stroke:none;stroke-width:0.238386"
         id="path8462-91"
         cx="-7.0396438"
         cy="7.0893941"
         rx="0.14451723"
         ry="0.099426635"
         transform="scale(-1,1)" />
      <ellipse
         style="fill:#ff0000;stroke:none;stroke-width:0.238386"
         id="path8462-77"
         cx="-8.1590223"
         cy="8.8306484"
         rx="0.14451723"
         ry="0.099426635"
         transform="scale(-1,1)" />
      <ellipse
         style="fill:#ff0000;stroke:none;stroke-width:0.238386"
         id="path8462-11"
         cx="-4.4028869"
         cy="6.5602269"
         rx="0.14451723"
         ry="0.099426635"
         transform="scale(-1,1)" />
      <ellipse
         style="fill:#ff0000;stroke:none;stroke-width:0.238386"
         id="path8462-59"
         cx="-3.5820096"
         cy="9.1788998"
         rx="0.14451723"
         ry="0.099426635"
         transform="scale(-1,1)" />
      <ellipse
         style="fill:#ff0000;stroke:none;stroke-width:0.238386"
         id="path8462-776"
         cx="-3.7810102"
         cy="9.6266508"
         rx="0.14451723"
         ry="0.099426635"
         transform="scale(-1,1)" />
      <ellipse
         style="fill:#ff0000;stroke:none;stroke-width:0.238386"
         id="path8462-656"
         cx="-1.2437533"
         cy="5.7710156"
         rx="0.14451723"
         ry="0.099426635"
         transform="scale(-1,1)" />
      <ellipse
         style="fill:#ff0000;stroke:none;stroke-width:0.238386"
         id="path8462-39"
         cx="-2.8357577"
         cy="8.333148"
         rx="0.14451723"
         ry="0.099426635"
         transform="scale(-1,1)" />
      <ellipse
         style="fill:#ff0000;stroke:none;stroke-width:0.238386"
         id="path8462-48"
         cx="-1.4427539"
         cy="8.9550238"
         rx="0.14451723"
         ry="0.099426635"
         transform="scale(-1,1)" />
      <ellipse
         style="fill:#ff0000;stroke:none;stroke-width:0.238386"
         id="path8462-12"
         cx="-2.1890059"
         cy="9.7012758"
         rx="0.14451723"
         ry="0.099426635"
         transform="scale(-1,1)" />
      <ellipse
         style="fill:#ff0000;stroke:none;stroke-width:0.238386"
         id="path8462-93"
         cx="-5.2735143"
         cy="9.1042747"
         rx="0.14451723"
         ry="0.099426635"
         transform="scale(-1,1)" />
      <ellipse
         style="fill:#ff0000;stroke:none;stroke-width:0.238386"
         id="path8462-908"
         cx="-6.641643"
         cy="9.0793991"
         rx="0.14451723"
         ry="0.099426635"
         transform="scale(-1,1)" />
      <ellipse
         style="fill:#ff0000;stroke:none;stroke-width:0.238386"
         id="path8462-85"
         cx="-7.9351463"
         cy="10.298278"
         rx="0.14451723"
         ry="0.099426635"
         transform="scale(-1,1)" />
      <ellipse
         style="fill:#ff0000;stroke:none;stroke-width:0.238386"
         id="path8462-09"
         cx="-10.621654"
         cy="10.223653"
         rx="0.14451723"
         ry="0.099426635"
         transform="scale(-1,1)" />
      <ellipse
         style="fill:#ff0000;stroke:none;stroke-width:0.238386"
         id="path8462-63"
         cx="-11.19378"
         cy="10.571903"
         rx="0.14451723"
         ry="0.099426635"
         transform="scale(-1,1)" />
      <ellipse
         style="fill:#ff0000;stroke:none;stroke-width:0.238386"
         id="path8462-856"
         cx="-10.447528"
         cy="11.666407"
         rx="0.14451723"
         ry="0.099426635"
         transform="scale(-1,1)" />
      <ellipse
         style="fill:#ff0000;stroke:none;stroke-width:0.238386"
         id="path8462-115"
         cx="-6.1192665"
         cy="11.04453"
         rx="0.14451723"
         ry="0.099426635"
         transform="scale(-1,1)" />
      <ellipse
         style="fill:#ff0000;stroke:none;stroke-width:0.238386"
         id="path8462-98"
         cx="-3.4078841"
         cy="10.372903"
         rx="0.14451723"
         ry="0.099426635"
         transform="scale(-1,1)" />
      <ellipse
         style="fill:#ff0000;stroke:none;stroke-width:0.238386"
         id="path8462-481"
         cx="-1.9900054"
         cy="6.8903937"
         rx="0.14451723"
         ry="0.099426635"
         transform="scale(-1,1)" />
      <ellipse
         style="fill:#ff0000;stroke:none;stroke-width:0.238386"
         id="path8462-03"
         cx="-1.0945029"
         cy="4.8755131"
         rx="0.14451723"
         ry="0.099426635"
         transform="scale(-1,1)" />
      <ellipse
         style="fill:#ff0000;stroke:none;stroke-width:0.238386"
         id="path8462-044"
         cx="-0.746252"
         cy="4.0297608"
         rx="0.14451723"
         ry="0.099426635"
         transform="scale(-1,1)" />
      <ellipse
         style="fill:#ff0000;stroke:none;stroke-width:0.238386"
         id="path8462-44"
         cx="-0.64675176"
         cy="3.5820096"
         rx="0.14451723"
         ry="0.099426635"
         transform="scale(-1,1)" />
      <ellipse
         style="fill:#ff0000;stroke:none;stroke-width:0.238386"
         id="path8462-76"
         cx="-2.2885063"
         cy="4.0048857"
         rx="0.14451723"
         ry="0.099426635"
         transform="scale(-1,1)" />
      <ellipse
         style="fill:#ff0000;stroke:none;stroke-width:0.238386"
         id="path8462-31"
         cx="-3.4576344"
         cy="4.1541362"
         rx="0.14451723"
         ry="0.099426635"
         transform="scale(-1,1)" />
      <ellipse
         style="fill:#ff0000;stroke:none;stroke-width:0.238386"
         id="path8462-75"
         cx="-1.0447528"
         cy="1.5920043"
         rx="0.14451723"
         ry="0.099426635"
         transform="scale(-1,1)" />
      <ellipse
         style="fill:#ff0000;stroke:none;stroke-width:0.238386"
         id="path8462-96"
         cx="-0.32337588"
         cy="0.74625206"
         rx="0.14451723"
         ry="0.099426635"
         transform="scale(-1,1)" />
      <ellipse
         style="fill:#ff0000;stroke:none;stroke-width:0.238386"
         id="path8462-21"
         cx="-2.3880064"
         cy="2.1890059"
         rx="0.14451723"
         ry="0.099426635"
         transform="scale(-1,1)" />
    </g>
  </g>
</svg>
