<?xml version="1.0" encoding="UTF-8" standalone="no"?>
<!-- Created with Inkscape (http://www.inkscape.org/) -->

<svg
   width="48"
   height="48"
   viewBox="0 0 12.7 12.7"
   version="1.1"
   id="svg6011"
   inkscape:version="1.2.2 (b0a8486541, 2022-12-01)"
   sodipodi:docname="bird3.svg"
   xmlns:inkscape="http://www.inkscape.org/namespaces/inkscape"
   xmlns:sodipodi="http://sodipodi.sourceforge.net/DTD/sodipodi-0.dtd"
   xmlns="http://www.w3.org/2000/svg"
   xmlns:svg="http://www.w3.org/2000/svg">
  <sodipodi:namedview
     id="namedview6013"
     pagecolor="#ffffff"
     bordercolor="#999999"
     borderopacity="1"
     inkscape:showpageshadow="0"
     inkscape:pageopacity="0"
     inkscape:pagecheckerboard="0"
     inkscape:deskcolor="#d1d1d1"
     inkscape:document-units="px"
     showgrid="false"
     inkscape:zoom="16"
     inkscape:cx="27.78125"
     inkscape:cy="24.65625"
     inkscape:window-width="1918"
     inkscape:window-height="1036"
     inkscape:window-x="0"
     inkscape:window-y="18"
     inkscape:window-maximized="1"
     inkscape:current-layer="layer1" />
  <defs
     id="defs6008" />
  <g
     inkscape:label="Layer 1"
     inkscape:groupmode="layer"
     id="layer1">
    <path
       style="fill:#ff0000;stroke:#000000;stroke-width:0.303758"
       d="m 5.6317321,9.5139021 c -0.032338,-0.01449 -0.067251,-0.0213 -0.097015,-0.043469 C 5.4623405,9.4165272 5.4245078,9.3079262 5.3534339,9.251732 5.0266719,8.9933797 5.4487842,9.3452877 5.0964112,9.0321302 5.0281544,8.9714697 4.9493931,8.9325539 4.8834329,8.8675721 4.8511021,8.8357222 4.8290302,8.7882982 4.7980159,8.75422 4.7007348,8.6473299 4.595709,8.5534846 4.4955373,8.4514049 4.3224982,8.2750694 4.3091402,8.285995 4.1456449,8.0425737 4.0673455,7.9259965 4.0336983,7.76594 3.9878368,7.626087 3.9504282,7.5120105 3.9040311,7.4022144 3.8768412,7.2831517 3.8336025,7.0938107 3.8435769,6.8873053 3.8435769,6.6912367 c 0,-0.1166741 -0.01287,-0.2564912 0,-0.3717913 0.014719,-0.1318741 0.037757,-0.2632044 0.073094,-0.3879975 0.01142,-0.040328 0.037727,-0.071007 0.050078,-0.1108484 0.016422,-0.052977 0.020046,-0.1117861 0.035515,-0.1652643 0.061184,-0.2114981 0.1741497,-0.3679453 0.2836704,-0.5341845 0.0182,-0.027627 0.033165,-0.058727 0.049747,-0.08809 0.022548,-0.03739 0.043682,-0.076362 0.067645,-0.1121696 0.1158994,-0.1731845 0.2585249,-0.2378191 0.4124026,-0.3285757 0.033675,-0.019862 0.064178,-0.049163 0.098882,-0.06561 0.1410537,-0.066851 0.2553087,-0.072746 0.4014657,-0.08748 0.1657378,-0.016709 0.3168515,-0.032438 0.4874653,-0.022339 0.1711024,0.010129 0.164905,0.028707 0.325177,0.076893 0.6936345,0.2085324 0.020248,-0.019939 0.6588851,0.2340455 1.122942,0.4465891 -0.057241,-0.058437 0.6290576,0.2676667 0.1019962,0.048466 0.14529,0.034841 0.2341048,0.1211443 0.080408,0.078132 0.1596105,0.1636498 0.2195629,0.2692952 0.034227,0.060312 0.051449,0.1350969 0.083045,0.1978846 0.056785,0.1128455 0.059541,0.084837 0.1164113,0.2206817 0.056611,0.1352253 0.043777,0.8500041 0.03296,1.0079004 -0.015637,0.2282389 -0.017532,0.2345169 -0.065921,0.4592716 -0.046091,0.2140786 0.00337,0.012459 -0.01648,0.1968307 -0.016041,0.1489968 -0.088513,0.3032326 -0.1318423,0.4374015 -0.00892,0.027627 -0.00448,0.061991 -0.01648,0.08748 -0.01647,0.034971 -0.046508,0.055278 -0.065921,0.08748 -1.338e-4,2.218e-4 -0.1067388,0.2756644 -0.115362,0.306181 -0.00795,0.028144 -0.00635,0.060596 -0.01648,0.08748 -0.00695,0.018441 -0.023636,0.027245 -0.03296,0.043741 -0.07666,0.1356384 -0.1064741,0.3202841 -0.1812837,0.45927 -0.04848,0.090069 -0.1161735,0.088468 -0.1648028,0.1530906 -0.053507,0.071103 -0.054131,0.158552 -0.1323163,0.1974604 -0.037169,0.018497 -0.2109575,0.043884 -0.2240972,0.046355 -0.1856158,0.0349 -0.3680756,0.088643 -0.5559747,0.088643 -0.087416,0 -0.4714866,-0.058907 -0.526957,-0.021869 -0.047226,0.031532 -0.078779,0.00325 -0.1310084,0.021869 -0.032415,0.01156 -0.059562,0.050819 -0.093127,0.050819 -0.00412,0 -0.1316351,-0.044128 -0.1641179,-0.072689 -0.011582,-0.010184 0.00279,-0.037253 0,-0.055315 -0.00349,-0.022583 -0.010988,-0.043741 -0.01648,-0.06561"
       id="path6015" />
    <path
       style="fill:#ffff00;stroke:#000000;stroke-width:0.303758"
       d="M 7.4643494,4.7773811 C 7.598676,4.6491161 7.7532195,4.5407083 7.871109,4.3842639 c 0.014004,-0.018588 0.018953,-0.047024 0.03296,-0.06561 0.030339,-0.040261 0.068543,-0.069091 0.098882,-0.10935 0.00389,-0.00516 -0.00458,-0.017825 0,-0.021869 0.030663,-0.027125 0.06822,-0.038484 0.098882,-0.06561 0.04214,-0.037282 0.076908,-0.08748 0.115362,-0.1312207 C 8.3286922,3.8637795 8.4398599,3.7103036 8.5797615,3.640683 8.6660105,3.597761 8.7693679,3.618814 8.8599266,3.618814 c 0.080167,0 0.1587376,-0.013577 0.230724,0.043741 0.027467,0.021869 0.059752,0.035552 0.082401,0.06561 0.080377,0.1066639 0.056772,0.3276781 0.03296,0.4540742 -0.00608,0.032298 -0.017722,0.1642006 -0.049441,0.1749606 -0.00295,0.00101 0.015722,-0.046933 0.045234,-0.076307 0.068591,-0.068268 0.135446,-0.1226759 0.214244,-0.1749606 0.081173,-0.05386 0.4181991,-0.094585 0.5273694,-0.06561 0.051103,0.013563 0.096916,0.054241 0.148323,0.06561 0.01626,0.0036 0.0347,-0.00978 0.04944,0 0.05176,0.034347 0.1176,0.1575468 0.148323,0.2187008 0.04195,0.083492 0.07447,0.2607823 0.04923,0.3612145 -0.0063,0.024935 -0.0267,0.040674 -0.03295,0.06561 -0.0052,0.020747 0.0045,0.044582 0,0.06561 -0.01256,0.058324 -0.04452,0.161897 -0.06593,0.2187008 -0.009,0.023879 -0.143788,0.3162854 -0.131533,0.3233013 0.01043,0.00596 0.0143,-0.024274 0.02406,-0.031944 0.03171,-0.024907 0.06275,-0.05602 0.09888,-0.06561 0.04309,-0.01144 0.08807,0.00527 0.131843,0 0.105303,-0.012696 0.206496,-0.043741 0.313126,-0.043741 0.09709,0 0.05973,0.010303 0.147917,0.043741 0.05097,0.019326 0.09515,-0.00635 0.148322,0.021871 0.04182,0.022198 0.04516,0.057823 0.0824,0.08748 0.07826,0.062316 0.197585,0.1086399 0.230726,0.2405708 0.01254,0.049918 0.0058,0.3375382 0,0.3834867 -0.01854,0.1475868 -0.148325,0.363914 -0.148325,0.5000964 0,9.098e-4 0.0157,-0.024603 0.0439,-0.052642 0.04699,-0.046719 0.109941,-0.043741 0.164802,-0.043741 0.100814,0 -0.05729,0.00461 0.0824,-0.021869 0.03835,-0.00727 0.276217,-0.016326 0.313127,0 0.01879,0.00831 0.03105,0.033977 0.04944,0.043741 0.01021,0.00543 0.02254,-0.00461 0.03296,0 0.06117,0.027059 0.10107,0.078967 0.148323,0.1312208 0.0211,0.023336 0.04647,0.039877 0.06592,0.06561 0.03394,0.044896 0.04923,0.3170866 0.04923,0.3925535 0,0.1245407 -0.08899,0.4006487 -0.164804,0.4811417 -0.01357,0.0144 -0.03588,0.00748 -0.04944,0.021869 -0.01547,0.016418 -0.02008,0.045654 -0.03295,0.06561 -0.05318,0.08233 -0.129778,0.2002691 -0.197764,0.2624409 -0.05003,0.04575 0.03944,-0.091639 -0.0418,0.014262 -0.0037,0.00487 0.0029,0.015053 0,0.020838 -0.0051,0.010129 -0.09506,0.109305 -0.101129,0.1133612 -0.0049,0.00321 -0.01244,-0.00509 -0.01628,0 -0.01358,0.018017 0.0041,0.015904 -0.03163,0.043467 -0.0049,0.00374 0.005,0.018878 0,0.02229 -0.0046,0.00315 -0.01188,-0.00495 -0.01542,0 -0.01857,0.026006 0.0076,0.3633838 0,0.4335755 -0.0017,0.016139 -0.01258,0.028281 -0.01649,0.043741 -0.0066,0.026171 0.0115,0.080796 0,0.1035903 -0.05852,0.1160104 -0.114759,0.239572 -0.181283,0.3499213 -0.04669,0.077453 -0.07171,0.2025946 -0.131842,0.2624409 -0.02064,0.020547 -0.07848,0.056584 -0.09888,0.06561 -0.03194,0.01413 -0.37273,0.010422 -0.412006,0 -0.01205,-0.00319 -0.02105,-0.017916 -0.03296,-0.021869 -0.03366,-0.011175 -0.08105,0.029774 -0.08105,-0.028126"
       id="path6088" />
    <path
       style="fill:#ffff00;stroke:#000000;stroke-width:0.303758"
       d="M 4.8151311,4.3380388 C 4.8065796,4.0997166 4.7486178,3.809733 4.6008871,3.652897 4.4063978,3.4464203 4.6847752,3.7489825 4.5020053,3.5872867 4.482614,3.5701301 4.4712096,3.5402339 4.4525645,3.5216765 4.4341171,3.5033161 4.2544104,3.3680532 4.2533353,3.3672196 4.164307,3.2981985 4.0808223,3.1552206 3.9731703,3.1266488 c -0.016161,-0.00429 -0.033353,0.00474 -0.049441,0 -0.094339,-0.027821 -0.1848409,-0.084049 -0.280165,-0.10935 -0.032319,-0.00858 -0.066561,0.00858 -0.098881,0 C 3.5008513,3.0056598 3.4586223,2.9618148 3.412841,2.9516888 3.361645,2.9403678 3.1258379,2.8715318 3.0779029,2.9079478 3.0036909,2.9643288 2.9127381,3.0509618 2.8638663,3.148244 c -0.036876,0.0389 -0.027916,0.105483 -0.049441,0.1530906 -0.00799,0.01768 -0.024967,0.026059 -0.03296,0.043741 -0.016479,0.036448 -0.00374,0.1103234 -0.032961,0.1312207 -0.024165,0.017279 -0.096165,0 -0.1258423,0 -0.073179,0 -0.1464785,-0.0056 -0.2195351,0 -0.109365,0.00838 -0.2114179,0.09073 -0.3131254,0.1312208 C 2.0484291,3.624069 1.8904131,3.6437448 1.8592773,3.6512578 1.7838909,3.6694463 1.7195967,3.7465385 1.6615138,3.8043483 1.6232767,3.8424047 1.6202073,3.88657 1.5955924,3.9355691 1.4962559,4.133305 1.46375,4.1661084 1.46375,4.4167108 c 0,0.017153 -0.00491,0.082853 0,0.1083118 C 1.48551,4.63779 1.5871809,4.702958 1.529465,4.817364 1.486704,4.902127 1.389477,4.875307 1.3317015,4.882974 c -0.034571,0.00459 -0.064281,0.039566 -0.098882,0.043741 -0.043767,0.00527 -0.088075,-0.00527 -0.1318422,0 -0.0835,0.010078 -0.169833,0.092217 -0.19594149,0.1961574 -0.00519,0.020663 0.00518,0.044675 0,0.065344 -0.007726,0.030822 -0.026062,0.055971 -0.0327594,0.087213 -0.0109753,0.051201 -0.0125392,0.5237344 0,0.5896659 0.001902,0.01 0.0140236,0.012088 0.0164803,0.021869 0.00978,0.038933 0.006702,0.092288 0.0164803,0.1312208 0.0122306,0.048691 0.0482389,0.096029 0.0645985,0.1503028 0.0129034,0.042809 0.0121145,0.094335 0.0329606,0.1312207 0.012115,0.021435 0.041853,0.013534 0.049441,0.043741 0.00769,0.030607 0.015059,0.1073133 0.03296,0.1312208 0.00855,0.011413 0.023989,0.010184 0.032549,0.021597 0.037501,0.049975 0.041077,0.1838318 0.065716,0.2165285 0.00962,0.012762 0.061486,0.02349 0.049238,0.065342 -0.0035,0.011956 -0.019453,-0.00202 -0.029,0 -0.021707,0.00457 -0.042363,0.017019 -0.064253,0.019655 -0.099105,0.011942 -0.29352247,-0.050065 -0.35874367,0.04233 -4.4715e-4,6.298e-4 0.0246413,0.1137038 0.0157023,0.1475096 -0.0516124,0.1951916 0.0245558,-0.1078767 -0.0494409,0.063968 -0.0431559,0.1002223 -0.0444146,0.2795011 -0.0659211,0.3936614 -0.0294082,0.156104 -0.0896194,0.3088815 -0.0162802,0.4710888 0.0248779,0.055023 0.0765603,0.093847 0.0988818,0.1530905 0.0129697,0.034421 0.0885186,0.2718496 0.094207,0.2760407 0.0514697,0.037918 0.11624285,0.07615 0.17895767,0.08627 0.043626,0.00704 0.088749,-0.01144 0.1318424,0 0.036135,0.00959 0.063922,0.050145 0.098882,0.06561 0.020846,0.00921 0.04501,-0.00895 0.065921,0 0.00705,0.00302 0.00866,0.017821 0.015703,0.020838 0.042132,0.018042 0.201387,0.016258 0.2142437,0 0.00379,-0.00479 -0.0037,-0.015925 0,-0.020838 0.00488,-0.00648 0.056621,0.00119 0.060058,0 0.034031,-0.011916 0.068517,-0.055333 0.098265,-0.0652 0.042635,-0.014143 0.087895,0 0.1318426,0 0.1207868,0 0.2415738,0 0.3623606,0"
       id="path6155" />
    <path
       style="fill:#ff0000;stroke:#000000;stroke-width:0.303758"
       d="m 7.5875222,5.0776554 c 0.1358308,-0.034762 0.2875682,0.036001 0.4232127,0 0.031345,-0.00832 0.057593,-0.043662 0.082401,-0.06561 0.057611,-0.050968 0.1262793,-0.072827 0.1812832,-0.1312208 0.085751,-0.091037 -0.01983,0.00356 0.065921,-0.08748 0.130428,-0.1384669 -0.04702,0.075354 0.1153622,-0.1093499 0.029492,-0.033548 0.050082,-0.080757 0.082401,-0.10935 0.020442,-0.018085 0.047047,-0.022868 0.065921,-0.043741 0.066867,-0.073946 -8.701e-4,-0.053944 0.065921,-0.1093501 0.018065,-0.014983 0.3014673,-0.236703 0.3131257,-0.2405709 0.051368,-0.017041 0.1645342,-0.021988 0.2142437,0 0.1126367,0.049824 0.2564158,0.2798195 0.2801651,0.4374016 0.00827,0.05489 0,0.1186991 0,0.1749607 0,0.059516 -9.229e-4,0.1676924 -0.03296,0.2187007 -0.038372,0.061106 -0.083573,0.070834 -0.1318424,0.10935 -0.0789,0.062959 -0.1725761,0.1969501 -0.2673449,0.2221027 -0.016161,0.00429 -0.033807,-0.00692 -0.049441,0 -0.010494,0.00464 -0.1886826,0.1416929 -0.1977634,0.1530905 -0.015059,0.018899 0.041555,0.0027 0.062182,0 0.1450044,-0.01905 0.089215,-0.013345 0.2205104,-0.067031 0.1977346,-0.080853 0.3956347,-0.031713 0.600378,-0.046963 0.1820469,-0.01356 0.014975,-0.016643 0.1374927,-0.043741 0.037931,-0.00838 0.076908,0 0.115362,0 0.1821418,0 0.3907768,-0.023634 0.5543248,0.1120123 0.01977,0.016394 0.03047,0.047633 0.04944,0.06561 0.02998,0.028424 0.07009,0.03506 0.09888,0.06561 0.06674,0.070845 0.07688,0.1335967 0.115363,0.2187007 0.008,0.017682 0.02434,0.026583 0.03295,0.043741 0.06634,0.1320461 0.08622,0.3347097 0.04944,0.4811417 -0.0072,0.028515 -0.0045,0.061991 -0.01649,0.08748 -0.01648,0.034971 -0.04546,0.056445 -0.06593,0.08748 -0.03112,0.047195 -0.04898,0.1087469 -0.0824,0.1530905 -0.06837,0.090731 -0.398116,0.043741 -0.49441,0.043741 -0.03846,0 -0.0769,0 -0.115362,0 -0.0048,0 0.0099,0.00266 0.01422,0 0.0066,-0.00404 0.01099,-0.012577 0.01649,-0.018867 0.02198,-0.014581 0.04311,-0.031633 0.06593,-0.043741 0.09701,-0.051491 0.198217,-0.067095 0.300706,-0.087941 0.188518,-0.038344 0.378811,-0.023494 0.569062,-0.023494 0.06043,0 0.122985,-0.021099 0.181283,0 0.07879,0.028516 0.156098,0.065336 0.230724,0.10935 0.06756,0.039845 0.07189,0.059134 0.09888,0.1312208 0.0034,0.00911 0.0152,0.011519 0.01628,0.021597 0.01098,0.1030984 0.01317,0.5075161 0,0.6123622 -0.002,0.01608 -0.01446,0.027661 -0.01649,0.043741 -0.0036,0.028764 0.0061,0.059443 0,0.08748 -0.0055,0.025271 -0.02411,0.0421 -0.03295,0.06561 -0.0078,0.020617 -0.0087,0.04499 -0.01649,0.06561 -0.100732,0.2673545 -0.230885,0.3393596 -0.424765,0.466284 -0.0071,0.0046 -0.0087,0.021066 -0.01649,0.022333 -0.08998,0.014608 -0.181301,0 -0.27195,0 -0.182427,0 -0.368326,0.014441 -0.550245,0 -0.3575652,-0.028382 0.119563,-0.022333 -0.183983,-0.022333 -0.02343,0 -0.3256122,-0.02488 -0.3278841,-0.021869 -0.00712,0.00942 -0.0053,0.028679 0,0.040005 0.00168,0.0036 0.010901,-0.00386 0.00958,0 -0.00309,0.00904 -0.023673,0.017496 -0.01648,0.02023 0.2343379,0.089062 0.3787921,-0.027269 0.5641441,0.2187008 0.01649,0.021869 0.03898,0.037964 0.04944,0.06561 0.0049,0.012947 -0.0035,0.029714 0,0.043466 0.0024,0.00967 0.01478,0.011612 0.01628,0.021597 0.01257,0.084255 0,0.1989907 0,0.284311 0,0.1052805 0.01118,0.2241826 0,0.3280512 -0.0062,0.057588 -0.02992,0.1231533 -0.04944,0.1749606 -0.01871,0.049658 -0.02792,0.1054828 -0.04944,0.1530904 -0.05037,0.1114118 -0.206468,0.174403 -0.3002923,0.2099685 -0.085049,0.032238 -0.1518172,0.021869 -0.2414608,0.021869 -0.068326,0 -0.1537833,0.011294 -0.2218332,0 C 9.2815861,9.6549617 9.083977,9.5099694 8.9087701,9.4131923 8.7773265,9.3405883 8.6457644,9.2660966 8.5106953,9.2063491 8.4892076,9.19684 8.4645615,9.1991015 8.4447739,9.1844796 8.4137367,9.1615388 8.3915155,9.1214514 8.3615546,9.0961183 8.2899585,9.0355818 8.2170094,8.9828205 8.1473107,8.9211576 c -0.023304,-0.020617 -0.039992,-0.07601 -0.065921,-0.08748 -0.010424,-0.00461 -0.022537,0.00461 -0.03296,0 C 8.0026247,8.8134158 7.986995,8.6834487 7.9664441,8.6382236 7.9316546,8.5616619 7.8585969,8.5130085 7.8181215,8.4413922 c -0.023326,-0.04127 -0.017862,-0.10935 -0.055144,-0.10935"
       id="path6017" />
    <path
       style="fill:#ff0000;stroke:#000000;stroke-width:0.303758"
       d="M 4.4999734,4.5337915 C 4.4695845,4.4984794 4.4204377,4.5007343 4.3877315,4.4681812 4.333928,4.4146314 4.2965517,4.3462672 4.2394088,4.2932206 4.2139185,4.2695555 4.0989608,4.1847612 4.0733827,4.1609856 3.9006971,4.0004701 3.7185693,3.8473195 3.526427,3.7294873 3.4235464,3.6663958 3.3090419,3.6429938 3.2036595,3.5876496 c -0.018757,-0.00985 -0.031367,-0.035308 -0.050232,-0.04479 -0.05996,-0.030135 -0.3029702,-0.045192 -0.3625665,0 -0.05429,0.041168 -0.071363,0.082563 -0.115362,0.1312208 -0.1654519,0.1829683 -0.222604,0.3397816 -0.2636849,0.6123623 -0.0223,0.1479665 7.12e-4,0.4643227 0.050459,0.5963553 0.026956,0.071544 0.1444478,0.3192695 0.1483227,0.3936614 7.779e-4,0.014924 -0.020465,-0.012551 -0.030683,-0.018865 C 2.5126692,5.2160436 2.4487021,5.1636426 2.3795758,5.1246674 2.2394569,5.0456643 1.8921421,4.8126374 1.7104641,4.8608562 1.5740208,4.8970694 1.5421257,4.9846604 1.4467793,5.0795569 c -0.00983,0.00978 -0.024275,0.010342 -0.03296,0.021869 -0.042168,0.05596 -0.053743,0.1334457 -0.082401,0.1968308 -0.00799,0.017681 -0.026013,0.025299 -0.03296,0.043741 -0.00671,0.017797 -0.00978,0.091555 -0.01648,0.1093499 -0.038028,0.1009305 0.00734,-0.094132 -0.03296,0.06561 -0.016653,0.066018 0.033513,-0.04584 0,0.065066 -0.017728,0.058672 -0.0545,0.1008227 -0.032961,0.1744078 0.021669,0.07403 0.2014247,0.2553917 0.2621261,0.2822425 0.021487,0.00951 0.045103,0.010027 0.065921,0.021869 0.018205,0.010356 0.032126,0.030975 0.049441,0.043741 0.1115017,0.082206 0.2312688,0.1555851 0.3487574,0.2204595 0.073511,0.040591 0.098882,0.064774 0.098882,0.1645722 0,0.011202 0.00642,0.026343 0,0.033627 -0.041231,0.046778 -0.081755,0.03453 -0.1310637,0.042707 -0.083356,0.013828 -0.059605,0.033648 -0.1483228,0.06561 -0.020161,0.00726 -0.1565723,0.030849 -0.1834353,0.044216 -0.018546,0.00924 -0.03296,0.029159 -0.049441,0.043741 -0.021973,0.014581 -0.042615,0.033431 -0.065921,0.043741 -0.010424,0.00461 -0.023819,-0.00808 -0.032961,0 -0.01022,0.00904 -0.00689,0.033558 -0.01648,0.043741 -0.027635,0.029341 -0.062854,0.026699 -0.082401,0.06561 -0.0288,0.057328 -0.00616,0.038219 -0.032961,0.10935 -0.026369,0.069985 -0.072513,0.1268472 -0.098882,0.1968307 -0.015538,0.041238 -0.017422,0.089982 -0.032961,0.1312208 -0.010423,0.027665 -0.035457,0.040866 -0.049441,0.06561 -0.048449,0.085724 0.021628,-0.00193 -0.03296,0.10935 -0.010254,0.020904 -0.038572,-0.026798 -0.047581,0.021467 -0.00394,0.021097 0.00386,0.044083 0,0.065208 -0.00936,0.05126 -0.0366553,-0.01884 -0.015703,0.064578 0.015624,0.062199 0.099516,0.071395 0.1318422,0.08748 0.023002,0.01144 0.042389,0.034373 0.065921,0.043741 0.076438,0.030433 0.1688484,0.044815 0.2472045,0.06561 0.079118,0.021 0.1530652,0.061636 0.230724,0.08748 0.03279,0.010911 -4.165e-4,-0.021965 0.04903,0 0.00737,0.00329 0.00911,0.018608 0.01648,0.021869 0.038927,0.017219 0.1288293,0 0.164803,0 0.1656511,0 -0.027372,0.2189333 -0.065921,0.2803192 -0.00786,0.012525 -0.0078,0.032215 -0.01648,0.043741 -1.187e-4,1.579e-4 -0.03251,-1.556e-4 -0.03276,0 -0.00674,0.0042 -0.00954,0.016082 -0.016275,0.02025 -0.011754,0.00727 -0.033336,-0.00849 -0.044564,0 -0.015443,0.011665 -0.032329,0.036416 -0.048816,0.043741 -0.015382,0.00684 -0.064882,0 -0.048661,0 0.068255,0 0.018261,0.00982 0.015985,-0.020456 -4.588e-4,-0.00611 0.00925,0 0.013879,0 0.025608,0 0.051216,0 0.076824,0 0.044766,0 0.1047015,-0.014472 0.1483228,0 0.043521,0.014439 0.049068,0.05061 0.071127,0.056488 0.071951,0.019172 0.1516418,-0.013847 0.2244117,0 0.027727,0.00527 0.054607,0.017258 0.082401,0.021869 0.085842,0.014238 0.1498912,-0.043741 0.2307241,-0.043741 0.2210177,0 0.4387548,0.021869 0.6592119,0.021869 0.1777254,0 0.3485858,0.021869 0.527369,0.021869 0.053297,0 0.1121288,0.00999 0.164803,0 0.1130894,-0.02144 0.2470826,-0.043763 0.3625665,-0.021869 0.015706,0.00298 0.059999,0.036735 0.082401,0.021869 0.029312,-0.019448 -0.00968,-0.041134 -0.028942,-0.041134"
       id="path6019" />
    <path
       style="fill:#ff0000;stroke:#000000;stroke-width:0.303758"
       d="M 5.4750054,4.4169374 C 5.3783444,4.1414086 5.2122562,3.9202245 5.1018048,3.6567051 5.0759168,3.5949401 5.0536942,3.4747695 5.0350316,3.4129434 5.0038225,3.3095512 4.9217817,3.0907244 4.9000783,2.9773586 4.8309476,2.6162602 4.8427966,2.3320092 4.8427966,1.9621455 c 0,-0.092962 -0.00634,-0.1863065 0,-0.2788871 0.020536,-0.2997816 0.00722,0.029995 0.03296,-0.1749605 0.016151,-0.1285864 -0.022234,-0.00277 0.01648,-0.1312208 0.00457,-0.015136 0.010988,-0.029159 0.01648,-0.043741 0.010988,-0.01458 0.026013,-0.025297 0.03296,-0.043741 0.00491,-0.013041 -0.00491,-0.030699 0,-0.043741 0.00695,-0.018443 0.023929,-0.026961 0.03296,-0.043741 0.018618,-0.03459 0.026791,-0.079293 0.049441,-0.10935 0.011315,-0.015016 0.1527368,-0.1454965 0.1812833,-0.17496053 0.084161,-0.0868656 0.1841216,-0.23755361 0.2966453,-0.26244096 0.3979738,-0.0880215 0.8400447,0.0760396 1.2020606,0.28955561 0.084753,0.0499877 0.1492137,0.14396128 0.2177231,0.22192608 0.015036,0.017111 0.036557,0.023775 0.049441,0.043741 0.020963,0.032485 0.031896,0.074412 0.049769,0.1100033 0.026274,0.052319 0.064139,0.095605 0.082566,0.1535258 0.015563,0.048919 0.00561,0.1066903 0.01648,0.1577934 0.011404,0.053601 0.040265,0.099238 0.049745,0.1534941 0.00745,0.04261 0,0.08748 0,0.1312207 0,0.3341878 0.011803,0.4747902 -0.082401,0.7873228 -0.014853,0.049276 -0.013118,0.1070104 -0.03296,0.1530905 -0.011563,0.026855 -0.03296,0.043741 -0.049441,0.06561 C 6.9830139,2.9663866 6.958304,3.0079125 6.939066,3.0538668 6.875709,3.2052059 6.8268605,3.3779605 6.774263,3.5350085 6.7394512,3.6389479 6.6736407,3.7088286 6.6259404,3.7974493 c -0.024317,0.045178 -0.025124,0.1079124 -0.049441,0.1530905 -0.028152,0.052302 -0.073769,0.097545 -0.098882,0.1530908 -0.00894,0.019766 -0.00755,0.045843 -0.01648,0.06561 -0.01127,0.024924 -0.2080616,0.3239236 -0.2142439,0.3280512 -0.00803,0.00537 -0.017991,0 -0.026985,0"
       id="path6021" />
    <path
       style="fill:#ffff00;stroke:#000000;stroke-width:0.303758"
       d="m 4.5675935,12.403998 0.024267,-0.0444"
       id="path6086" />
    <path
       style="fill:#000000;stroke:#000000;stroke-width:0.303758"
       d="m 5.4931141,2.5591514 c 0,0.037033 -0.00343,0.074348 0,0.1111011 0.00736,0.078873 0.027457,0.1602331 0.03296,0.2405708 0.00887,0.1295027 -0.012154,0.2646362 0,0.3936614 0.00216,0.022874 0.014023,0.04279 0.01648,0.06561 0.00538,0.050009 -0.00538,0.1030812 0,0.1530904 0.00852,0.079144 0.01648,0.1382427 0.01648,0.2187008 0,0.1601918 -0.00271,-0.057824 0.01648,0.1968306 0.00656,0.087047 -0.00547,0.175263 0,0.2624409 0.00187,0.029953 0.013672,0.057655 0.01648,0.08748 0.00574,0.06094 -0.011305,0.1368276 0,0.1968308 0.019516,0.1035877 0.027037,0.239861 0.03296,0.3499212 0.0043,0.079801 -0.014666,0.162411 0,0.2400117 0.00189,0.01 0.014022,0.012088 0.01648,0.021869 0.011537,0.045928 -0.011537,0.1071639 0,0.1530905 0.00245,0.00978 0.014597,0.011863 0.01648,0.02187 0.013733,0.072899 -0.00916,0.048601 0,0.1093499 0.015299,0.1015167 0.024135,0.2002347 0.03296,0.3056359 0.00399,0.047644 0.010796,0.4544878 0.01648,0.4624758 0.00729,0.010237 0.00171,-0.029131 0.00728,-0.041125 C 5.8689081,5.775508 5.648898,6.3759134 5.7970315,5.933608 5.823567,5.8543772 5.8313734,5.7950522 5.8464723,5.7149072 5.867351,5.6040773 5.9180086,5.4957208 5.945354,5.386856 c 0.00517,-0.020575 -0.00399,-0.044031 0,-0.065064 C 5.96436,5.2215382 5.991627,5.1333678 6.027755,5.0374809 6.062232,4.9459759 6.0754,4.8454168 6.110156,4.75317 6.152397,4.6410572 6.181743,4.5518941 6.209038,4.4251188 c 0.00675,-0.031345 0.026967,-0.055864 0.03296,-0.08748 0.00667,-0.035173 -0.00536,-0.073241 0,-0.1088038 0.011215,-0.074415 0.050446,-0.1468242 0.065921,-0.2187008 0.00453,-0.021031 -0.00521,-0.044861 0,-0.06561 0.019668,-0.078303 0.066863,-0.1580905 0.082401,-0.2405708 0.00533,-0.028292 -0.0069,-0.059794 0,-0.08748 0.0024,-0.00967 0.01273,-0.012564 0.016272,-0.021593 0.014022,-0.035747 0.00648,-0.1093037 0.01648,-0.1491269 0.00245,-0.00978 0.014022,-0.012088 0.01648,-0.021869 0.00695,-0.027663 -0.00695,-0.059817 0,-0.08748 0.00245,-0.00978 0.014004,-0.012101 0.01648,-0.021869 0.012026,-0.04747 0.00906,-0.1032755 0.01648,-0.1525324 0.00884,-0.058686 0.082772,-0.4099102 0.1085565,-0.434184 0.027866,-0.026234 -0.00108,-0.1155435 0.030006,-0.1155435"
       id="path6222" />
    <path
       style="fill:#000000;stroke:#000000;stroke-width:0.303758"
       d="m 5.5528132,1.3994643 0.172679,0.475529"
       id="path6224" />
    <path
       style="fill:#000000;stroke:#000000;stroke-width:0.303758"
       d="m 6.5659541,1.5111588 c -0.052336,0.1049895 -0.056027,0.1647357 -0.1200716,0.2114779 -0.0046,0.00334 -0.011836,0.1111975 -0.015418,0.1203667 -0.00229,0.00584 -0.061955,0.064638 -0.065716,0.065338 -0.020182,0.00376 -0.014128,-0.1059617 0.017812,-0.1059617"
       id="path6228" />
    <path
       style="fill:#000000;stroke:#000000;stroke-width:0.303758"
       d="m 5.0338337,9.1541756 c 0.00227,0.1281895 -0.068624,0.2917754 -0.1145855,0.3915162 -0.01015,0.022024 -0.0024,0.3125752 0,0.3252891 0.015608,0.082842 0.045812,0.1605111 0.065921,0.2405711 0.00654,0.02604 0.00347,0.1577 0.01648,0.174961 0.012285,0.01631 0.038589,0.0039 0.049441,0.02187 0.00546,0.009 0.052041,0.272522 0.049232,0.283756 -0.048377,0.193413 -0.09836,0.182828 -0.2140377,0.305635 -0.024267,0.02576 -0.041062,0.06273 -0.065921,0.08748 -0.035987,0.03581 -0.089266,0.0574 -0.1153622,0.109349 -0.050355,0.100234 -0.03454,0.210247 -0.049231,0.327212 -0.00203,0.01608 -0.013501,0.02793 -0.01648,0.04374 -6.066e-4,0.0033 -0.00369,0.204517 0.014379,0.15309 0.00435,-0.01236 -0.00338,-0.02804 0,-0.04093 0.013171,-0.05019 0.071956,-0.117359 0.098882,-0.15309"
       id="path6230" />
    <path
       style="fill:#000000;stroke:#000000;stroke-width:0.303758"
       d="m 6.8592819,9.5421079 c -0.025,0.011797 -0.054601,0.012855 -0.074998,0.035372 -0.013355,0.014743 -0.010028,0.044206 -0.01648,0.06561 -0.00912,0.030271 -0.025163,0.056565 -0.03296,0.08748 -0.023916,0.094817 0.00594,0.4100341 0.04923,0.4789701 0.032423,0.05163 0.063069,0.105568 0.098882,0.153093 0.028011,0.03717 0.07087,0.05031 0.098882,0.08748 0.014007,0.01859 0.018956,0.04703 0.03296,0.06561 0.00869,0.01153 0.024275,0.01034 0.03296,0.02187 0.02447,0.03247 0.070577,0.107197 0.082401,0.153091 0.031479,0.122192 -0.1251071,0.433085 -0.1812832,0.51695 -0.01825,0.02725 -0.046499,0.03984 -0.065921,0.06561 -0.089455,0.11871 -0.005,0.0166 -0.032961,0.109349 -0.012749,0.04229 -0.058036,0.112528 -0.065503,0.152536 -0.03675,0.196934 0.04395,-0.06927 -0.01648,0.131221 -0.066455,0.17638 0.023824,-0.07953 -0.01648,0.08748 -0.00224,0.0092 -0.020428,0.01339 -0.015528,0.0206 0.042227,0.06223 0.1987901,0.03817 0.2576373,0.0642 0.01907,0.0084 0.069383,0.06506 0.076089,0.06506 0.012823,0 -0.026356,0.0056 -0.038469,0 -0.058555,-0.02696 0.017998,-0.02187 -0.03276,-0.02187 -0.1681248,-0.07136 -0.078051,-0.05096 -0.2714242,-0.05096 -0.049541,0 -0.099254,0.0055 -0.1486246,0 -0.03394,-0.0038 -0.077995,-0.0417 -0.115362,-0.02187 -0.037349,0.01983 -0.1957348,0.261071 -0.1480159,0.319103 0.030061,0.03655 0.067238,0.02706 0.098679,0.04374 0.01839,0.0098 0.030896,0.03451 0.049441,0.04374 0.044462,0.02213 0.4268921,0.08818 0.4779286,0.06561 0.00738,-0.0033 0.00953,-0.01726 0.01648,-0.02187 0.014617,-0.0097 0.03318,0.0053 0.049029,0 0.011913,-0.004 0.020916,-0.01867 0.03296,-0.02187 0.048637,-0.01291 0.1248759,-0.01263 0.164803,-0.06561 0.00869,-0.01153 0.00779,-0.03222 0.01648,-0.04374 0.01185,-0.01573 0.1334106,-0.119069 0.1307782,-0.12275 -0.051609,-0.07216 -0.1602621,-0.01766 -0.2238252,-0.0421 -0.045829,-0.01763 -0.086217,-0.05428 -0.1293263,-0.08142"
       id="path6232" />
    <path
       style="fill:#000000;stroke:#000000;stroke-width:0.303758"
       d="m 4.6035374,11.643184 c -0.024088,-0.0073 -0.048176,-0.01458 -0.072263,-0.02187 -0.01648,-0.01458 -0.030651,-0.03543 -0.049441,-0.04374 -0.015634,-0.0069 -0.033126,0.003 -0.049441,0 -0.071242,-0.0135 -0.1133168,-0.0633 -0.1743648,-0.02363 -0.09737,0.06328 -0.1956114,0.145042 -0.2461403,0.282899 -0.0046,0.01254 0.00479,0.02941 0,0.04182 -0.016953,0.04386 -0.021432,0.08618 -0.032746,0.131221 -0.00245,0.0098 -0.014023,0.01209 -0.01648,0.02187 -0.00385,0.01532 -0.00781,0.141311 0,0.151677 0.053818,0.07142 0.1275538,0.03355 0.1966983,0.04374 0.063571,0.0093 0.1240726,0.07682 0.1812832,0.10935 0.031934,0.01816 0.066623,0.02662 0.098882,0.04374 0.011405,0.0061 0.020689,0.02116 0.03296,0.02187 0.00501,2.88e-4 -0.00213,-0.01394 0,-0.01997 0.00459,-0.01301 0.00835,-0.02653 0.013195,-0.03938 0.037441,-0.09937 0.098938,-0.197287 0.1314372,-0.305105 0.00408,-0.01354 -0.00348,-0.02991 0,-0.04374 0.017216,-0.06855 0.010874,0.0072 0.032754,-0.02187 0.030131,-0.03999 0.040544,-0.107915 0.065921,-0.152818 0.018001,-0.03185 0.1115895,-0.117561 0.082401,-0.167734 -0.027087,-0.04656 -0.1729767,-0.01061 -0.1946555,-0.0083 z"
       id="path6234" />
  </g>
</svg>
