<?xml version="1.0" encoding="UTF-8" standalone="no"?>
<!-- Created with Inkscape (http://www.inkscape.org/) -->

<svg
   width="48"
   height="48"
   viewBox="0 0 12.7 12.7"
   version="1.1"
   id="svg6303"
   inkscape:version="1.2.2 (b0a8486541, 2022-12-01)"
   sodipodi:docname="bird4.svg"
   xmlns:inkscape="http://www.inkscape.org/namespaces/inkscape"
   xmlns:sodipodi="http://sodipodi.sourceforge.net/DTD/sodipodi-0.dtd"
   xmlns="http://www.w3.org/2000/svg"
   xmlns:svg="http://www.w3.org/2000/svg">
  <sodipodi:namedview
     id="namedview6305"
     pagecolor="#ffffff"
     bordercolor="#999999"
     borderopacity="1"
     inkscape:showpageshadow="0"
     inkscape:pageopacity="0"
     inkscape:pagecheckerboard="0"
     inkscape:deskcolor="#d1d1d1"
     inkscape:document-units="px"
     showgrid="false"
     inkscape:zoom="12.414927"
     inkscape:cx="8.2561903"
     inkscape:cy="20.821709"
     inkscape:window-width="1918"
     inkscape:window-height="1036"
     inkscape:window-x="0"
     inkscape:window-y="18"
     inkscape:window-maximized="1"
     inkscape:current-layer="layer1" />
  <defs
     id="defs6300" />
  <g
     inkscape:label="Layer 1"
     inkscape:groupmode="layer"
     id="layer1">
    <g
       id="g7106"
       transform="matrix(1.0199826,0,0,0.99970802,-0.01121829,0.0018829)">
      <path
         style="fill:#000080;stroke:#000000;stroke-width:0.34798"
         d="m 11.187232,5.5687541 c 0,0.045799 0.0045,0.091935 0,0.1373957 -0.0031,0.03259 -0.02909,0.056147 -0.03551,0.087992 -0.0081,0.040606 0.01063,0.092333 0,0.1319558 -0.01642,0.061702 -0.04492,0.1918395 0.01492,0.2345017 0.02011,0.014334 0.05869,-0.00929 0.08088,0 0.01719,0.00722 0.09588,0.049604 0.113974,0.022133 0.01499,-0.022747 0.0073,-0.051755 0.01752,-0.077124 0.0047,-0.011646 0.123114,-0.1921479 0.124243,-0.199185 0.0081,-0.050638 -0.01007,-0.1048235 0,-0.1549215 0.0065,-0.032092 0.04682,-0.078568 0.05325,-0.1106579 0.0072,-0.035784 -0.0093,-0.075665 0,-0.1106578 0.01007,-0.037525 0.03385,-0.051414 0.03385,-0.096542"
         id="path6441" />
      <path
         style="fill:#000080;stroke:#000000;stroke-width:0.34798"
         d="M 7.3553765,7.4854946 C 7.4485719,7.2754571 7.5566667,7.1123729 7.703928,6.9654747 7.746076,6.9234307 7.78207,6.8671777 7.8281715,6.8326848 7.9114885,6.7703508 8.0110648,6.7470438 8.0944072,6.6777632 8.1494742,6.6319882 8.1927402,6.5611266 8.2541487,6.5228413 8.2944487,6.4977153 8.3409027,6.4876093 8.378392,6.4564463 8.396143,6.4416923 8.398807,6.4088603 8.413891,6.3900523 8.43423,6.3646913 8.482297,6.3490203 8.502636,6.3236583 8.51772,6.3048513 8.521477,6.2738783 8.538134,6.2572633 8.552744,6.2426943 8.573632,6.2425093 8.591381,6.2351303 8.615047,6.2129963 8.639653,6.1923503 8.662378,6.1687363 8.73398,6.0943343 8.660988,6.1483353 8.751123,6.0359462 8.766207,6.0171392 8.789315,6.0105262 8.80437,5.9916842 8.852201,5.9318132 9.0253349,5.6220263 9.0270414,5.619598 9.0615074,5.570544 9.1122004,5.542284 9.1473219,5.4939573 c 0.01785,-0.024561 0.019722,-0.062415 0.035664,-0.08894 0.020072,-0.033393 0.049214,-0.056842 0.070997,-0.088528 0.013882,-0.020193 0.020415,-0.047586 0.035499,-0.066395 0.041835,-0.052165 0.09385,-0.089911 0.1419924,-0.13279 0.031205,-0.027796 0.2642722,-0.1439178 0.2837616,-0.022411 0.00463,0.028938 -0.00261,0.059198 0,0.088528 0.00333,0.037388 0.011831,0.073772 0.017751,0.1106578 0.00591,0.051643 0.013588,0.1030152 0.017751,0.1549217 0.00808,0.100905 0,0.2085412 0,0.3098436 0,0.052693 0.010297,0.1257199 0,0.177053 -0.012338,0.061532 -0.017751,0.1053372 -0.017751,0.1717472 0,0.030101 -0.025063,0.1048728 -0.017525,0.1191185 0.025196,0.047606 0.05638,-0.1869598 0.064812,-0.2185041 0.07677,-0.2871776 -0.012185,-0.00109 0.088745,-0.2213168 0.018562,-0.04051 0.018764,-0.091058 0.035498,-0.1327899 0.036497,-0.091016 0.06723,-0.1995849 0.1064961,-0.2877115 0.0081,-0.01824 0.02928,-0.02489 0.0355,-0.044265 0.0066,-0.020547 -0.0079,-0.046599 0,-0.066394 0.01123,-0.027997 0.03932,-0.040353 0.05325,-0.066395 0.01037,-0.01941 0.0094,-0.045529 0.01775,-0.066394 0.04607,-0.114889 0.187316,-0.272101 0.266236,-0.3541067 0.01639,-0.017027 0.03301,-0.035853 0.05325,-0.044266 0.05315,-0.02209 0.406897,-0.083149 0.406897,-0.027954 0,0.2001278 -0.0016,0.3945512 -0.01812,0.5947459 -0.01363,0.1645185 -0.0368,0.3117401 -0.0368,0.4777075 0,0.07541 10e-4,0.1729087 -0.01774,0.2434484 -0.0026,0.0099 -0.0151,0.012234 -0.01774,0.022133 -0.0035,0.013291 0.01178,0.1515257 -0.01549,0.1322378 -0.01492,-0.010562 0.08469,-0.3774724 0.123097,-0.4493068 0.03755,-0.070229 0.113729,-0.2754733 0.124243,-0.3541066 0.01038,-0.07759 0.0098,-0.168656 0.0355,-0.2434482 0.0066,-0.01918 0.02545,-0.027569 0.03551,-0.044263 0.02326,-0.038674 0.0176,-0.066026 0.03551,-0.1106578 0.05316,-0.1325771 0.130522,-0.2478104 0.181194,-0.3840447 0.03646,-0.097997 0.03814,-0.2118658 0.07145,-0.3115795 0.0065,-0.019262 0.02503,-0.02797 0.0355,-0.044263 0.02191,-0.034155 0.0796,-0.2460421 0.122438,-0.2213163 0.04257,0.02457 0.01284,0.1696977 0.01775,0.2186308 0.0179,0.1784294 0.02104,0.0452 0.03549,0.2434482 0.0027,0.036736 -0.0043,0.074144 0,0.1106579 0.0074,0.064512 0.04541,0.1306959 0.05325,0.1991851 0.0124,0.1082654 -0.0124,0.2231599 0,0.3314253 0.01201,0.1047258 0.02154,0.2054566 0.03549,0.3098431 0.0069,0.050939 -0.01322,0.091656 0.01752,0.1299995"
         id="path6439" />
      <path
         style="fill:#00ffff;stroke:#000000;stroke-width:0.34798"
         d="M 4.8445452,5.6246294 C 4.6131825,5.4515337 4.3757765,5.370884 4.1085761,5.370884 c -0.046871,0 -0.1157502,-0.018286 -0.1597415,0 C 3.7971022,5.4339488 3.6662427,5.553241 3.5576968,5.70368 3.5016236,5.7813942 3.4862091,5.8593765 3.4506416,5.9480741 3.3976911,6.0801225 3.3053985,6.2041629 3.272655,6.3470618 c -0.00488,0.021279 0.00294,0.044563 0,0.066395 -0.00802,0.060007 -0.022095,0.118559 -0.035499,0.1770531 -0.013129,0.057299 -0.045484,0.1189717 -0.053247,0.1770535 -0.00389,0.029109 0.00334,0.059315 0,0.088526 -0.017737,0.1548113 -0.035498,0.3053551 -0.035498,0.4647651 0,0.075253 -0.030858,0.3156285 0.017751,0.3762381 0.052753,0.065778 0.2162172,0.2293653 0.2839849,0.2655799 0.016313,0.00873 0.036768,-0.00822 0.053247,0 0.015537,0.00775 0.02097,0.033911 0.035498,0.044262 0.075456,0.053765 0.2012701,0.1254836 0.2839848,0.1770535 0.028499,0.017767 0.057509,0.036432 0.088745,0.044263 0.017254,0.00432 0.036108,-0.00696 0.052796,0 0.020227,0.00844 0.034166,0.032369 0.053247,0.044262 0.042744,0.026649 0.3036722,-8.16e-4 0.3549809,-0.022134 0.079229,-0.032931 0.2565981,0.018933 0.3718623,-0.022133 0.031965,-0.011396 0.2863119,-0.3441883 0.3017338,-0.3762384 0.00963,-0.020003 0.00736,-0.046985 0.017751,-0.066394 0.038611,-0.072218 0.1003426,-0.1299395 0.1419926,-0.1991852 0.037904,-0.06302 0.039932,-0.1313992 0.070997,-0.199185 0.0083,-0.018116 0.026887,-0.026372 0.035499,-0.044263 0.025385,-0.052757 0.080258,-0.1905335 0.088745,-0.2434482 0.040717,-0.2538492 0.035499,-0.512441 0.035499,-0.7746079 0,-0.1912338 -0.00961,-0.4546062 -0.1242432,-0.5975549 -0.01871,-0.02333 -0.052288,-0.020933 -0.070997,-0.044262 -0.015084,-0.018807 -0.017205,-0.052711 -0.035499,-0.066395 -0.00231,-0.0017 -0.2712794,-0.04526 -0.2752935,-0.043223 -0.029455,0.014957 -0.054782,0.057713 -0.086146,0.051134 -0.047739,-0.01001 -0.080991,-0.066418 -0.1235754,-0.095122 -0.034631,-0.023342 -0.1149956,-0.02035 -0.159121,-0.02035"
         id="path6370" />
      <path
         style="fill:#00ffff;stroke:#000000;stroke-width:0.34798"
         d="m 5.2178508,7.361387 c 0.065029,0.050464 0.1228233,0.125043 0.1921206,0.1682471 0.016734,0.01043 0.037681,0.00918 0.053247,0.022133 0.020885,0.017362 0.032362,0.049034 0.053247,0.066395 0.015566,0.012938 0.037204,0.010133 0.053247,0.022134 0.041829,0.031296 0.02292,0.054405 0.070996,0.066394 0.073954,0.01844 0.029583,-0.012291 0.088745,0 0.2399185,0.04986 0.4881594,0.00622 0.7314086,0.022133 0.043288,0.00284 0.085499,0.019416 0.1287704,0.022611 0.1693887,0.012512 0.3666278,0.019173 0.5360552,0 0.08014,-0.00908 0.0671,-0.031376 0.1419927,-0.066395 0.022838,-0.010672 0.049178,-0.00853 0.070997,-0.022134 0.014968,-0.00934 0.022431,-0.03123 0.035499,-0.044263 0.056704,-0.056565 0.1222425,-0.096084 0.1778188,-0.1555359 0.01914,-0.020475 0.032588,-0.049168 0.053577,-0.066601 0.015571,-0.012939 0.037004,-0.010562 0.053247,-0.022134 C 7.7074571,7.3397122 7.9534038,7.0601718 7.9960479,6.9981353 8.0735379,6.885408 8.1495424,6.7582868 8.2445349,6.6661602 8.4053713,6.5101767 8.5615569,6.3372541 8.7060104,6.157132 c 0.011831,-0.014754 0.02053,-0.034933 0.035498,-0.044263 0.010589,-0.0066 0.02402,0.00357 0.035498,0 0.025669,-0.00799 0.045327,-0.036262 0.070997,-0.044262 0.025385,-0.00791 0.2512147,-0.040744 0.266236,-0.022133 0.032558,0.040343 0.017529,0.1461736 0.017529,0.1958535 0,0.225561 -0.00973,0.4469092 -0.053247,0.66395 -0.01035,0.05163 -0.025146,0.036895 -0.035498,0.088526 -0.0057,0.028447 0.00749,0.060176 0,0.087973 -0.00712,0.026427 -0.04601,0.039655 -0.053025,0.066116 -0.0045,0.016984 -0.015528,0.1646733 -0.032316,0.1508261 -0.045768,-0.037755 0.065184,-0.154905 0.069131,-0.1622867 0.057743,-0.1080007 -0.030536,-0.028316 0.053247,-0.1327901 0.015084,-0.018807 0.038163,-0.025455 0.053247,-0.044263 0.072682,-0.090629 0.1285803,-0.2346658 0.2129881,-0.3098439 0.048107,-0.042847 0.119997,-0.1041132 0.1774903,-0.13279 0.025569,-0.012747 0.064959,-0.022021 0.088745,-0.044263 0.080721,-0.075489 0.1676459,-0.1303345 0.2662359,-0.1549216 0.00735,-0.00183 0.1173552,-0.047832 0.1242433,-0.044264 0.02137,0.011073 -0.014457,0.1577538 -0.017751,0.1714356 -0.026585,0.1104992 -0.080995,0.4367904 -0.1242433,0.5311597 -0.0083,0.018115 -0.028014,0.0256 -0.0355,0.044262 -0.00528,0.013203 0.00286,0.029952 0,0.044263 -0.013588,0.067762 -0.058281,0.1422024 -0.088745,0.1991847 -0.00494,0.00925 -0.02682,0.073644 -0.030841,0.064463 -4.358e-4,-0.00101 0.08592,-0.2489544 0.097211,-0.2735965 0.054538,-0.1190085 0.128118,-0.2243671 0.1952395,-0.3319751 0.2050798,-0.3287802 0.3746848,-0.5098414 0.6922148,-0.641818 0.01255,-0.00522 0.02367,-0.014754 0.03551,-0.022134 0.02958,-0.014753 0.05811,-0.033349 0.08874,-0.044263 0.03287,-0.011704 0.07329,0.010353 0.106498,0 0.01443,-0.0045 0.05378,-0.055587 0.06967,-0.044263 0.04032,0.028754 -0.03617,0.3400876 -0.03697,0.3460374 -0.01781,0.1306869 -0.0046,0.2669369 -0.01774,0.3983703 -0.01007,0.1007061 -0.03747,0.1893332 -0.05325,0.2877114 -0.01096,0.067966 -0.0088,0.1546493 -0.03551,0.2213167 -0.02706,0.067492 -0.01406,-0.040478 -0.03549,0.066394 -0.0083,0.04166 0.0083,0.09113 0,0.13279 -0.0058,0.029182 -0.0381,0.071322 -0.01774,0.087482 0.02257,0.017929 0.0038,-0.066929 0.01028,-0.099283 0.0065,-0.031984 0.02367,-0.059017 0.03551,-0.088528 0.02161,-0.053919 0.09511,-0.2244968 0.107965,-0.2684748 0.01259,-0.043054 0.0046,-0.093014 0.01813,-0.1356054 0.02195,-0.068884 0.07132,-0.118587 0.106989,-0.1778795 0.06416,-0.1066779 0.124971,-0.233401 0.195241,-0.3319752 0.01418,-0.01988 0.0396,-0.023832 0.05325,-0.044263 0.02732,-0.040867 0.0454,-0.090233 0.071,-0.1327902 0.0651,-0.1082269 0.121147,-0.2370099 0.177491,-0.3541061 0.01597,-0.0332 0.03904,-0.1106579 0.05325,-0.1327901 0.0083,-0.012879 0.02615,-0.010475 0.03549,-0.022133 0.02807,-0.034991 0.03124,-0.091612 0.05325,-0.13279 0.02666,-0.049902 0.08677,-0.099414 0.124243,-0.1327901 0.03112,-0.02772 0.127661,-0.108138 0.177491,-0.1106579 0.0256,-0.00129 0.01775,0.3762558 0.01775,0.4133031 0,0.1786589 -0.0331,0.3553777 -0.05325,0.5311602 -0.0091,0.078803 0.01252,0.1654872 0,0.2434482 -0.0099,0.060711 -0.04384,0.1184592 -0.05325,0.1770532 -0.0081,0.050638 0.0039,0.1034927 0,0.1549214 -0.0073,0.099617 -0.02492,0.1732436 -0.03549,0.26558 -0.0033,0.029213 0.004,0.059419 0,0.088528 -0.01904,0.1424977 -0.101357,0.2778018 -0.124245,0.4205016 -0.01288,0.080364 -0.04054,0.1642052 -0.05325,0.2434481 -0.0035,0.021702 0.0048,0.045115 0,0.066395 -0.01478,0.064527 -0.110721,0.2670038 -0.141991,0.3319748 -0.05611,0.1166 -0.111101,0.2328008 -0.159742,0.354106 -0.03603,0.089854 -0.100539,0.1572903 -0.141992,0.2434483 -0.03655,0.075969 -0.05313,0.1694409 -0.08874,0.2434482 -0.02929,0.060867 -0.09261,0.095743 -0.124243,0.1549215 -0.06785,0.1269052 -0.130395,0.2567968 -0.230732,0.3541066 -0.07957,0.077163 -0.167482,0.1455609 -0.248487,0.2213165 -0.02739,0.025613 -0.08231,0.070462 -0.106497,0.1106577 -0.0079,0.013205 -0.0068,0.035111 -0.01775,0.044264 -0.0099,0.0083 -0.02427,-0.0047 -0.0355,0 -0.01587,0.0066 -0.02053,0.03494 -0.0355,0.04426 -0.0022,0.0013 -0.03295,-0.0013 -0.03527,0 -0.04244,0.02478 -0.08124,0.0602 -0.124022,0.08687 -0.03347,0.02088 -0.07303,0.0234 -0.106496,0.04426 -0.08938,0.05571 -0.1770592,0.121455 -0.2662351,0.177053 -0.1205034,0.07513 -0.2577602,0.106484 -0.3835037,0.158745 -0.025102,0.01043 -0.045327,0.03627 -0.070997,0.04426 -0.022958,0.0071 -0.047568,-0.0041 -0.070996,0 -0.064462,0.01148 -0.1295738,0.03526 -0.1952396,0.04426 -0.082412,0.01131 -0.1675522,-0.0097 -0.2501152,0 -0.05913,0.0069 -0.2058255,0.04198 -0.2635415,0.04663 -0.2127686,0.01716 -0.425783,0.029 -0.6391079,0.04957 -0.3434824,0.0331 -0.6845098,0.03077 -1.0288827,0.03077 -0.1524953,0 -0.3049912,0 -0.4574864,0 -0.03614,0 -0.072713,0.0069 -0.1084178,0 -0.044979,-0.0088 -0.086916,-0.03429 -0.131333,-0.04676 -0.2354888,-0.06611 0.012103,0.04501 -0.3242269,-0.09314 -0.026217,-0.01076 -0.047746,-0.03616 -0.074282,-0.04563 -0.081436,-0.02907 -0.1706261,-0.02479 -0.2484863,-0.06638 -0.1144858,-0.06119 -0.012556,-0.01566 -0.070997,-0.08852 C 5.4431522,10.285915 5.3817829,10.223854 5.3006021,10.108167 5.2357341,10.015726 5.1509133,9.9594343 5.0876134,9.8647186 4.9995085,9.732887 4.9442839,9.5668506 4.8746249,9.4220853 4.8454971,9.3615545 4.797257,9.3055631 4.7681306,9.2450322 4.7585046,9.225029 4.7587352,9.1995036 4.7503801,9.1786369 4.7269389,9.1201801 4.6772411,9.0601776 4.6618646,9.002155 c -0.00371,-0.01401 0.00374,-0.030265 0,-0.044263 -0.013186,-0.049318 -0.054864,-0.1047681 -0.070774,-0.1543663 -0.013829,-0.043109 -0.00855,-0.1090525 -0.01775,-0.1549216 -0.020482,-0.102141 -0.05362,-0.2221435 -0.035499,-0.3351322 0.010501,-0.065524 0.01775,-0.109753 0.01775,-0.1770535"
         id="path6372" />
      <path
         style="fill:#0000ff;stroke:#000000;stroke-width:0.34798"
         d="m 9.5962735,4.831833 c -0.018342,0.071558 -0.077735,0.2872625 -0.017751,0.3620599 0.1487303,0.1854552 0.405746,0.154922 0.6034685,0.154922 0.09079,0 0.384178,0.025809 0.466974,0 0.07632,-0.023789 0.125207,-0.1444569 0.21299,-0.1991853 0.105641,-0.065861 0.01053,0.052165 0.159741,-0.1106577 0.03787,-0.04132 0.04237,-0.1073311 0.071,-0.1549215 0.01,-0.016692 0.02802,-0.0256 0.03551,-0.044262 0.0052,-0.013203 -0.0028,-0.029951 0,-0.044265 0.0078,-0.038543 0.01639,-0.078876 0.03551,-0.1106578 0.0079,-0.013203 0.02756,-0.00892 0.03549,-0.022133 0.03343,-0.055578 0.0083,-0.073247 0.01775,-0.1327899 0.0078,-0.048172 0.03694,-0.1584992 0.05325,-0.1991848 0.0069,-0.017046 0.04815,0.051839 0.05303,-0.08825 6.86e-4,-0.019289 -0.03097,0 -0.04645,0"
         id="path6510" />
      <path
         style="fill:#0000ff;stroke:#000000;stroke-width:0.34798"
         d="m 9.4311816,4.9661866 c -0.00933,-0.0859 0.061527,-0.097881 0.086181,-0.1516789 0.014645,-0.045655 0.031947,-0.1084751 0.053247,-0.1549219 0.028573,-0.062307 0.083101,-0.1531162 0.1068239,-0.2221411 0.016969,-0.049365 0.019502,-0.1050562 0.035499,-0.1549217 0.013681,-0.042647 0.036802,-0.069648 0.053247,-0.110658 0.095892,-0.2391402 0.1357147,-0.2981217 0.3549805,-0.3762381 0.02894,-0.01031 0.07132,-0.052922 0.08852,-0.022134 0.03042,0.054444 -0.03067,0.196651 -0.0355,0.2508111 -0.0033,0.036661 0.0064,0.074651 0,0.1106579 -0.0057,0.032206 -0.02713,0.057228 -0.0355,0.088526 -0.0094,0.034994 0,0.073772 0,0.1106578 0,0.036585 0.01644,0.3243067 -0.01775,0.2877117 -10e-4,-0.00109 0.03334,-0.089996 0.06905,-0.1493658 0.02008,-0.033386 0.05091,-0.055141 0.071,-0.088526 0.11361,-0.1888846 0.0527,-0.154243 0.17749,-0.3098434 0.05759,-0.071803 0.133284,-0.1329676 0.19524,-0.1991846 0.03812,-0.040739 0.06633,-0.095232 0.106497,-0.13279 0.04761,-0.044518 0.112138,-0.066139 0.159741,-0.110658 0.01339,-0.012512 0.02115,-0.033527 0.03551,-0.044262 0.0069,-0.00522 0.228486,-0.077172 0.246193,-0.066395 0.0277,0.01686 0.0162,0.6644148 0.0162,0.7560714"
         id="path6508" />
      <path
         style="fill:#0000ff;stroke:#000000;stroke-width:0.34798"
         d="m 3.8805631,6.3227677 0.336725,0.089437"
         id="path6514" />
      <path
         style="fill:#000000;stroke:#000000;stroke-width:0.34798"
         d="m 3.3033677,6.7893414 c -0.1055426,0.030822 -0.2274427,-0.029493 -0.3332257,0 -0.1168775,0.032585 -0.1851043,0.1529779 -0.2846425,0.2219312 -0.027851,0.019292 -0.061727,0.02321 -0.088745,0.044263 -0.021284,0.016589 -0.033646,0.046843 -0.053247,0.066395 -0.083696,0.08349 -0.189973,0.1764624 -0.2839849,0.2434483 -0.080628,0.057451 -0.1704116,0.094027 -0.2491824,0.155355 -0.025092,0.019538 -0.043689,0.052208 -0.070997,0.066395 -0.1322776,0.068723 -0.2875332,0.063865 -0.4259777,0.088528 -0.1381389,0.024608 -0.2682871,0.044263 -0.4082283,0.044263 -0.037886,0 -0.42720342,-0.030787 -0.45756546,0.043987 -0.0182721,0.045 0.10144432,0.043988 0.11785088,0.043988 0.20815976,0 0.41631948,0 0.62447918,0 0.2160441,0 0.4307487,0.049693 0.6464418,0.067621 0.053129,0.00443 0.1067583,-0.00661 0.1597416,0 0.1201995,0.014988 0.2341127,0.044263 0.3549811,0.044263 0.060967,0 0.1503788,-0.03311 0.2129885,-0.044263 0.106528,-0.018977 0.2201546,0.017666 0.319483,-0.044263 0.031549,-0.019668 0.1192298,-0.00209 0.1242432,-0.044262 7.479e-4,-0.00622 -0.010818,-0.00331 -0.015117,0 -0.00395,0.00303 0.00223,0.038186 0,0.043353 -0.013263,0.030553 -0.046825,0.049887 -0.069345,0.063928 -0.066249,0.041304 -0.1344906,0.060159 -0.1952396,0.1106579 -0.063857,0.053083 -0.2320168,0.089164 -0.3194829,0.13279 -0.026611,0.013277 -0.047681,0.056623 -0.070997,0.066395 -0.011071,0.00465 -0.02398,-0.00465 -0.035054,0 -0.09103,0.038155 -0.175666,0.1534204 -0.2480528,0.2210467 -0.015579,0.014553 -0.1446254,0.1200556 -0.1417714,0.1247685 0.0142,0.023451 0.040713,-0.029696 0.061789,-0.042834 0.056548,-0.035256 0.1001234,-0.00723 0.1597415,-0.022133 0.012908,-0.00323 0.022828,-0.016802 0.035276,-0.022134 0.022665,-0.00971 0.063425,0 0.087194,0 0.1454405,0 0.3315257,0.033697 0.456572,-0.044263 0.037689,-0.023497 0.1036456,0.023496 0.1413339,0 0.017722,-0.011043 0.076938,-0.031088 0.087652,-0.043586 0.00401,-0.00466 -0.00495,-0.017571 0,-0.020443 0.015958,-0.00925 0.037035,0.00977 0.052794,0 0.047366,-0.029345 0.1377176,-0.060788 0.1774908,-0.1103819 0.015084,-0.018807 0.018841,-0.04978 0.035499,-0.066395 0.021768,-0.021714 0.094946,-0.043987 0.1235783,-0.043987"
         id="path6516" />
      <path
         style="fill:#000000;stroke:#000000;stroke-width:0.34798"
         d="m 3.895604,8.2580257 c -0.033648,0.041419 -0.1574927,0.030801 -0.1677278,0.04371 -0.00416,0.00525 0.00492,0.018037 0,0.022134 -0.049002,0.040723 -0.13288,0.036318 -0.1853759,0.044263 -0.013561,0.041205 -0.2555328,-0.034767 -0.155286,-0.00169 0.012789,0.00422 0.022269,0.021989 0.035498,0.022132 0.040299,4.375e-4 0.079555,-0.023407 0.1197879,-0.020446 0.061237,0.00452 0.1200466,0.032299 0.1808335,0.042576 0.128239,0.021682 0.2755082,0 0.4053443,0 0.00376,0 -0.00751,0 -0.011272,0 -0.02874,0 -0.05748,0 -0.086219,0"
         id="path6518" />
      <path
         style="fill:#000000;stroke:#000000;stroke-width:0.34798"
         d="m 2.9766579,6.7007159 c 0.022929,-0.023478 0.1056764,-0.2501658 0.1313676,-0.2714772 0.026722,-0.022169 0.045945,0.00249 0.070225,-0.041804 0.011698,-0.021324 0.011976,-0.066113 0.029395,-0.066113"
         id="path6520" />
      <path
         style="fill:#000000;stroke:#000000;stroke-width:0.34798"
         d="m 3.0143769,6.5736491 c -0.029361,0.024121 -0.063701,0.040782 -0.088083,0.072374 -0.096625,0.1251943 0.00725,0.024493 -0.017529,0.086315 -3.001e-4,7.384e-4 -0.03512,0.043413 -0.035271,0.043981 -0.00375,0.013995 0.00374,0.030265 0,0.044263 -0.00585,0.021895 -0.029652,0.044045 -0.035499,0.065827 -0.00376,0.013995 0.00528,0.031067 0,0.044263 -3.117e-4,8.16e-4 -0.045905,0.030639 -0.053026,0.043988 -0.026648,0.049946 -0.00196,0.044263 -0.033032,0.044263"
         id="path6522" />
      <path
         style="fill:#000000;stroke:#000000;stroke-width:0.34798"
         d="m 7.1070262,10.85035 c 0.00423,0.07358 -0.050023,0.109971 -0.068836,0.168467 -0.00655,0.02037 0.012221,0.05006 0,0.06583 -0.00391,0.0051 -0.012923,-0.005 -0.016909,0 -0.00797,0.01 0.00497,0.02954 0,0.04218 -0.00707,0.01797 -0.026874,0.02455 -0.034057,0.04245 -0.00787,0.01964 0,0.04389 0,0.06584 0,0.01814 -0.032197,0.0955 -0.031855,0.09559 0.062522,0.018 0.125636,0.03014 0.1936297,0.04426 0.07573,0.01574 0.1296872,0.06979 0.1952396,0.110661 0.082758,0.05159 0.1628149,0.05289 0.2480685,0.08826 0.00794,0.0034 0.00981,0.01883 0.017751,0.02214 0.011225,0.0047 0.02402,-0.0035 0.035499,0 0.035707,0.01116 0.07054,0.03529 0.1064952,0.04426 0.080279,0.02002 0.1684929,0.02431 0.2484867,0.04426 0.012973,0.0032 0.023665,0.01475 0.035498,0.02213 0.017751,0.0073 0.034792,0.01831 0.053247,0.02214 0.051824,0.01076 0.1075617,-0.0082 0.1597415,0 0.076709,0.01189 0.1371284,0.02213 0.2125564,0.02213 0.05477,0 0.1422965,-0.02108 0.1930036,0 0.00794,0.0034 0.00954,0.02009 0.017751,0.02214 0.069909,0.01743 0.1612324,-0.0279 0.2286426,0 0.012398,0.0052 0.022697,0.01658 0.035053,0.02186 0.013057,0.0056 0.3241348,0.0092 0.3342442,0 0.030902,-0.0281 0.095882,-0.05549 0.1360764,-0.09309 0.1276683,-0.119399 -0.037457,0.02457 0.053247,-0.08852 0.038621,-0.04815 0.1163724,-0.04611 0.1597416,-0.06639 0.056766,-0.02653 0.1077579,-0.09875 0.1597416,-0.132794 0.01454,-0.0096 0.00458,0.04177 0,0.06143 -0.016289,0.06984 -0.045051,0.134482 -0.070997,0.199184 -0.033084,0.08251 -0.039247,0.16581 -0.070784,0.242365 -0.00252,0.0062 0,0.0138 0,0.0207 0,0.01381 0.00517,0.02919 0,0.0414 -0.011272,0.02665 -0.2000356,0.06583 -0.2278474,0.06583 -0.010621,0 -0.081286,-0.01 -0.087906,0 -4.363e-4,6.61e-4 0.1416442,0.01145 0.164038,0.01145 0.020902,0 0.4399452,0.02044 0.441409,0.02213 0.024359,0.02835 0,0.08309 0,0.124643 0,0.01043 0.00476,0.05519 0,0.0628 -9.974e-4,0.0016 -0.02344,-0.0013 -0.025462,0 -0.089977,0.06139 -0.218912,-0.0031 -0.3127554,-0.02649 -0.1138992,-0.0284 -0.2406527,0.02592 -0.3549812,0 -0.0053,-0.0012 0.00325,-0.01479 0,-0.02013 -0.021449,-0.03523 -0.00599,0.06744 -0.029172,-0.01818 -0.012341,-0.04555 -0.00691,-0.08506 -0.017751,-0.132236 -0.02302,-0.100105 -0.035498,-0.124714 -0.035498,-0.220269"
         id="path6524" />
      <path
         style="fill:#000000;stroke:#000000;stroke-width:0.34798"
         d="m 9.2919495,10.541804 c 0.1036393,0.194391 0.208453,0.155643 0.3812429,0.191551 0.023344,0.0048 0.04779,-0.0058 0.070997,0 0.1956598,0.04879 0.3608766,0.175993 0.5502206,0.243449 0.08101,0.02885 0.169651,0.0197 0.248486,0.04426 0.07229,0.02255 0.170621,0.04154 0.248487,0.02214 0.02594,-0.0065 0.04505,-0.03779 0.071,-0.04426 0.05415,-0.01351 0.08516,-0.0053 0.129762,-0.03759 0.05782,-0.04185 0.108963,-0.111145 0.177489,-0.132511 0.01148,-0.0036 0.02491,0.0066 0.03549,0 0.01497,-0.0094 0.02367,-0.02951 0.03549,-0.04426 0.02366,-0.01475 0.04642,-0.03202 0.071,-0.04426 0.06867,-0.03426 -0.08976,0.11066 0.071,-0.02214 0.0048,-0.004 -0.0056,-0.01956 0,-0.02184 0.0167,-0.0069 0.03647,0.0083 0.0528,0 0.02138,-0.01076 0.08272,-0.0945 0.09526,-0.08199 0.02718,0.02714 -0.02977,0.07967 -0.0355,0.1225 -0.0048,0.0359 0.0048,0.07477 0,0.110657 -0.0059,0.04432 -0.07329,0.226551 -0.05325,0.265304 0.0092,0.01777 0.33793,-0.06517 0.363528,-0.04426 0.01817,0.01486 -0.03123,0.06003 -0.03259,0.06513 -0.0039,0.01396 0.0053,0.03106 0,0.04426 -0.0026,0.0066 -0.01245,-0.0032 -0.01775,0 -0.09706,0.06014 -0.220768,0.04399 -0.334454,0.04399 -0.04567,0 -0.06925,-0.02104 -0.106278,-0.04399 -0.02158,-0.01336 -0.06276,0.0095 -0.08521,0 -0.02708,-0.01131 -0.05676,-0.0343 -0.08875,-0.04426 -0.02769,-0.0087 -0.06061,0.0087 -0.08829,0 -0.01282,-0.0039 -0.02267,-0.01815 -0.03551,-0.02214 -0.09206,-0.0287 -0.224688,0.02769 -0.298987,-0.06498"
         id="path6526" />
      <path
         style="fill:#000000;stroke:#000000;stroke-width:0.34798"
         d="m 10.159625,3.754044 c 0.06386,-0.1711952 0.08053,-0.3826195 0.17749,-0.5337406 0.05234,-0.081578 0.05291,-0.043434 0.08874,-0.1327902 0.04938,-0.1231485 0.08779,-0.2545844 0.141991,-0.3762381 0.06342,-0.1423566 0.01496,0.022113 0.08874,-0.1991849 0.04022,-0.1206387 0.02232,-0.1256731 0.07211,-0.2250732 0.01568,-0.031289 0.03857,-0.0565 0.05325,-0.088528 0.02367,-0.051641 0.03778,-0.1092919 0.071,-0.1549216 4.36e-4,-5.868e-4 -0.0084,0.069997 -0.01774,0.1278409 -0.01774,0.1106578 0.03551,-0.044263 0,0.13279 -0.04892,0.2439983 -0.03549,-0.082851 -0.03549,0.2007967 0,0.1524542 -0.01873,0.2978348 -0.01873,0.4510182 0,0.1444437 0.02238,0.369326 0,0.5084759 -0.01007,0.062538 -0.01774,0.0908 -0.01774,0.1540928"
         id="path6528" />
      <path
         style="fill:#000000;stroke:#000000;stroke-width:0.34798"
         d="m 10.679924,3.5384702 c -0.08888,0.1154427 -0.177729,0.2287632 -0.234949,0.3706182 -0.0048,0.012087 -0.01544,0.096756 -0.02698,0.086962 -0.01139,-0.00968 0,-0.2438108 0,-0.3342999"
         id="path6530" />
      <path
         style="fill:#0000ff;stroke:#000000;stroke-width:0.34798"
         d="m 5.2813181,7.3487703 c -0.014964,-0.1632013 0.013554,-0.148707 0.1064952,-0.2066515 0.019081,-0.011896 0.03344,-0.034384 0.053247,-0.044263 0.03296,-0.01644 0.071354,0.00626 0.1064951,0 0.037043,-0.0066 0.069586,-0.036593 0.1064952,-0.044262 0.1739137,-0.036141 0.3513937,-0.024492 0.5247705,-4.662e-4 0.1264262,0.017517 0.2545852,-0.012057 0.3794962,-0.023338 0.042385,-0.00381 0.085432,0.0076 0.127488,0 0.4626691,-0.083601 0.7148939,-0.6116988 0.9769487,-1.0316978 0.051582,-0.082671 0.1138117,-0.153452 0.1597412,-0.2434485 0.025609,-0.050178 0.043642,-0.1061958 0.070997,-0.1549216 0.040824,-0.07272 0.088745,-0.100001 0.088745,-0.199185 0,-0.01354 0.00149,0.027214 0,0.040637 -0.023491,0.212871 -0.00416,-2.554e-4 -0.052519,0.2194922 -0.00953,0.043275 -0.00961,0.089083 -0.017751,0.13279 -0.032225,0.1728124 -0.077624,0.3156951 -0.094488,0.4938245 -0.015865,0.1675646 -0.017751,0.3272357 -0.017751,0.4949249 0,0.00894 0.0046,0.058128 0,0.064306 -0.014229,0.019068 -0.041779,0 -0.062669,0"
         id="path6534" />
      <path
         style="fill:#0000ff;stroke:#000000;stroke-width:0.34798"
         d="m 5.1453921,6.9085076 c 0.2012416,-0.019091 0.4013625,0.023326 0.6011601,0.023326 0.047331,0 0.096075,0.014318 0.1419927,0 0.042832,-0.013351 0.1267831,-0.059369 0.1774903,-0.066394 0.029401,-0.00407 0.060695,0.01172 0.088745,0 0.058265,-0.02434 0.3537756,-0.1989208 0.4204965,-0.2522264 0.033669,-0.0269 0.060167,-0.066165 0.093456,-0.093793 C 6.8481675,6.370523 7.0329554,6.2528058 7.2042062,6.0842698 7.4626249,5.8299484 7.6678002,5.5094581 7.8978713,5.2194257 8.0483849,5.0296847 8.182651,4.8258562 8.3469695,4.655113 c 0.010161,-0.010562 0.026142,-0.010474 0.035499,-0.022134 0.00388,-0.00484 0.059648,-0.1345142 0.088524,-0.110658 0.00828,0.00687 -0.035499,0.3921857 -0.035499,0.5451838 0,0.1531284 -0.00873,0.3066444 0,0.4593841 0.00277,0.048647 0.015716,0.095705 0.019852,0.1442027 0.010977,0.1287117 0,0.268994 0,0.39837 0,0.1218721 0.012035,0.2561907 0,0.3762381 -0.00476,0.047502 -0.029747,0.1268684 -0.035498,0.1770531 -0.00899,0.078428 -0.0024,0.1668612 -0.017751,0.2434484 -0.020177,0.1006411 -0.017751,0.00711 -0.017751,0.064582"
         id="path6536" />
      <path
         style="fill:#0000ff;stroke:#000000;stroke-width:0.34798"
         d="m 7.2423174,6.9757024 c -0.149401,-0.010164 -0.2966015,0.00378 -0.4437262,0.022134 -0.1032,0.012865 -0.2007276,-0.00307 -0.3017341,0.022133 -0.1124325,0.028039 -0.2951971,0 -0.4082281,0 -0.1146727,0 -0.2421232,0.023455 -0.3549812,0 -0.013048,-0.00271 -0.022449,-0.019421 -0.035497,-0.022133 -0.026033,-0.00541 -0.2499578,-0.041356 -0.2798033,-0.022134 -0.099707,0.06422 -0.1197174,0.1797911 -0.1772696,0.2874352 -0.018688,0.034956 -0.043766,0.0415 -0.053025,0.087973 -0.00566,0.028458 0.00744,0.060156 0,0.087975 -0.017273,0.064602 -0.044591,-0.046419 -0.017532,0.087703 0.020371,0.1009679 0.282725,0.2568987 0.3440406,0.2921657 0.337388,0.1940565 0.7119278,0.3375879 1.0894496,0.2905137 0.1170655,-0.014599 0.2096727,-0.1226565 0.3017341,-0.1991847 0.04403,-0.036599 0.097118,-0.053556 0.1419923,-0.088528 0.093951,-0.073219 0.192048,-0.1448914 0.283985,-0.2213167 0.013889,-0.011543 0.1087553,-0.1150285 0.1419922,-0.1327902 0.022421,-0.011984 0.048575,-0.010143 0.070997,-0.022133 0.057277,-0.030608 0.1211678,-0.075542 0.1774905,-0.110658 0.046696,-0.029113 0.095392,-0.059472 0.1419923,-0.088528 0.024989,-0.015582 0.072182,-0.088527 0.088525,-0.088527"
         id="path6538" />
      <path
         style="fill:#0000ff;stroke:#000000;stroke-width:0.34798"
         d="m 7.474263,7.1139746 c 0.017751,-0.036887 0.039658,-0.071119 0.053247,-0.1106578 0.00697,-0.020257 -0.00763,-0.046237 0,-0.066117 C 7.544695,6.8924428 7.577574,6.8356752 7.561136,6.7758673 7.4996787,6.5522456 7.151079,6.5102881 6.9931667,6.5102881 c -0.02359,0 -0.048409,-0.00936 -0.070771,0 -0.087127,0.036522 -0.1182367,0.1068074 -0.053244,0.1878477"
         id="path6540" />
      <path
         style="fill:#0000ff;stroke:#000000;stroke-width:0.34798"
         d="m 5.2041188,5.9504692 c 0.1279831,-0.01238 0.1576303,-0.1370873 0.2587662,-0.1931355 0.058229,-0.032272 0.1164564,-0.065696 0.1774905,-0.088526 0.1034328,-0.03869 0.2181193,-0.041131 0.3194831,-0.088528 0.1025519,-0.047954 0.042746,-0.048961 0.1597415,-0.088528 0.036416,-0.012308 0.076074,-0.00771 0.1116198,-0.023496 0.046565,-0.020677 0.1983178,-0.1008668 0.2502133,-0.1562879 0.025553,-0.02729 0.044874,-0.06316 0.071443,-0.088898 0.1750155,-0.1695564 0.00294,0.02544 0.1777873,-0.1108429 0.021284,-0.016589 0.032822,-0.048203 0.053247,-0.066395 0.021531,-0.019176 0.047331,-0.029509 0.070996,-0.044263 0.023842,-0.029657 0.045937,-0.061675 0.07153,-0.088971 0.129055,-0.1376372 0.2926534,-0.2299172 0.4142488,-0.3814158 0.050395,-0.06279 0.09367,-0.1339107 0.1419922,-0.1991848 0.076488,-0.1033238 0.1827045,-0.1950076 0.2484869,-0.3098433 0.015379,-0.026848 0.020822,-0.061075 0.035499,-0.088528 0.00768,-0.014363 0.069716,-0.1395795 0.09649,-0.1106579 0.019567,0.021138 -0.013996,0.062342 -0.017751,0.094283 -0.00601,0.051095 0.00513,0.1036794 0,0.1549214 -0.036383,0.3629323 -0.071941,0.7199313 -0.071941,1.0870438"
         id="path6542" />
      <path
         style="fill:#0000ff;stroke:#000000;stroke-width:0.34798"
         d="m 7.505875,5.3373624 c -0.1803357,0.022506 -0.3613387,0.022133 -0.5437713,0.022133 -0.2651362,0 -0.468523,0.03572 -0.7027149,0.1817288 -0.042665,0.026601 -0.1053684,0.027249 -0.1419923,0.066395 -0.020087,0.021468 -0.017918,0.063869 -0.035498,0.088527 -0.072193,0.101272 -0.130582,0.1192537 -0.2136505,0.1998037 -0.049962,0.048447 -0.071087,0.137284 -0.1242432,0.1770534 -0.1019752,0.076293 -0.021776,-0.01711 -0.070997,0.044263 -0.035914,0.044781 -0.075674,0.1036838 -0.1064951,0.1549216 -0.025821,0.042927 -0.03879,0.1688523 -0.065751,0.2360883 -0.00458,0.011426 -0.014144,0.076863 -0.017423,0.081621 -0.0048,0.00697 -0.018023,-0.00764 -0.022116,0 -0.00303,0.00564 -0.00492,0.017463 0,0.020319 0.031563,0.018301 0.3663767,0.00575 0.4255222,0.022133 0.0311,0.00861 0.057643,0.035643 0.088745,0.044263 0.069525,0.019266 0.6331116,0.010617 0.692213,-0.022133 C 6.8716732,6.5414401 7.0080737,6.2964603 7.1646824,6.1011815 7.2539949,5.9898157 7.3487681,5.8882234 7.4486675,5.7913384 c 0.016837,-0.016331 0.038163,-0.025455 0.053247,-0.044263 0.020917,-0.026081 0.03233,-0.062445 0.053247,-0.088526 0.015084,-0.018807 0.043707,-0.020475 0.053247,-0.044263 0.013229,-0.032989 -0.016409,-0.079969 0,-0.1106579 0.00733,-0.013731 0.027233,-0.00925 0.035498,-0.022133 0.050018,-0.077959 0.025753,-0.091346 0.053247,-0.177053 0.00623,-0.019375 0.033773,-0.023509 0.0355,-0.044265 0.00168,-0.020221 -0.032609,0 -0.048913,0"
         id="path6544" />
      <path
         style="fill:#0000ff;stroke:#000000;stroke-width:0.34798"
         d="m 7.9426086,4.5211002 c 0.040613,-0.071145 0.077752,-0.1455803 0.1218395,-0.2134334 0.031616,-0.062799 0.086749,-0.098818 0.1242435,-0.1549215 0.04639,-0.069413 0.078206,-0.1524309 0.1242434,-0.2213166 0.064663,-0.096756 0.1348027,-0.187202 0.1958992,-0.2887389 0.077513,-0.1288188 -0.011225,-0.00365 0.089706,-0.200983 0.021125,-0.041304 0.053158,-0.072994 0.073423,-0.1149608 0.016536,-0.03424 0.018033,-0.078029 0.035827,-0.1112718 0.018682,-0.034898 0.051181,-0.055452 0.071383,-0.089008 0.040687,-0.067584 0.043459,-0.1458637 0.070997,-0.2213163 0.041542,-0.086281 0.057904,-0.1137948 0.089407,-0.2006278 0.01504,-0.041453 0.045609,-0.1434596 0.070996,-0.2004365 0.00868,-0.019481 0.1891255,-0.4413084 0.1952396,-0.4426332 0.010643,-0.00231 -0.00141,0.02706 0,0.040418 0.025052,0.2363329 0.017751,0.013629 0.017751,0.2861762 0,0.7891555 -0.00698,-0.1231001 0.024681,0.7603123 0.010512,0.2934733 -0.026918,0.6221996 0,0.9095585 0.0088,0.093942 0.054215,0.2013739 0.073116,0.2956442 0.030144,0.1503481 0.017751,0.3106242 0.017751,0.4647651"
         id="path6546" />
      <path
         style="fill:#0000ff;stroke:#000000;stroke-width:0.34798"
         d="M 8.6854818,4.5569635 C 8.2922775,4.5567855 8.3691036,4.9524278 8.330956,5.2853982 c 0.00168,0.056039 -0.028417,0.1019462 -0.0355,0.1549217 -0.011509,0.086067 -0.022085,0.3230822 0.034661,0.3938399 0.04153,0.051785 0.4820085,0.084122 0.5673078,0.066395 0.00825,-0.0017 0.010577,-0.016762 0.017751,-0.022133 0.041869,-0.031324 0.1020969,-0.051217 0.1419925,-0.088527 0.062316,-0.058279 0.246383,-0.4887816 0.2662358,-0.5754234 0.00567,-0.02476 0.062818,-0.2578345 0.019965,-0.2578345"
         id="path6548" />
      <path
         style="fill:#0000ff;stroke:#000000;stroke-width:0.34798"
         d="m 9.1622872,4.7490844 c 0.03997,0.00163 0.02583,-0.1886647 0.067908,-0.1951303 0.016042,-0.00246 0.007,0.042301 0,0.060459 -0.018438,0.047782 -0.065257,0.081747 -0.067908,0.1346699 0.064748,0.283253 0.058997,0.1311849 0.032411,0.3300955 -0.00193,0.014466 0.00645,0.031715 0,0.043972 -0.010611,0.020182 -0.038713,0 -0.05807,0"
         id="path6550" />
      <path
         style="fill:#0000ff;stroke:#000000;stroke-width:0.34798"
         d="m 8.0725719,4.3277933 c -0.00339,-0.013658 -0.1229386,-7.382e-4 -0.1295288,0.034776 -0.019512,0.1051583 -0.031732,0.063468 -0.053247,0.1305385 -0.00998,0.031121 -0.041856,0.3727532 -0.021817,0.3886831 0.095795,0.076147 0.2431301,0.043987 0.3533909,0.043987"
         id="path6552" />
      <path
         style="fill:#0000ff;stroke:#000000;stroke-width:0.34798"
         d="m 9.3750429,2.7635984 c 0.017751,-0.048169 0.02971,-0.1003638 0.053247,-0.1445096 0.018634,-0.034954 0.049443,-0.057245 0.071326,-0.089141 0.033335,-0.04859 0.060929,-0.1029358 0.089388,-0.1561286 0.032909,-0.061507 0.025594,-0.1685571 0.054402,-0.2463251 0.014944,-0.04035 0.041039,-0.073298 0.055752,-0.1137832 0.023054,-0.06343 0.031975,-0.1342072 0.057009,-0.196461 0.030838,-0.076684 0.075249,-0.1437402 0.1096658,-0.2180184 0.020719,-0.04471 0.03329,-0.095021 0.055562,-0.1385572 0.021122,-0.041297 0.05272,-0.073214 0.073873,-0.1144866 0.021923,-0.042775 0.029699,-0.096074 0.05462,-0.1362165 0.163231,-0.26294581 -0.0054,0.1245365 0.106656,-0.1549215 0.04169,-0.1039595 0.104723,-0.174111 0.159741,-0.26557981 0.02734,-0.0454457 0.04608,-0.15045589 0.08875,-0.17705343 0.01019,-0.006346 0.02416,-0.006785 0.03416,0 0.0049,0.003315 -0.02865,0.10077226 -0.0355,0.18618143 -0.003,0.0367031 0.0033,0.073998 0,0.11065794 -0.0026,0.0302315 -0.01183,0.0590178 -0.01775,0.0885277 -0.006,0.0631421 -0.01459,0.12598877 -0.01812,0.18942627 -0.01284,0.2304191 -0.03246,0.4685758 -0.01775,0.7010776 0.0029,0.045925 0.01593,0.090288 0.01867,0.1362295 0.0083,0.1385632 -0.02199,0.3055072 0,0.4426332 0.0026,0.016175 0.01454,0.028259 0.01775,0.044263 0.01109,0.055322 0,0.1336388 0,0.1913671"
         id="path6554" />
      <path
         style="fill:#0000ff;stroke:#000000;stroke-width:0.34798"
         d="m 10.031892,2.2191072 c -0.02951,0.022042 -0.060528,0.041203 -0.088526,0.066121 -0.040854,0.03636 -0.124099,0.1901165 -0.1597412,0.2434484 -0.037494,0.056104 -0.086127,0.099472 -0.1242434,0.1549216 -0.038248,0.05564 -0.069745,0.1197735 -0.1064951,0.1770531 -0.044435,0.069257 -0.086111,0.04958 -0.1242433,0.1327901 C 9.351989,3.1607092 9.415427,3.0094324 9.393145,3.148363 9.387955,3.180714 9.367473,3.206258 9.357646,3.236891 9.329846,3.323556 9.307093,3.4132429 9.286649,3.5024709 9.270201,3.5742519 9.196891,3.7652826 9.233402,3.8334002 c 0.032847,0.061283 0.090348,0.061704 0.14057,0.086753 0.1867347,0.093138 0.6245392,0.1589334 0.788133,0.020765 0.120621,-0.1018761 0.251725,-0.2470828 0.291719,-0.4299397 0.0078,-0.035586 -0.0033,-0.073998 0,-0.1106579 0.0072,-0.081588 0.02733,-0.1619566 0.0355,-0.2434483 0.0051,-0.051242 -0.0058,-0.1037991 0,-0.1549216 0.01356,-0.1183535 0.02854,-0.2326901 0.03551,-0.3541066 0.0017,-0.02945 0.01017,-0.2293458 0,-0.2420192 -0.01125,-0.014025 -0.113431,0 -0.137761,0"
         id="path6556" />
      <path
         style="fill:#0000ff;stroke:#000000;stroke-width:0.34798"
         d="M 9.5993839,4.0241511 C 9.5797384,4.1400372 9.4929808,4.2756142 9.4753612,4.385467 c -0.00463,0.028936 0.00574,0.059899 0,0.088526 -0.00782,0.03908 -0.038708,0.074451 -0.053025,0.1103817"
         id="path6558" />
      <path
         style="fill:#0000ff;stroke:#000000;stroke-width:0.34798"
         d="m 5.7082995,8.1147054 c 0.044656,-0.00738 0.09064,-0.00678 0.1339682,-0.022133 0.020517,-0.00727 0.03301,-0.035853 0.053247,-0.044263 0.058916,-0.024487 0.2806254,-0.00319 0.3382353,0 0.090822,0.00502 0.1823619,0.00538 0.2720651,0.023794 0.411191,0.08443 0.8070167,0.3025834 1.2275685,0.3265717 0.274913,0.015683 0.5448934,-0.034902 0.8178309,-0.054138 0.4519979,0 -0.05273,0.00934 0.3777667,-0.026318 0.030677,-0.00253 0.2809705,0.00303 0.2979085,0 0.074839,-0.013483 0.1458444,-0.050546 0.2200162,-0.06888 0.085918,-0.013438 0.1820116,-0.025722 0.2681283,-0.047525 0.016856,-0.00427 0.3833588,-0.1143838 0.4028878,-0.09275 0.0167,0.018502 0,0.055718 0,0.083576 0,0.1648456 -0.112636,0.3092552 -0.198697,0.4284905 -0.060738,0.084152 -0.1206451,0.19582 -0.1952395,0.2655798 -0.083929,0.078487 -0.191377,0.1277763 -0.2667374,0.2217341 -0.0375,0.046754 -0.047434,0.096402 -0.089375,0.1337653 -0.015202,0.1466274 -0.1003708,0.031712 -0.1426544,0.066808 -0.024625,0.02044 -0.03052,0.064913 -0.053247,0.088528 -0.014372,0.014934 -0.038023,0.00857 -0.053247,0.022133 -0.027233,0.024254 -0.044221,0.063486 -0.070997,0.088528 -0.021166,0.019794 -0.048559,0.026777 -0.070996,0.044263 -0.088567,0.069022 -0.2088946,0.1971432 -0.3017338,0.2434487 -0.1019941,0.050876 0.055767,-0.099892 -0.088745,0.044268 -0.048686,0.048572 -0.093308,0.1063539 -0.1419925,0.154922 -0.054831,0.054697 -0.1226597,0.078098 -0.1774905,0.1327905 -0.026133,0.02606 -0.042298,0.06705 -0.070997,0.08852 -0.016042,0.012 -0.037382,0.0098 -0.053247,0.02214 -0.072511,0.05651 -0.1241934,0.140124 -0.1952395,0.199185 -0.048256,0.04012 -0.1153647,0.04425 -0.1597414,0.08852 -0.017576,0.01754 -0.1024261,0.108592 -0.1169591,0.108592"
         id="path6560" />
      <path
         style="fill:#0000ff;stroke:#000000;stroke-width:0.34798"
         d="m 5.8605357,8.1925652 c -0.050027,0.017265 -0.106414,-0.019895 -0.1568654,-0.00275 -0.08474,-0.027356 -0.1147377,0.084576 -0.1774906,0.1106579 -0.016836,0.00701 -0.035843,-0.00435 -0.053247,0 -0.039861,0.00994 -0.1979098,0.1361194 -0.2307376,0.177053 -0.00936,0.011661 -0.00674,0.035112 -0.017751,0.044263 -0.00985,0.00817 -0.025654,-0.00817 -0.035499,0 -0.013343,0.011087 -0.073247,0.1291568 -0.088745,0.1549219 -0.015061,0.025039 -0.042021,0.038399 -0.053247,0.066394 -0.048511,0.120978 0.020175,0.060068 0,0.1103819 -0.0095,0.023677 -0.023519,0.044079 -0.035276,0.066118 -0.017751,0.044263 -0.037129,0.087567 -0.053247,0.1327901 -0.017492,0.049078 -0.014129,0.1082906 -0.035497,0.1549215 -0.012453,0.027177 -0.040332,0.039556 -0.053247,0.066395 -0.00609,0.012644 0.00286,0.02995 0,0.044262 -0.016252,0.081052 -0.068627,0.1244967 -0.088516,0.1988998 -0.01388,0.05192 -0.00895,0.2191952 0.00776,0.2526354"
         id="path6562" />
      <path
         style="fill:#0000ff;stroke:#000000;stroke-width:0.34798"
         d="m 4.4809932,9.4729131 c 0.1936408,0.216988 0.3509501,0.4898044 0.5843125,0.6567949 0.033005,0.02361 0.074345,0.02357 0.1083245,0.04493 0.040895,0.02571 0.075706,0.06433 0.1143201,0.09503 0.030193,0.024 0.064786,0.04012 0.092049,0.06906 0.016239,0.01725 0.01814,0.05093 0.035497,0.06639 0.025927,0.02309 0.060249,0.02649 0.088745,0.04426 0.019081,0.01189 0.03344,0.03439 0.053247,0.04426 0.027467,0.0137 0.059461,-0.0052 0.088745,0 0.061005,0.01086 0.1175032,0.05705 0.1774905,0.06639 0.1115583,0.01739 0.2251793,0.0046 0.3372319,0.02213 0.2258584,0.03522 0.4552212,0.04616 0.6830709,0.06801 0.035882,0.0034 0.070727,0.01717 0.1064952,0.02213 0.043315,0.0061 0.5469599,0.01197 0.5668224,0 0.030119,-0.01816 0.032391,-0.05533 0.070997,-0.06496 0.029505,-0.0073 0.096264,0.01744 0.1242432,0 0.046257,-0.02884 -0.047981,-0.02214 0.016139,-0.02214"
         id="path6564" />
      <path
         style="fill:#0000ff;stroke:#000000;stroke-width:0.34798"
         d="M 6.6173544,8.5217275 C 6.4540576,8.5551565 6.323534,8.4083437 6.173628,8.3668056 c -0.051978,-0.014408 -0.1067582,0.00661 -0.1597413,0 -0.030018,-0.00373 -0.058811,-0.017467 -0.088745,-0.022134 -0.041095,-0.00641 -0.083083,0.0057 -0.1242431,0 -0.044177,-0.00613 -0.1117442,-0.039231 -0.1597418,-0.022133 -0.0093,0.00331 -0.1739134,0.1069424 -0.1774904,0.1106579 -0.016389,0.017027 -0.019112,0.049367 -0.035499,0.066395 -0.020327,0.021123 -0.048982,0.025964 -0.070997,0.044263 -0.036734,0.030535 -0.043871,0.068378 -0.070996,0.1106579 -0.020907,0.032586 -0.053777,0.052743 -0.070997,0.088525 -0.019252,0.040009 -0.016246,0.092782 -0.035498,0.1327901 -0.017346,0.036045 -0.053652,0.096744 -0.070997,0.1327902 -0.038607,0.080234 -0.00693,0.043166 -0.017751,0.1106579 -0.01665,0.1038079 -0.05932,0.2120029 -0.088745,0.3098433 -0.01675,0.05569 -0.060648,0.09686 -0.070997,0.1549215 -0.00771,0.04321 0.00296,0.08868 0,0.13279 -0.017261,0.2582593 -0.045028,0.2196789 0.053247,0.4647646 0.00837,0.02088 0.00578,0.04847 0.017751,0.06639 0.081653,0.122178 0.338787,0.248909 0.4180029,0.301834 0.1431266,0.09562 0.2784429,0.212829 0.4289066,0.290912 0.1384724,0.07186 0.2947638,0.08959 0.4380572,0.137229 0.048834,0.01624 0.1249903,0.08198 0.1774907,0.08852 0.049859,0.0062 0.1851541,0.01321 0.2484865,0 0.1094711,-0.02275 0.2223876,-0.06554 0.3194829,-0.132795 0.037295,-0.02583 0.068335,-0.06474 0.1064952,-0.08852 0.1206247,-0.07521 0.2486194,-0.132926 0.3549812,-0.243446 0.032139,-0.0334 0.056077,-0.07808 0.088745,-0.110658 0.042464,-0.04236 0.1035334,-0.0627 0.1419923,-0.11066 0.015084,-0.01881 0.022172,-0.04563 0.035497,-0.06639 0.054563,-0.08504 0.096306,-0.08525 0.1419923,-0.199184"
         id="path6566" />
    </g>
  </g>
</svg>
