<?xml version="1.0" encoding="UTF-8" standalone="no"?>
<!-- Created with Inkscape (http://www.inkscape.org/) -->

<svg
   width="48"
   height="48"
   viewBox="0 0 12.7 12.7"
   version="1.1"
   id="svg3801"
   inkscape:version="1.2.2 (b0a8486541, 2022-12-01)"
   sodipodi:docname="bird1.svg"
   xmlns:inkscape="http://www.inkscape.org/namespaces/inkscape"
   xmlns:sodipodi="http://sodipodi.sourceforge.net/DTD/sodipodi-0.dtd"
   xmlns="http://www.w3.org/2000/svg"
   xmlns:svg="http://www.w3.org/2000/svg">
  <sodipodi:namedview
     id="namedview3803"
     pagecolor="#ffffff"
     bordercolor="#999999"
     borderopacity="1"
     inkscape:showpageshadow="0"
     inkscape:pageopacity="0"
     inkscape:pagecheckerboard="0"
     inkscape:deskcolor="#d1d1d1"
     inkscape:document-units="px"
     showgrid="false"
     inkscape:zoom="15.369628"
     inkscape:cx="30.677385"
     inkscape:cy="21.698638"
     inkscape:window-width="1918"
     inkscape:window-height="1036"
     inkscape:window-x="0"
     inkscape:window-y="18"
     inkscape:window-maximized="1"
     inkscape:current-layer="layer1" />
  <defs
     id="defs3798" />
  <g
     inkscape:label="Layer 1"
     inkscape:groupmode="layer"
     id="layer1">
    <g
       id="g6983">
      <path
         style="fill:#ffcc00;stroke:#000000;stroke-width:0.264583"
         d="M 5.7238056,3.0283386 C 5.6587802,2.9151248 5.5693519,2.8610812 5.4747549,2.779998 5.4562705,2.7641544 5.4443923,2.7401771 5.4231108,2.728354 5.391386,2.7107292 5.3535188,2.707403 5.3198228,2.6939246 5.0970119,2.6048003 4.8867004,2.513348 4.6463233,2.4866394 c -0.08301,-0.00922 -0.1592897,0.00979 -0.2410057,0.017215 -0.096988,0.00882 -0.076648,-0.014619 -0.1721468,0.017215 C 4.1849328,2.5371484 3.9373112,2.7480705 3.888877,2.7965046 3.801458,2.8839246 3.87225,2.8419216 3.802804,2.8997928 3.747666,2.9457418 3.726065,2.9483768 3.6823012,3.0030809 3.5864542,3.1228897 3.5171462,3.2662801 3.4412956,3.3990187 c -0.032128,0.056223 -0.077894,0.1128938 -0.1032882,0.1721467 -0.028118,0.065608 -0.04029,0.1384512 -0.051644,0.2065764 -0.01016,0.060962 -0.049315,0.1135158 -0.068859,0.1721469 -0.023817,0.071451 -0.032123,0.1525551 -0.052011,0.2252546 -0.031713,0.1159262 -0.062746,0.2245546 -0.073069,0.345824 -0.00397,0.046662 0.00918,0.094572 0,0.1404934 -0.00252,0.012581 -0.014103,0.021982 -0.017215,0.03443 -0.012841,0.051362 -0.010807,0.2386147 0,0.2926495 0.014013,0.070064 0.034619,0.1035669 0.069366,0.1729933 0.050716,0.1013331 0.088451,0.2167912 0.1549322,0.3098644 0.08608,0.1205114 0.2293333,0.2236441 0.3442937,0.3098644 0.043451,0.032588 0.1108891,0.115696 0.1549322,0.1377175 0.010265,0.00513 0.023296,-0.00278 0.034429,0 0.049411,0.012353 0.081037,0.042548 0.1205028,0.068859 0.014204,0.00947 0.034478,-0.00336 0.051214,0 0.03457,-0.00395 0.056095,0.026935 0.086073,0.034429 0.059144,0.014785 0.1287337,0.025768 0.1893615,0.034429 0.073105,0.010443 0.1506859,-0.010443 0.2237909,0 0.069477,0.00992 0.1363801,0.025654 0.2065762,0.034429 0.034164,0.00427 0.069887,-0.00835 0.103288,0 0.00787,0.00196 0.00926,0.015624 0.017214,0.017214 0.056569,0.011314 0.2041652,0.00441 0.2582201,-0.017214 0.019209,-0.00768 0.032434,-0.026746 0.051644,-0.034429 0.033295,-0.013317 0.082626,-0.015491 0.1205027,-0.034429 0.059854,-0.029927 0.1136493,-0.07079 0.1721469,-0.1032881 0.1127789,-0.062655 -0.039298,0.018838 0.068859,-0.017214 0.056349,-0.018783 0.1231363,-0.083745 0.1721467,-0.1205026 0.038554,-0.028915 0.06564,-0.07317 0.1032883,-0.1032883 0.083066,-0.066453 0.030091,0.0022 0.1205026,-0.1032881 0.035913,-0.041898 0.051605,-0.094632 0.086073,-0.1377174 0.02585,-0.032312 0.042369,-0.0715 0.068859,-0.1032881 0.013245,-0.015893 0.037014,-0.019799 0.051644,-0.034429 0.06797,-0.06797 0.1480891,-0.3271859 0.1893615,-0.4303673 0.023185,-0.057966 0.080772,-0.094889 0.1032883,-0.1549321 0.010274,-0.027396 0.00952,-0.057845 0.017214,-0.086073 C 6.432086,4.5649868 6.473024,4.485912 6.483792,4.4213037 6.499431,4.3274707 6.482442,4.2214594 6.501006,4.1286539 c 0.00251,-0.012581 0.014084,-0.021987 0.017214,-0.03443 0.00814,-0.032356 0.0069,-0.3339322 0,-0.3546247 -0.00257,-0.0077 -0.015245,-0.00934 -0.017214,-0.017214 -0.00835,-0.033402 0.00566,-0.069327 0,-0.1032881 -0.01144,-0.068656 -0.070865,-0.2099852 -0.1024742,-0.2736008 -0.013723,-0.02762 -0.054817,-0.041371 -0.068644,-0.068859 -0.00888,-0.017663 -0.010065,-0.03928 -0.034222,-0.051435 -0.0098,-0.00493 -0.025421,0.00801 -0.032923,0 -0.00387,-0.00414 0.00401,-0.012993 0,-0.017 -0.011221,-0.011223 -0.078863,-0.023318 -0.0829,-0.027355 -0.00387,-0.00387 0.00487,-0.013919 0,-0.0164 -0.00957,-0.00487 -0.022712,0.00501 -0.032205,0 -0.00501,-0.00264 0.00401,-0.01299 0,-0.016996 -0.028916,-0.028916 -0.053624,-0.023686 -0.085855,-0.034429 -0.020371,-0.00679 -0.032329,-0.041925 -0.051644,-0.051644 C 5.9377118,3.0249333 5.8579295,2.9724043 5.786787,2.9249763 5.718244,2.8792813 5.703175,2.8405073 5.61706,2.8405073"
         id="path4733" />
      <path
         style="fill:#ffcc00;stroke:#000000;stroke-width:0.264583"
         d="m 6.4193634,4.9034859 c 0.04063,0 0.081261,0 0.1218909,0 0.066569,0 0.1216464,0.017214 0.1889318,0.017214 0.039632,0 0.1156235,-0.012811 0.154055,0 0.0077,0.00257 0.00952,0.014647 0.017214,0.017214 0.025146,0.00838 0.059908,-0.00647 0.085644,0 0.033858,0.00852 0.069081,0.028728 0.103288,0.034429 0.02264,0.00377 0.046218,-0.00377 0.068859,0 0.025313,0.00422 0.043695,0.029397 0.068859,0.034429 0.01688,0.00338 0.034764,-0.00338 0.051644,0 0.025165,0.00503 0.043963,0.028205 0.068859,0.034429 0.011134,0.00278 0.023543,-0.00363 0.034429,0 0.0077,0.00257 0.00934,0.015245 0.017214,0.017214 0.0167,0.00418 0.034764,-0.00338 0.051644,0 0.012581,0.00251 0.022953,0.011478 0.034429,0.017214 0.017214,0.00574 0.033745,0.014232 0.051644,0.017214 0.055913,0.00932 0.1162336,0.0079 0.172147,0.017214 0.054103,0.00902 0.1395028,0.035024 0.1893615,0.051644 0.052077,0.017359 0.067857,0.044123 0.1205029,0.051644 0.022722,0.00325 0.046218,-0.00377 0.068859,0 0.061835,0.010306 0.2186966,0.069245 0.2754349,0.1032883 0.070061,0.042036 -0.00108,0.02833 0.068859,0.051644 0.092376,0.030792 0.1155134,0.040542 0.2065761,0.086073 0.088539,0.044269 0.186935,0.076253 0.2754352,0.1205026 0.028495,0.014248 0.054158,0.038878 0.086073,0.051644 0.040772,0.016309 0.082168,0.021651 0.1205029,0.034429 0.015396,0.00513 0.020926,0.025426 0.034429,0.034429 0.041743,0.027828 0.1025086,0.050865 0.1377175,0.086074 0.00907,0.00907 0.010097,0.023754 0.017214,0.034429 0.058691,0.088036 0.1642647,0.1590098 0.223791,0.2582204 0.00934,0.01556 0.00633,0.037127 0.017214,0.051644 0.0077,0.010266 0.026413,0.0072 0.034429,0.017214 0.038462,0.048077 0.055212,0.1003438 0.068859,0.1549323 0.017195,0.068783 0.017346,2.641e-4 0.051644,0.068859 0.00513,0.010266 -0.00363,0.023543 0,0.034429 0.00654,0.019627 0.026745,0.032434 0.034429,0.051644 0.044913,0.1122833 0.066366,0.2260526 0.086074,0.3442938 0.014735,0.088413 -0.021664,0.1887826 0,0.275435 0.00196,0.00787 0.013586,0.00996 0.017214,0.017214 0.020635,0.04127 -0.012044,0.3480644 -0.017214,0.3842541 -0.00832,0.05826 -0.04227,0.098686 -0.051644,0.1549321 -0.00283,0.016981 0.00545,0.035313 0,0.051644 -0.037723,0.056585 -0.033826,0.040925 -0.051644,0.1032883 -0.03031,0.1060852 -0.090305,0.2968813 -0.172147,0.378723 -0.082919,0.082919 -0.3325929,0.1185527 -0.4475818,0.1377175 -0.094914,0.015819 -0.1977364,-0.015819 -0.2926498,0 -0.134361,0.022394 -0.4129154,0.036923 -0.55087,0.017214 -0.017963,-0.00257 -0.033588,-0.015409 -0.051644,-0.017214 -0.068683,-0.00687 -0.1546143,0.013835 -0.2237909,0 -0.017793,-0.00356 -0.033588,-0.015409 -0.051644,-0.017214 -0.090495,-0.00905 -0.1851612,0.011285 -0.2754349,0 -0.046953,-0.00587 -0.091043,-0.02665 -0.1377175,-0.034429 -0.073419,-0.012237 -0.1503439,-0.00497 -0.2237909,-0.017214 -0.012658,-0.00212 -0.021847,-0.014698 -0.03443,-0.017214 C 7.1503707,8.1918012 7.0314045,8.1787554 6.9182369,8.1625886 6.8307262,8.150087 6.7463464,8.094466 6.6600165,8.0765151 6.5815117,8.0601903 6.5018359,8.0495882 6.4221463,8.0406966 c -0.023016,-0.00257 -0.047197,0.00633 -0.069472,0 -0.019902,-0.00566 -0.031751,-0.028745 -0.051644,-0.034429 -0.022069,-0.00631 -0.046276,0.00411 -0.068859,0 C 6.1167489,7.9852807 5.8795703,7.9166337 5.7673745,7.8685499 5.6442761,7.8157934 5.4989013,7.7205793 5.4058661,7.6275442 5.3912373,7.6129153 5.3860673,7.5905297 5.3714367,7.5759001 5.3568078,7.5612713 5.3344225,7.5561014 5.3197926,7.5414707 5.2593925,7.4810706 5.2241849,7.394219 5.1648606,7.3348946 5.1502318,7.3202658 5.1261412,7.3166198 5.1132165,7.3004652 5.1018818,7.2862967 5.1053373,7.264381 5.0960028,7.2488212 5.0793023,7.2209867 5.0466204,7.2059306 5.0271441,7.1799623 4.9870897,7.1265567 4.9805785,7.0432783 4.9410707,6.9906008 4.9219598,6.9651188 4.8874386,6.9654336 4.8722118,6.9045268 4.8407849,6.7788185 4.8002883,6.6512613 4.7689238,6.5258038 4.7580282,6.4822266 4.7484265,6.4298828 4.7344943,6.3880863 c -0.00257,-0.0077 -0.014629,-0.00952 -0.017214,-0.017214 -0.00463,-0.013777 -0.010922,-0.1381305 -0.010922,-0.1626716"
         id="path4735" />
      <path
         style="fill:#ffcc00;stroke:#000000;stroke-width:0.264583"
         d="m 6.7781421,4.9859862 c 0.078159,0.016566 0.1501349,0.033953 0.2281219,0.046951 0.064518,0.010753 0.1410436,0 0.2065764,0 0.1322909,0 0.2819434,0.018746 0.4131524,0 0.017963,-0.00257 0.033681,-0.014647 0.051644,-0.017214 0.067098,-0.00959 0.1402574,0.013264 0.2065763,0 0.061874,-0.012375 0.1099061,-0.058485 0.1721469,-0.068859 0.016981,-0.00283 0.034764,0.00338 0.051644,0 C 8.155057,4.9374542 8.1756,4.8862852 8.2112921,4.8607912 8.2864491,4.8071072 8.3612591,4.7611772 8.4356496,4.7054818 8.6515406,4.5438446 8.8435165,4.3714406 9.0180446,4.1678244 9.1789716,3.9800763 8.9974892,4.2055939 9.1557624,4.0473215 9.2813238,3.9217597 9.1795881,4.004958 9.2590504,3.909604 9.3451667,3.8062643 9.45103,3.7212733 9.5344854,3.6169542 c 0.043741,-0.02059 0.028548,-0.072493 0.051644,-0.1032881 0.0077,-0.010265 0.025358,-0.00814 0.034429,-0.017215 0.03169,-0.031691 0.059183,-0.067435 0.086074,-0.103289 0.052496,-0.069995 0.075146,-0.1654112 0.1205026,-0.2410056 0.017558,-0.029264 0.049449,-0.056958 0.068859,-0.086073 0.012211,-0.018315 0.061435,-0.1563223 0.084397,-0.1518379 0.00454,8.864e-4 0.024024,0.075914 0.028405,0.1065774 0.0071,0.049752 -0.00987,0.1055781 0,0.1549321 0.01949,0.097467 0.01721,0.1918843 0.01721,0.2926497 0,0.1028878 0.02322,0.1917865 0.03443,0.2926497 0.0051,0.045625 -0.009,0.092703 0,0.1377174 0.0025,0.012581 0.01511,0.021773 0.01721,0.03443 0.01281,0.07683 -0.01885,0.165622 0,0.2410055 0.0075,0.029979 0.02773,0.055908 0.03443,0.086073 0.01953,0.087868 0,0.2021773 0,0.2926498 0,0.083584 0.01175,0.1759505 0,0.2582201 -0.0033,0.023421 -0.01486,0.045317 -0.01721,0.068859 -0.0034,0.034258 0.0057,0.069327 0,0.103288 -0.006,0.035798 -0.02737,0.067689 -0.03443,0.1032883 -0.02386,0.1203613 -0.01391,0.2512592 -0.05195,0.3654034 -0.014584,0.04375 -0.037061,0.076753 -0.051644,0.1205026 -0.072538,0.2176142 0.048469,-0.13031 -0.051644,0.1032883 -0.00932,0.021746 -0.00891,0.046706 -0.017214,0.068859 -0.00901,0.02403 -0.027379,0.044184 -0.034429,0.068859 -0.00473,0.016552 0.00545,0.035313 0,0.051644 -0.02656,0.079681 -0.1090232,0.1721422 -0.1549321,0.2410055 -0.015864,0.023797 -0.1507726,0.214385 -0.1507726,0.1745766"
         id="path4737" />
      <path
         style="fill:#ffcc00;stroke:#000000;stroke-width:0.264583"
         d="m 6.8237206,4.7078559 c 0.1124871,-0.01674 0.1886495,-0.090057 0.2839709,-0.1377175 0.080084,-0.040042 0.1519235,-0.057619 0.223791,-0.1205026 0.015571,-0.013623 0.019799,-0.037014 0.034429,-0.051644 0.020288,-0.020288 0.049974,-0.030044 0.068859,-0.051644 0.00463,-0.0053 0.1534703,-0.2212864 0.1558137,-0.2251919 0.01596,-0.026599 0.016568,-0.061145 0.034589,-0.086394 0.032101,-0.044978 0.1076307,-0.067851 0.1377175,-0.1205029 0.1183172,-0.2957931 -0.046388,0.083194 0.086074,-0.1377175 0.022601,-0.037694 0.029835,-0.08321 0.05198,-0.1211747 0.00867,-0.062035 0.074301,-0.076976 0.1038312,-0.1212368 0.040527,-0.060744 0.082598,-0.1261876 0.1205029,-0.1893615 0.015899,-0.026498 0.017288,-0.060362 0.034429,-0.086073 0.013504,-0.020257 0.036435,-0.032634 0.051644,-0.051644 0.066319,-0.082899 0.1380352,-0.2247446 0.1721466,-0.3270791 0.00183,-0.00544 0,-0.011476 0,-0.017215 0,-0.011337 -0.00361,-0.023264 0,-0.03401 0.00719,-0.0214 0.033139,-0.053014 0.033139,-0.066061 0,-0.00368 0,0.00735 0,0.011031 0,0.020822 0,0.041645 0,0.062467 0,0.060561 -0.00997,0.1295531 0,0.1893615 0.030989,0.1859366 0.00654,0.3876778 0.051644,0.5680848 0.021643,0.086577 -7.49e-5,0.51689 -0.017214,0.6197285 -0.00618,0.037085 0.017105,0.1109396 0,0.145995 -0.018063,0.037019 -0.031003,0.080838 -0.049809,0.1184513 -0.00464,0.00928 0.00481,0.021939 0,0.031136 -0.023056,0.044068 -0.046946,0.055105 -0.046946,0.1003417 -0.105044,0.093673 -0.2091262,0.1869839 -0.2827435,0.3080946 -0.00279,0.00459 0.0038,0.012308 0,0.016103 -0.00688,0.00688 -0.019288,0.00659 -0.023804,0.015924"
         id="path4739" />
      <path
         style="fill:#ffcc00;stroke:#000000;stroke-width:0.264583"
         d="m 7.1151851,4.6623817 c -0.025347,0.014438 -0.051573,0.027435 -0.076041,0.043318 -0.080703,0.052384 -0.1044813,0.1362406 -0.2062737,0.1616888 -0.050171,0.012544 -0.1738106,0.00167 -0.2065763,0.034429"
         id="path4741" />
      <path
         style="fill:#000000;stroke:#000000;stroke-width:0.264583"
         d="m 7.3659696,4.8049193 c -0.026753,0.022807 -0.19255,-0.02105 -0.2205874,0 -0.020286,0.01523 0.045056,0.062698 0.053002,0.066671 0.032541,0.016272 0.1090822,0.059314 0.1377175,0.068859 0.025749,0.00858 0.1006266,0.00375 0.1241571,0.017214 0.024635,0.014102 0.0279,0.026403 0.034216,0.032316 0.02468,0.023111 0.1670217,0.070141 0.2043655,0.085078 0.025517,0.010208 0.054916,0.00564 0.08385,0.017214 0.05265,0.021061 0.099775,0.017214 0.1549323,0.017214 0.00623,0 -0.014986,-0.00493 -0.014986,-0.01116"
         id="path4743" />
      <path
         style="fill:#ff6600;stroke:#000000;stroke-width:0.264583"
         d="m 4.3878235,3.6309173 c 0.095342,0.058173 0.058988,0.027219 0.1159165,0.084149 0.011477,0.011475 0.022953,0.022953 0.034429,0.034429 0,0.00567 -0.00303,0.012213 0,0.017 0.023815,0.037597 0.1339783,0.1048101 0.1555848,0.1436843 0.00987,0.017761 0.093707,-0.01112 0.1115528,-0.01112 0.021357,0 0.1390743,-0.2237412 0.1076957,-0.2837061 -0.00836,-0.015983 -0.180681,-0.080146 -0.2025499,-0.085647 -0.019005,-0.00478 -0.063231,0.00981 -0.081489,0 -0.013324,-0.00716 -0.039517,-0.028204 -0.060133,-0.016401 -0.024999,0.014311 -0.037238,0.050949 -0.062965,0.064353 -0.038282,0.019947 -0.097595,0.015243 -0.118042,0.053259 -0.072822,0.135395 0.019302,0.085614 0.043891,0.1329163 0.00628,0.012078 -0.0079,0.038722 0,0.049605 0.00747,0.010292 0.05671,-0.00598 0.068742,0 0.00722,0.00359 0.00998,0.013435 0.017215,0.017007 0.010225,0.00505 0.025445,-0.00729 0.034214,0 0.00362,0.00301 -0.00333,0.010803 0,0.014137 0.00708,0.00708 0.022967,-0.00708 0.03005,0 0.00375,0.00375 -0.0048,0.013666 0,0.015915 0.010263,0.0048 0.023209,-0.00346 0.034,0 0.00589,0.00188 0.044534,0.065359 0.044534,0.029748"
         id="path4745" />
      <path
         style="fill:#ff6600;stroke:#000000;stroke-width:0.264583"
         d="m 3.2312432,3.9295996 c -0.080073,-0.010025 -0.1534533,0.00452 -0.2296428,0.017214 -0.056983,0.0095 -0.155617,-0.025479 -0.2065763,0 -0.014517,0.00726 -0.019913,0.027171 -0.034429,0.034429 -0.01851,0.00926 -0.061573,-0.00536 -0.081966,0 -0.040156,0.010544 -0.068775,0.057355 -0.1032881,0.068859 -0.010888,0.00363 -0.023296,-0.00278 -0.034429,0 -0.036102,0.00902 -0.066846,0.044355 -0.1032881,0.051644 -0.01688,0.00338 -0.034764,-0.00338 -0.051644,0 -0.1031642,0.020632 -0.2119696,0.081345 -0.3098644,0.1205027 -0.05214,0.020857 -0.1099086,0.028991 -0.1549321,0.051644 -0.00829,0.00417 -0.2327475,-0.00241 -0.2143058,0.026313 0.028802,0.044869 0.1331279,0.057098 0.1546554,0.077237 0.00392,0.00367 -0.00266,0.011443 0,0.016103 0.00507,0.00887 0.079056,0.043294 0.091559,0.049545 0.046361,0.02318 0.099303,0.098561 0.1357301,0.1349878 0.032643,0.032643 0.075796,0.045264 0.1028584,0.085859 0.025681,0.038522 0.048422,0.073167 0.086073,0.103288 0.076573,0.061259 0.1587856,0.097994 0.2397632,0.1375027 0.027359,0.013348 0.043097,0.050836 0.068217,0.067725 0.043309,0.029117 0.086532,0.039431 0.13291,0.067292 0.043838,0.026337 0.2899205,0.1431134 0.2899205,0.086807"
         id="path4810" />
      <path
         style="fill:#ff6600;stroke:#000000;stroke-width:0.264583"
         d="m 8.3504429,8.4522973 c 0.06298,0.050619 0.0898,0.1625608 0.1549996,0.2060268 0.049611,0.033074 0.1134438,0.066435 0.1717275,0.085863 0.030988,0.010329 0.070471,0.00654 0.102643,0.017214 0.05799,0.019248 0.090018,0.072918 0.1547178,0.085858 0.1209704,0.024193 -0.1063385,-0.052661 0.1032883,0.017214 0.024344,0.00811 0.043695,0.029397 0.068859,0.034429 0.063748,0.01275 0.1231733,0.014573 0.1893615,0.034429 0.02458,0.00737 0.043963,0.028205 0.068859,0.034429 0.072652,0.018164 0.1493901,0.00482 0.223791,0.017214 0.1511136,0.025186 -0.026315,0.00633 0.086073,0.034429 0.071494,0.017873 0.3529824,-0.011351 0.3609624,0 0.006,0.00858 -0.0103,0.029489 0,0.031482 0.01048,0.00204 0.199409,-0.1400873 0.228015,-0.159158 0.09318,-0.062119 -0.03303,0.019457 0.01721,-0.034214 0.0036,-0.00387 0.01217,0.00375 0.01591,0 0.0083,-0.00833 0.02658,-0.064372 0.05003,-0.066545 0.01914,-0.00177 -0.02283,0.031011 -0.03262,0.047557 -0.01573,0.026598 -0.02061,0.058434 -0.03443,0.086074 -0.01368,0.027351 -0.02476,0.068151 -0.05164,0.086073 -0.01068,0.00712 -0.02731,0.00654 -0.03443,0.017214 -0.0064,0.00955 0.0036,0.023543 0,0.034429 -0.01342,0.040252 -0.05891,0.034429 -0.09071,0.034429 -0.01098,0 -0.02516,0.00776 -0.03292,0 -0.03867,-0.03867 0.05086,0.027536 0.07493,0.043581 9.79e-4,6.615e-4 0.03163,0.032131 0.03361,0.033067 0.01517,0.00715 0.0499,0.00175 0.05557,0.017489 0.0039,0.010729 -0.0063,0.024733 0,0.034208 0.0071,0.010663 0.02731,0.00654 0.03443,0.017214 0.0047,0.00705 0.01721,0.064626 0.01721,0.079637 0,0.00768 -0.0124,-0.00961 -0.0164,-0.016155 -2.63e-4,-4.233e-4 2.6e-4,-0.033648 0,-0.034215 -0.0072,-0.015756 -0.0364,-0.033753 -0.04856,-0.045914 -0.01743,-0.017431 -0.0335,-0.081503 -0.05164,-0.1008766 -0.0094,-0.010057 -0.0516,-0.026048 -0.06546,-0.032811 -7.14e-4,-3.439e-4 -0.06804,-0.074832 -0.0801,-0.082867 -0.0032,-0.00214 -0.043503,-0.00257 -0.047446,0 -0.0057,0.00369 0,0.061048 0,0.06868 0,0.1322867 0.039257,0.1467702 0.078889,0.2671136 0.0018,0.00538 0,0.011332 0,0.016997 0,0.011404 -0.0036,0.023397 0,0.034211 0.0099,0.029692 0.05083,0.051411 0.05083,0.085258"
         id="path5495" />
      <path
         style="fill:#ff6600;stroke:#000000;stroke-width:0.264583"
         d="m 7.0967137,8.1970064 c 0.014348,0.1133207 -0.022344,0.2369933 0,0.3487192 0.00969,0.048462 0.036342,0.091812 0.051644,0.1377175 0.026586,0.079759 0.042156,0.1469358 0.086073,0.2237909 0.042851,0.074988 0.2693564,0.3225202 0.3442938,0.3787233 0.010266,0.0077 0.025358,0.00814 0.034429,0.017214 0.00907,0.00907 0.00695,0.026731 0.017214,0.034429 0.014518,0.010888 0.036084,0.00788 0.051644,0.017214 0.037891,0.022736 0.035313,0.06371 0.068859,0.086073 0.03386,0.022574 0.092499,0.040855 0.1205027,0.068859 0.014629,0.014629 0.021185,0.03575 0.034429,0.051644 0.045262,0.054314 0.1481863,0.1504349 0.2065764,0.1893615 0.030197,0.020132 0.069592,0.020952 0.103288,0.034429 0.054082,0.021632 0.099058,0.063724 0.1549323,0.086073 0.094041,0.037616 0.1948974,0.066523 0.2926496,0.086073 0.028134,0.00563 0.057773,-0.00472 0.086073,0 0.024958,0.00416 0.1133891,0.026321 0.1377175,0.034429 0.0077,0.00257 0.00934,0.015245 0.017214,0.017214 0.0167,0.0042 0.034764,-0.0034 0.051644,0 0.061341,0.01227 0.1093391,0.0517 0.1613562,0.07769 0.089485,0.04471 0.1944817,-0.094739 0.2709558,-0.099756 0.00919,-6.085e-4 -0.012615,0.034748 -0.060321,0.058601 -0.051771,0.02588 -0.03717,0.05313 -0.067554,0.06842 -0.020862,0.0105 -0.01696,-0.01706 -0.033397,0.01412 -0.00265,0.005 0.00507,0.01448 0,0.017 -0.010213,0.0051 -0.024027,-0.0051 -0.034214,0 -0.00513,0.0026 0.00396,0.01306 0,0.01721 -0.00161,0.0017 -0.05773,0.0028 -0.060855,0 -0.00592,-0.0054 0.026696,-0.06929 0.03287,-0.09399 C 9.18714,9.9786578 9.2021,9.9792918 9.250376,9.914856 9.272336,9.885546 9.277837,9.853185 9.301802,9.82922 9.309882,9.82114 9.309792,9.806548 9.318698,9.799397 9.330813,9.789667 9.37523,9.775976 9.385603,9.765603 c 0.00401,-0.00401 0,-0.022677 0,-0.01701 0,0.077102 -0.09064,0.1635565 -0.1360427,0.2203101 -0.04392,0.054901 -0.035881,0.1304459 -0.06274,0.1845059 -0.00999,0.02011 -0.066963,0.04721 -0.068425,0.06864 -0.00103,0.01525 0.080317,0.05149 0.103137,0.08345 0.00971,0.0136 -0.00744,0.03517 0,0.05014 0.00251,0.0051 0.012338,-0.0032 0.016999,0 0.00597,0.0041 0,0.09548 0,0.06383"
         id="path5497" />
      <path
         style="fill:#ff6600;stroke:#000000;stroke-width:0.264583"
         d="m 4.8173952,3.8392304 c -0.00567,-0.030214 -0.00774,-0.061328 -0.016999,-0.090641 -0.00241,-0.00764 -0.013433,-0.00982 -0.016999,-0.017 -0.00499,-0.010036 0.00792,-0.025694 0,-0.033617 -0.039396,-0.039395 -0.089,0.091216 -0.099227,0.079109 -0.00942,-0.011152 0.013335,-0.026231 0.016999,-0.040364 0.00666,-0.025694 -0.00845,-0.060499 0,-0.085643 0.00259,-0.00769 0.014629,-0.00952 0.017214,-0.017214 0.00928,-0.027608 0,-0.072407 0,-0.1026397 0,-0.00374 0,0.00747 0,0.011208 0,0.02789 0.00225,0.010569 -0.017214,0.049489 -0.00427,0.00855 -0.034112,0.1085681 -0.034112,0.11679 0,0.00406 -0.00663,0.013534 -0.00753,0.00958 -0.0045,-0.019701 -0.00804,-0.049036 0.013234,-0.049036"
         id="path5499" />
      <path
         style="fill:#ff6600;stroke:#000000;stroke-width:0.264583"
         d="M 2.8482889,4.2620356 2.8146975,4.208938"
         id="path5501" />
    </g>
  </g>
</svg>
